{"glyphs":{"0":{"ha":884,"x_min":120,"x_max":764,"o":"m 442 -13 q 202 101 284 -13 q 120 433 120 215 l 120 572 q 203 908 120 793 q 443 1023 285 1023 q 682 908 601 1023 q 764 572 764 793 l 764 433 q 682 101 764 215 q 442 -13 600 -13 m 442 67 q 620 157 564 67 q 676 441 676 246 l 676 564 q 620 853 676 763 q 442 943 564 943 q 264 853 319 943 q 208 564 208 763 l 208 441 q 264 157 208 246 q 442 67 319 67 m 442 422 q 387 434 408 422 q 366 481 366 447 l 366 528 q 387 574 366 562 q 442 587 408 587 q 496 574 476 587 q 516 528 516 562 l 516 481 q 496 434 516 447 q 442 422 475 422 z "},"1":{"ha":884,"x_min":153,"x_max":802,"o":"m 183 0 l 183 80 l 461 80 l 461 862 l 439 862 q 333 744 405 787 q 165 707 260 702 l 153 797 q 348 850 265 793 q 465 1010 431 908 l 549 1010 l 549 80 l 802 80 l 802 0 l 183 0 z "},"2":{"ha":884,"x_min":120,"x_max":764,"o":"m 120 0 l 120 215 q 169 390 120 326 q 324 482 218 455 l 527 533 q 632 590 601 552 q 663 698 663 628 l 663 750 q 613 898 663 852 q 442 943 563 943 q 280 893 327 943 q 221 716 232 843 l 133 725 q 215 951 141 880 q 441 1023 288 1023 q 674 958 596 1023 q 751 763 751 893 l 751 679 q 699 533 751 588 q 540 451 646 479 l 348 403 q 244 344 279 386 q 208 217 208 302 l 208 80 l 764 80 l 764 0 l 120 0 z "},"3":{"ha":884,"x_min":107,"x_max":764,"o":"m 429 -13 q 188 52 259 -13 q 107 255 116 116 l 196 265 q 257 106 208 148 q 429 64 306 64 q 620 112 564 64 q 676 274 676 159 l 676 308 q 622 456 676 413 q 442 499 569 499 l 331 499 l 331 578 l 442 578 q 603 612 556 578 q 650 727 650 645 l 650 768 q 600 906 650 866 q 429 946 551 946 q 275 907 321 946 q 221 764 230 867 l 133 774 q 213 964 141 905 q 429 1023 284 1023 q 661 963 583 1023 q 739 768 739 903 l 739 727 q 691 602 739 648 q 559 549 643 556 l 559 528 q 711 461 659 520 q 764 308 764 402 l 764 274 q 687 58 764 129 q 429 -13 610 -13 z "},"4":{"ha":884,"x_min":107,"x_max":827,"o":"m 207 364 l 587 364 l 587 919 l 207 364 m 827 284 l 676 284 l 676 0 l 587 0 l 587 284 l 107 284 l 107 364 l 545 1010 l 676 1010 l 676 364 l 827 364 l 827 284 z "},"5":{"ha":884,"x_min":107,"x_max":764,"o":"m 433 -13 q 194 50 268 -13 q 107 263 120 112 l 196 271 q 258 110 208 153 q 434 67 308 67 q 617 118 559 67 q 676 273 676 169 l 676 333 q 629 478 676 432 q 486 524 583 524 l 145 524 l 145 1010 l 713 1010 l 713 931 l 234 931 l 234 606 l 486 606 q 694 540 624 606 q 764 345 764 473 l 764 260 q 679 59 764 130 q 433 -13 595 -13 z "},"6":{"ha":884,"x_min":120,"x_max":764,"o":"m 442 -13 q 200 78 280 -13 q 120 348 120 168 l 120 655 q 203 930 120 837 q 444 1023 287 1023 q 655 972 585 1023 q 749 804 725 920 l 657 785 q 593 908 638 874 q 442 943 549 943 q 263 876 317 943 q 208 655 208 809 l 208 504 l 226 504 q 316 583 259 554 q 465 611 372 611 q 689 533 615 611 q 764 331 764 456 l 764 303 q 680 69 764 152 q 442 -13 596 -13 m 441 67 q 616 124 559 67 q 673 301 673 181 l 673 317 q 616 479 673 427 q 441 532 559 532 q 265 479 322 532 q 208 317 208 427 l 208 301 q 265 124 208 181 q 441 67 322 67 z "},"7":{"ha":884,"x_min":120,"x_max":764,"o":"m 335 0 q 459 501 402 308 q 676 926 516 693 l 120 926 l 120 1010 l 764 1010 l 764 926 q 539 454 600 657 q 436 0 479 251 l 335 0 z "},"8":{"ha":884,"x_min":120,"x_max":764,"o":"m 442 -13 q 198 54 277 -13 q 120 261 120 121 l 120 289 q 170 453 120 394 q 307 521 220 513 l 307 543 q 190 600 235 549 q 145 740 145 650 l 145 780 q 217 964 145 905 q 442 1023 289 1023 q 667 964 595 1023 q 739 780 739 905 l 739 740 q 694 600 739 650 q 577 543 649 549 l 577 521 q 714 453 664 513 q 764 289 764 393 l 764 261 q 686 54 764 121 q 442 -13 607 -13 m 442 568 q 604 605 557 568 q 650 734 650 643 l 650 768 q 604 906 650 866 q 442 946 557 946 q 280 906 327 946 q 234 768 234 866 l 234 734 q 280 605 234 643 q 442 568 327 568 m 442 64 q 623 111 571 64 q 676 274 676 158 l 676 295 q 623 445 676 402 q 442 489 571 489 q 261 445 313 489 q 208 295 208 402 l 208 274 q 261 111 208 158 q 442 64 313 64 z "},"9":{"ha":884,"x_min":120,"x_max":764,"o":"m 443 479 q 618 531 561 479 q 676 693 676 583 l 676 710 q 618 886 676 828 q 443 943 561 943 q 268 886 326 943 q 211 710 211 828 l 211 693 q 268 531 211 583 q 443 479 326 479 m 439 -13 q 229 39 299 -13 q 135 206 159 90 l 227 227 q 292 101 247 135 q 442 67 337 67 q 621 134 567 67 q 676 355 676 201 l 676 506 l 658 506 q 563 427 621 455 q 417 399 504 399 q 197 475 274 399 q 120 679 120 551 l 120 707 q 204 941 120 859 q 442 1023 288 1023 q 684 932 605 1023 q 764 662 764 842 l 764 355 q 684 83 764 179 q 439 -13 604 -13 z "},"\u0000":{"ha":0,"x_min":0,"x_max":0,"o":""},"\r":{"ha":0,"x_min":0,"x_max":0,"o":""}," ":{"ha":884,"x_min":0,"x_max":0,"o":""}," ":{"ha":884,"x_min":0,"x_max":0,"o":""},"A":{"ha":884,"x_min":69,"x_max":816,"o":"m 600 385 l 441 893 l 280 385 l 600 385 m 720 0 l 624 306 l 256 306 l 160 0 l 69 0 l 403 1010 l 482 1010 l 816 0 l 720 0 z "},"À":{"ha":884,"x_min":69,"x_max":816,"o":"m 69 0 m 600 385 l 441 893 l 280 385 l 600 385 m 720 0 l 624 306 l 256 306 l 160 0 l 69 0 l 403 1010 l 482 1010 l 816 0 l 720 0 m 463 1136 l 225 1389 l 361 1389 l 540 1136 l 463 1136 z "},"Á":{"ha":884,"x_min":69,"x_max":816,"o":"m 69 0 m 600 385 l 441 893 l 280 385 l 600 385 m 720 0 l 624 306 l 256 306 l 160 0 l 69 0 l 403 1010 l 482 1010 l 816 0 l 720 0 m 335 1136 l 514 1389 l 650 1389 l 412 1136 l 335 1136 z "},"Â":{"ha":884,"x_min":69,"x_max":816,"o":"m 69 0 m 600 385 l 441 893 l 280 385 l 600 385 m 720 0 l 624 306 l 256 306 l 160 0 l 69 0 l 403 1010 l 482 1010 l 816 0 l 720 0 m 227 1155 l 193 1208 l 412 1410 l 472 1410 l 693 1208 l 658 1155 l 442 1326 l 227 1155 z "},"Ã":{"ha":884,"x_min":69,"x_max":816,"o":"m 69 0 m 600 385 l 441 893 l 280 385 l 600 385 m 720 0 l 624 306 l 256 306 l 160 0 l 69 0 l 403 1010 l 482 1010 l 816 0 l 720 0 m 549 1149 q 477 1172 506 1149 q 417 1246 448 1196 q 374 1308 393 1288 q 333 1328 355 1328 q 283 1294 301 1328 q 268 1176 265 1259 l 268 1162 l 197 1162 l 197 1181 q 233 1343 197 1284 q 337 1402 269 1402 q 412 1378 383 1402 q 468 1308 441 1355 q 515 1244 496 1265 q 553 1222 533 1222 q 602 1257 585 1222 q 619 1375 619 1292 l 619 1389 l 689 1389 l 689 1370 q 653 1208 689 1266 q 549 1149 617 1149 z "},"Ä":{"ha":884,"x_min":69,"x_max":816,"o":"m 69 0 m 600 385 l 441 893 l 280 385 l 600 385 m 720 0 l 624 306 l 256 306 l 160 0 l 69 0 l 403 1010 l 482 1010 l 816 0 l 720 0 m 306 1164 q 257 1176 275 1164 q 239 1221 239 1188 l 239 1230 q 257 1277 239 1264 q 306 1289 275 1289 q 354 1277 336 1289 q 372 1230 372 1264 l 372 1221 q 354 1176 372 1188 q 306 1164 335 1164 m 581 1164 q 532 1176 551 1164 q 514 1221 514 1188 l 514 1230 q 532 1277 514 1264 q 581 1289 551 1289 q 629 1277 611 1289 q 648 1230 648 1264 l 648 1221 q 629 1176 648 1188 q 581 1164 610 1164 z "},"Å":{"ha":884,"x_min":69,"x_max":816,"o":"m 69 0 m 600 385 l 441 893 l 280 385 l 600 385 m 720 0 l 624 306 l 256 306 l 160 0 l 69 0 l 403 1010 l 482 1010 l 816 0 l 720 0 m 443 1117 q 306 1164 356 1117 q 256 1301 256 1210 l 256 1341 q 306 1480 256 1433 q 443 1528 356 1528 q 580 1480 530 1528 q 630 1341 630 1433 l 630 1301 q 580 1164 630 1210 q 443 1117 530 1117 m 443 1184 q 528 1211 501 1184 q 554 1301 554 1239 l 554 1341 q 528 1432 554 1403 q 443 1461 501 1461 q 359 1432 385 1461 q 332 1341 332 1403 l 332 1301 q 359 1211 332 1239 q 443 1184 385 1184 z "},"Ā":{"ha":884,"x_min":69,"x_max":816,"o":"m 69 0 m 600 385 l 441 893 l 280 385 l 600 385 m 720 0 l 624 306 l 256 306 l 160 0 l 69 0 l 403 1010 l 482 1010 l 816 0 l 720 0 m 210 1225 l 210 1304 l 677 1304 l 677 1225 l 210 1225 z "},"Ă":{"ha":884,"x_min":69,"x_max":816,"o":"m 69 0 m 600 385 l 441 893 l 280 385 l 600 385 m 720 0 l 624 306 l 256 306 l 160 0 l 69 0 l 403 1010 l 482 1010 l 816 0 l 720 0 m 443 1128 q 247 1193 319 1128 q 173 1393 174 1258 l 261 1393 q 307 1246 264 1290 q 443 1202 351 1202 q 579 1246 535 1202 q 625 1393 622 1290 l 713 1393 q 640 1193 712 1258 q 443 1128 567 1128 z "},"Ą":{"ha":884,"x_min":69,"x_max":896,"o":"m 69 0 m 600 385 l 441 893 l 280 385 l 600 385 m 720 0 l 624 306 l 256 306 l 160 0 l 69 0 l 403 1010 l 482 1010 l 816 0 l 720 0 m 785 -271 q 660 -233 710 -271 q 610 -129 610 -194 q 653 -23 610 -71 q 761 49 697 24 l 784 29 q 715 -34 736 0 q 693 -105 693 -68 q 718 -170 693 -149 q 795 -192 744 -192 q 847 -189 819 -192 q 896 -181 874 -186 l 896 -260 q 841 -268 872 -265 q 785 -271 809 -271 z "},"Ǻ":{"ha":884,"x_min":69,"x_max":816,"o":"m 69 0 m 600 385 l 441 893 l 280 385 l 600 385 m 720 0 l 624 306 l 256 306 l 160 0 l 69 0 l 403 1010 l 482 1010 l 816 0 l 720 0 m 443 1117 q 306 1164 356 1117 q 256 1301 256 1210 l 256 1341 q 306 1480 256 1433 q 443 1528 356 1528 q 580 1480 530 1528 q 630 1341 630 1433 l 630 1301 q 580 1164 630 1210 q 443 1117 530 1117 m 443 1184 q 528 1211 501 1184 q 554 1301 554 1239 l 554 1341 q 528 1432 554 1403 q 443 1461 501 1461 q 359 1432 385 1461 q 332 1341 332 1403 l 332 1301 q 359 1211 332 1239 q 443 1184 385 1184 m 409 1515 l 588 1768 l 725 1768 l 486 1515 l 409 1515 z "},"B":{"ha":884,"x_min":145,"x_max":769,"o":"m 145 0 l 145 1010 l 447 1010 q 657 950 586 1010 q 729 773 729 890 l 729 716 q 691 603 729 649 q 591 545 654 557 l 591 524 q 720 459 672 516 q 769 314 769 402 l 769 258 q 693 65 769 130 q 466 0 616 0 l 145 0 m 234 567 l 452 567 q 598 604 554 567 q 643 729 643 641 l 643 764 q 598 891 643 852 q 452 931 554 931 l 234 931 l 234 567 m 234 80 l 477 80 q 633 122 586 80 q 681 264 681 165 l 681 304 q 633 445 681 403 q 477 487 586 487 l 234 487 l 234 80 z "},"":{"ha":884,"x_min":145,"x_max":769,"o":"m 145 0 l 145 1010 l 447 1010 q 657 950 586 1010 q 729 773 729 890 l 729 716 q 691 603 729 649 q 591 545 654 557 l 591 524 q 720 459 672 516 q 769 314 769 402 l 769 258 q 693 65 769 130 q 466 0 616 0 l 145 0 m 234 567 l 452 567 q 598 604 554 567 q 643 729 643 641 l 643 764 q 598 891 643 852 q 452 931 554 931 l 234 931 l 234 567 m 234 80 l 477 80 q 633 122 586 80 q 681 264 681 165 l 681 304 q 633 445 681 403 q 477 487 586 487 l 234 487 l 234 80 z "},"C":{"ha":884,"x_min":120,"x_max":787,"o":"m 455 -13 q 205 78 289 -13 q 120 342 120 168 l 120 663 q 205 931 120 840 q 456 1023 290 1023 q 696 945 614 1023 q 787 699 778 867 l 698 691 q 633 888 686 832 q 455 943 580 943 q 265 877 322 943 q 208 655 208 811 l 208 350 q 265 132 208 197 q 455 67 322 67 q 638 123 582 67 q 698 314 693 179 l 787 306 q 700 66 783 145 q 455 -13 617 -13 z "},"Ç":{"ha":884,"x_min":120,"x_max":787,"o":"m 120 0 m 455 -13 q 205 78 289 -13 q 120 342 120 168 l 120 663 q 205 931 120 840 q 456 1023 290 1023 q 696 945 614 1023 q 787 699 778 867 l 698 691 q 633 888 686 832 q 455 943 580 943 q 265 877 322 943 q 208 655 208 811 l 208 350 q 265 132 208 197 q 455 67 322 67 q 638 123 582 67 q 698 314 693 179 l 787 306 q 700 66 783 145 q 455 -13 617 -13 m 417 0 l 434 38 q 547 -14 503 25 q 591 -122 591 -53 q 541 -234 591 -196 q 414 -273 491 -273 q 290 -241 338 -273 q 236 -135 241 -210 l 317 -128 q 342 -183 322 -167 q 408 -199 362 -199 q 484 -181 461 -199 q 508 -112 508 -162 q 487 -39 508 -64 q 417 0 466 -14 z "},"Ć":{"ha":884,"x_min":120,"x_max":787,"o":"m 120 0 m 455 -13 q 205 78 289 -13 q 120 342 120 168 l 120 663 q 205 931 120 840 q 456 1023 290 1023 q 696 945 614 1023 q 787 699 778 867 l 698 691 q 633 888 686 832 q 455 943 580 943 q 265 877 322 943 q 208 655 208 811 l 208 350 q 265 132 208 197 q 455 67 322 67 q 638 123 582 67 q 698 314 693 179 l 787 306 q 700 66 783 145 q 455 -13 617 -13 m 396 1136 l 576 1389 l 712 1389 l 473 1136 l 396 1136 z "},"Ĉ":{"ha":884,"x_min":120,"x_max":787,"o":"m 120 0 m 455 -13 q 205 78 289 -13 q 120 342 120 168 l 120 663 q 205 931 120 840 q 456 1023 290 1023 q 696 945 614 1023 q 787 699 778 867 l 698 691 q 633 888 686 832 q 455 943 580 943 q 265 877 322 943 q 208 655 208 811 l 208 350 q 265 132 208 197 q 455 67 322 67 q 638 123 582 67 q 698 314 693 179 l 787 306 q 700 66 783 145 q 455 -13 617 -13 m 239 1155 l 205 1208 l 423 1410 l 484 1410 l 705 1208 l 669 1155 l 453 1326 l 239 1155 z "},"Ċ":{"ha":884,"x_min":120,"x_max":787,"o":"m 120 0 m 455 -13 q 205 78 289 -13 q 120 342 120 168 l 120 663 q 205 931 120 840 q 456 1023 290 1023 q 696 945 614 1023 q 787 699 778 867 l 698 691 q 633 888 686 832 q 455 943 580 943 q 265 877 322 943 q 208 655 208 811 l 208 350 q 265 132 208 197 q 455 67 322 67 q 638 123 582 67 q 698 314 693 179 l 787 306 q 700 66 783 145 q 455 -13 617 -13 m 455 1164 q 396 1176 419 1164 q 374 1221 374 1188 l 374 1230 q 396 1277 374 1264 q 455 1289 419 1289 q 513 1277 490 1289 q 535 1230 535 1264 l 535 1221 q 513 1176 535 1188 q 455 1164 490 1164 z "},"Č":{"ha":884,"x_min":120,"x_max":787,"o":"m 120 0 m 455 -13 q 205 78 289 -13 q 120 342 120 168 l 120 663 q 205 931 120 840 q 456 1023 290 1023 q 696 945 614 1023 q 787 699 778 867 l 698 691 q 633 888 686 832 q 455 943 580 943 q 265 877 322 943 q 208 655 208 811 l 208 350 q 265 132 208 197 q 455 67 322 67 q 638 123 582 67 q 698 314 693 179 l 787 306 q 700 66 783 145 q 455 -13 617 -13 m 424 1141 l 205 1343 l 239 1396 l 455 1226 l 669 1396 l 705 1343 l 485 1141 l 424 1141 z "},"D":{"ha":884,"x_min":145,"x_max":764,"o":"m 145 0 l 145 1010 l 405 1010 q 669 910 573 1010 q 764 643 764 809 l 764 362 q 669 98 764 197 q 404 0 573 0 l 145 0 m 234 80 l 404 80 q 609 158 542 80 q 676 362 676 236 l 676 643 q 609 849 676 768 q 404 931 542 931 l 234 931 l 234 80 z "},"Ď":{"ha":884,"x_min":145,"x_max":764,"o":"m 145 0 m 145 0 l 145 1010 l 405 1010 q 669 910 573 1010 q 764 643 764 809 l 764 362 q 669 98 764 197 q 404 0 573 0 l 145 0 m 234 80 l 404 80 q 609 158 542 80 q 676 362 676 236 l 676 643 q 609 849 676 768 q 404 931 542 931 l 234 931 l 234 80 m 412 1141 l 192 1343 l 226 1396 l 442 1226 l 657 1396 l 692 1343 l 472 1141 l 412 1141 z "},"E":{"ha":884,"x_min":145,"x_max":764,"o":"m 145 0 l 145 1010 l 764 1010 l 764 931 l 234 931 l 234 591 l 701 591 l 701 511 l 234 511 l 234 80 l 764 80 l 764 0 l 145 0 z "},"":{"ha":884,"x_min":145,"x_max":764,"o":"m 145 0 l 145 1010 l 764 1010 l 764 931 l 234 931 l 234 591 l 701 591 l 701 511 l 234 511 l 234 80 l 764 80 l 764 0 l 145 0 z "},"È":{"ha":884,"x_min":145,"x_max":764,"o":"m 145 0 m 145 0 l 145 1010 l 764 1010 l 764 931 l 234 931 l 234 591 l 701 591 l 701 511 l 234 511 l 234 80 l 764 80 l 764 0 l 145 0 m 475 1136 l 236 1389 l 372 1389 l 552 1136 l 475 1136 z "},"É":{"ha":884,"x_min":145,"x_max":764,"o":"m 145 0 m 145 0 l 145 1010 l 764 1010 l 764 931 l 234 931 l 234 591 l 701 591 l 701 511 l 234 511 l 234 80 l 764 80 l 764 0 l 145 0 m 371 1136 l 551 1389 l 687 1389 l 448 1136 l 371 1136 z "},"Ê":{"ha":884,"x_min":145,"x_max":764,"o":"m 145 0 m 145 0 l 145 1010 l 764 1010 l 764 931 l 234 931 l 234 591 l 701 591 l 701 511 l 234 511 l 234 80 l 764 80 l 764 0 l 145 0 m 251 1155 l 217 1208 l 436 1410 l 496 1410 l 717 1208 l 682 1155 l 466 1326 l 251 1155 z "},"Ë":{"ha":884,"x_min":145,"x_max":764,"o":"m 145 0 m 145 0 l 145 1010 l 764 1010 l 764 931 l 234 931 l 234 591 l 701 591 l 701 511 l 234 511 l 234 80 l 764 80 l 764 0 l 145 0 m 330 1164 q 281 1176 299 1164 q 263 1221 263 1188 l 263 1230 q 281 1277 263 1264 q 330 1289 299 1289 q 378 1277 360 1289 q 396 1230 396 1264 l 396 1221 q 378 1176 396 1188 q 330 1164 359 1164 m 605 1164 q 556 1176 574 1164 q 538 1221 538 1188 l 538 1230 q 556 1277 538 1264 q 605 1289 574 1289 q 653 1277 635 1289 q 672 1230 672 1264 l 672 1221 q 653 1176 672 1188 q 605 1164 634 1164 z "},"Ē":{"ha":884,"x_min":145,"x_max":764,"o":"m 145 0 m 145 0 l 145 1010 l 764 1010 l 764 931 l 234 931 l 234 591 l 701 591 l 701 511 l 234 511 l 234 80 l 764 80 l 764 0 l 145 0 m 234 1225 l 234 1304 l 701 1304 l 701 1225 l 234 1225 z "},"Ĕ":{"ha":884,"x_min":145,"x_max":764,"o":"m 145 0 m 145 0 l 145 1010 l 764 1010 l 764 931 l 234 931 l 234 591 l 701 591 l 701 511 l 234 511 l 234 80 l 764 80 l 764 0 l 145 0 m 467 1128 q 271 1193 343 1128 q 197 1393 198 1258 l 285 1393 q 331 1246 288 1290 q 467 1202 375 1202 q 603 1246 559 1202 q 649 1393 646 1290 l 737 1393 q 664 1193 736 1258 q 467 1128 591 1128 z "},"Ė":{"ha":884,"x_min":145,"x_max":764,"o":"m 145 0 m 145 0 l 145 1010 l 764 1010 l 764 931 l 234 931 l 234 591 l 701 591 l 701 511 l 234 511 l 234 80 l 764 80 l 764 0 l 145 0 m 467 1164 q 409 1176 432 1164 q 386 1221 386 1188 l 386 1230 q 409 1277 386 1264 q 467 1289 432 1289 q 525 1277 503 1289 q 548 1230 548 1264 l 548 1221 q 525 1176 548 1188 q 467 1164 503 1164 z "},"Ę":{"ha":884,"x_min":145,"x_max":768,"o":"m 145 0 m 145 0 l 145 1010 l 764 1010 l 764 931 l 234 931 l 234 591 l 701 591 l 701 511 l 234 511 l 234 80 l 764 80 l 764 0 l 145 0 m 657 -271 q 531 -233 581 -271 q 481 -129 481 -194 q 525 -23 481 -71 q 633 49 568 24 l 655 29 q 586 -34 607 0 q 564 -105 564 -68 q 590 -170 564 -149 q 667 -192 615 -192 q 718 -189 691 -192 q 768 -181 745 -186 l 768 -260 q 712 -268 744 -265 q 657 -271 681 -271 z "},"Ě":{"ha":884,"x_min":145,"x_max":764,"o":"m 145 0 m 145 0 l 145 1010 l 764 1010 l 764 931 l 234 931 l 234 591 l 701 591 l 701 511 l 234 511 l 234 80 l 764 80 l 764 0 l 145 0 m 449 1141 l 230 1343 l 264 1396 l 480 1226 l 694 1396 l 730 1343 l 510 1141 l 449 1141 z "},"F":{"ha":884,"x_min":145,"x_max":764,"o":"m 145 0 l 145 1010 l 764 1010 l 764 931 l 234 931 l 234 486 l 676 486 l 676 407 l 234 407 l 234 0 l 145 0 z "},"G":{"ha":884,"x_min":120,"x_max":789,"o":"m 467 -13 q 209 80 298 -13 q 120 350 120 173 l 120 655 q 206 928 120 833 q 456 1023 293 1023 q 681 951 607 1023 q 764 723 755 880 l 676 713 q 617 894 664 845 q 455 943 569 943 q 266 876 324 943 q 208 655 208 808 l 208 350 q 270 133 208 199 q 467 67 331 67 q 648 143 595 67 q 701 404 701 220 l 442 404 l 442 484 l 789 484 l 789 395 q 710 88 789 189 q 467 -13 630 -13 z "},"Ĝ":{"ha":884,"x_min":120,"x_max":789,"o":"m 120 0 m 467 -13 q 209 80 298 -13 q 120 350 120 173 l 120 655 q 206 928 120 833 q 456 1023 293 1023 q 681 951 607 1023 q 764 723 755 880 l 676 713 q 617 894 664 845 q 455 943 569 943 q 266 876 324 943 q 208 655 208 808 l 208 350 q 270 133 208 199 q 467 67 331 67 q 648 143 595 67 q 701 404 701 220 l 442 404 l 442 484 l 789 484 l 789 395 q 710 88 789 189 q 467 -13 630 -13 m 251 1155 l 217 1208 l 436 1410 l 496 1410 l 717 1208 l 682 1155 l 466 1326 l 251 1155 z "},"Ğ":{"ha":884,"x_min":120,"x_max":789,"o":"m 120 0 m 467 -13 q 209 80 298 -13 q 120 350 120 173 l 120 655 q 206 928 120 833 q 456 1023 293 1023 q 681 951 607 1023 q 764 723 755 880 l 676 713 q 617 894 664 845 q 455 943 569 943 q 266 876 324 943 q 208 655 208 808 l 208 350 q 270 133 208 199 q 467 67 331 67 q 648 143 595 67 q 701 404 701 220 l 442 404 l 442 484 l 789 484 l 789 395 q 710 88 789 189 q 467 -13 630 -13 m 467 1128 q 271 1193 343 1128 q 197 1393 198 1258 l 285 1393 q 331 1246 288 1290 q 467 1202 375 1202 q 603 1246 559 1202 q 649 1393 646 1290 l 737 1393 q 664 1193 736 1258 q 467 1128 591 1128 z "},"Ġ":{"ha":884,"x_min":120,"x_max":789,"o":"m 120 0 m 467 -13 q 209 80 298 -13 q 120 350 120 173 l 120 655 q 206 928 120 833 q 456 1023 293 1023 q 681 951 607 1023 q 764 723 755 880 l 676 713 q 617 894 664 845 q 455 943 569 943 q 266 876 324 943 q 208 655 208 808 l 208 350 q 270 133 208 199 q 467 67 331 67 q 648 143 595 67 q 701 404 701 220 l 442 404 l 442 484 l 789 484 l 789 395 q 710 88 789 189 q 467 -13 630 -13 m 455 1164 q 396 1176 419 1164 q 374 1221 374 1188 l 374 1230 q 396 1277 374 1264 q 455 1289 419 1289 q 513 1277 490 1289 q 535 1230 535 1264 l 535 1221 q 513 1176 535 1188 q 455 1164 490 1164 z "},"Ģ":{"ha":884,"x_min":120,"x_max":789,"o":"m 120 0 m 467 -13 q 209 80 298 -13 q 120 350 120 173 l 120 655 q 206 928 120 833 q 456 1023 293 1023 q 681 951 607 1023 q 764 723 755 880 l 676 713 q 617 894 664 845 q 455 943 569 943 q 266 876 324 943 q 208 655 208 808 l 208 350 q 270 133 208 199 q 467 67 331 67 q 648 143 595 67 q 701 404 701 220 l 442 404 l 442 484 l 789 484 l 789 395 q 710 88 789 189 q 467 -13 630 -13 m 301 -379 l 422 -126 l 558 -126 l 378 -379 l 301 -379 z "},"H":{"ha":884,"x_min":145,"x_max":739,"o":"m 145 0 l 145 1010 l 234 1010 l 234 591 l 650 591 l 650 1010 l 739 1010 l 739 0 l 650 0 l 650 511 l 234 511 l 234 0 l 145 0 z "},"Ĥ":{"ha":884,"x_min":145,"x_max":739,"o":"m 145 0 m 145 0 l 145 1010 l 234 1010 l 234 591 l 650 591 l 650 1010 l 739 1010 l 739 0 l 650 0 l 650 511 l 234 511 l 234 0 l 145 0 m 226 1155 l 192 1208 l 410 1410 l 471 1410 l 692 1208 l 657 1155 l 441 1326 l 226 1155 z "},"I":{"ha":884,"x_min":145,"x_max":739,"o":"m 145 0 l 145 80 l 398 80 l 398 931 l 145 931 l 145 1010 l 739 1010 l 739 931 l 486 931 l 486 80 l 739 80 l 739 0 l 145 0 z "},"Ì":{"ha":884,"x_min":145,"x_max":739,"o":"m 145 0 m 145 0 l 145 80 l 398 80 l 398 931 l 145 931 l 145 1010 l 739 1010 l 739 931 l 486 931 l 486 80 l 739 80 l 739 0 l 145 0 m 462 1136 l 223 1389 l 360 1389 l 539 1136 l 462 1136 z "},"Í":{"ha":884,"x_min":145,"x_max":739,"o":"m 145 0 m 145 0 l 145 80 l 398 80 l 398 931 l 145 931 l 145 1010 l 739 1010 l 739 931 l 486 931 l 486 80 l 739 80 l 739 0 l 145 0 m 333 1136 l 513 1389 l 649 1389 l 410 1136 l 333 1136 z "},"Î":{"ha":884,"x_min":145,"x_max":739,"o":"m 145 0 m 145 0 l 145 80 l 398 80 l 398 931 l 145 931 l 145 1010 l 739 1010 l 739 931 l 486 931 l 486 80 l 739 80 l 739 0 l 145 0 m 226 1155 l 192 1208 l 410 1410 l 471 1410 l 692 1208 l 657 1155 l 441 1326 l 226 1155 z "},"Ï":{"ha":884,"x_min":145,"x_max":739,"o":"m 145 0 m 145 0 l 145 80 l 398 80 l 398 931 l 145 931 l 145 1010 l 739 1010 l 739 931 l 486 931 l 486 80 l 739 80 l 739 0 l 145 0 m 304 1164 q 256 1176 274 1164 q 237 1221 237 1188 l 237 1230 q 256 1277 237 1264 q 304 1289 274 1289 q 353 1277 335 1289 q 371 1230 371 1264 l 371 1221 q 352 1176 371 1188 q 304 1164 333 1164 m 580 1164 q 531 1176 549 1164 q 513 1221 513 1188 l 513 1230 q 531 1277 513 1264 q 580 1289 549 1289 q 628 1277 610 1289 q 646 1230 646 1264 l 646 1221 q 628 1176 646 1188 q 580 1164 609 1164 z "},"Ĩ":{"ha":884,"x_min":145,"x_max":739,"o":"m 145 0 m 145 0 l 145 80 l 398 80 l 398 931 l 145 931 l 145 1010 l 739 1010 l 739 931 l 486 931 l 486 80 l 739 80 l 739 0 l 145 0 m 548 1149 q 476 1172 505 1149 q 415 1246 447 1196 q 372 1308 391 1288 q 332 1328 354 1328 q 282 1294 299 1328 q 266 1176 264 1259 l 266 1162 l 196 1162 l 196 1181 q 232 1343 196 1284 q 336 1402 268 1402 q 410 1378 381 1402 q 467 1308 439 1355 q 513 1244 495 1265 q 552 1222 532 1222 q 600 1257 583 1222 q 617 1375 617 1292 l 617 1389 l 688 1389 l 688 1370 q 652 1208 688 1266 q 548 1149 616 1149 z "},"Ī":{"ha":884,"x_min":145,"x_max":739,"o":"m 145 0 m 145 0 l 145 80 l 398 80 l 398 931 l 145 931 l 145 1010 l 739 1010 l 739 931 l 486 931 l 486 80 l 739 80 l 739 0 l 145 0 m 208 1225 l 208 1304 l 676 1304 l 676 1225 l 208 1225 z "},"Ĭ":{"ha":884,"x_min":145,"x_max":739,"o":"m 145 0 m 145 0 l 145 80 l 398 80 l 398 931 l 145 931 l 145 1010 l 739 1010 l 739 931 l 486 931 l 486 80 l 739 80 l 739 0 l 145 0 m 442 1128 q 246 1193 318 1128 q 172 1393 173 1258 l 260 1393 q 306 1246 263 1290 q 442 1202 350 1202 q 578 1246 534 1202 q 624 1393 621 1290 l 712 1393 q 638 1193 711 1258 q 442 1128 566 1128 z "},"Į":{"ha":884,"x_min":145,"x_max":739,"o":"m 145 0 m 145 0 l 145 80 l 398 80 l 398 931 l 145 931 l 145 1010 l 739 1010 l 739 931 l 486 931 l 486 80 l 739 80 l 739 0 l 145 0 m 537 -271 q 411 -233 461 -271 q 361 -129 361 -194 q 405 -23 361 -71 q 513 49 448 24 l 535 29 q 466 -34 487 0 q 444 -105 444 -68 q 470 -170 444 -149 q 547 -192 495 -192 q 598 -189 571 -192 q 648 -181 625 -186 l 648 -260 q 592 -268 624 -265 q 537 -271 561 -271 z "},"İ":{"ha":884,"x_min":145,"x_max":739,"o":"m 145 0 m 145 0 l 145 80 l 398 80 l 398 931 l 145 931 l 145 1010 l 739 1010 l 739 931 l 486 931 l 486 80 l 739 80 l 739 0 l 145 0 m 442 1164 q 384 1176 407 1164 q 361 1221 361 1188 l 361 1230 q 384 1277 361 1264 q 442 1289 407 1289 q 500 1277 477 1289 q 523 1230 523 1264 l 523 1221 q 500 1176 523 1188 q 442 1164 477 1164 z "},"J":{"ha":884,"x_min":95,"x_max":739,"o":"m 415 -13 q 180 65 258 -13 q 95 308 102 143 l 183 318 q 243 121 193 176 q 414 67 293 67 q 594 129 538 67 q 650 327 650 192 l 650 931 l 379 931 l 379 1010 l 739 1010 l 739 328 q 657 73 739 159 q 415 -13 576 -13 z "},"Ĵ":{"ha":884,"x_min":95,"x_max":806,"o":"m 95 0 m 415 -13 q 180 65 258 -13 q 95 308 102 143 l 183 318 q 243 121 193 176 q 414 67 293 67 q 594 129 538 67 q 650 327 650 192 l 650 931 l 379 931 l 379 1010 l 739 1010 l 739 328 q 657 73 739 159 q 415 -13 576 -13 m 340 1155 l 306 1208 l 524 1410 l 585 1410 l 806 1208 l 770 1155 l 554 1326 l 340 1155 z "},"K":{"ha":884,"x_min":145,"x_max":813,"o":"m 234 495 l 234 0 l 145 0 l 145 1010 l 234 1010 l 234 574 l 314 574 l 705 1010 l 813 1010 l 393 543 l 809 0 l 701 0 l 323 495 l 234 495 z "},"Ķ":{"ha":884,"x_min":145,"x_max":813,"o":"m 145 0 m 234 495 l 234 0 l 145 0 l 145 1010 l 234 1010 l 234 574 l 314 574 l 705 1010 l 813 1010 l 393 543 l 809 0 l 701 0 l 323 495 l 234 495 m 288 -379 l 409 -126 l 545 -126 l 365 -379 l 288 -379 z "},"L":{"ha":884,"x_min":208,"x_max":739,"o":"m 208 0 l 208 1010 l 297 1010 l 297 80 l 739 80 l 739 0 l 208 0 z "},"Ĺ":{"ha":884,"x_min":208,"x_max":739,"o":"m 208 0 m 208 0 l 208 1010 l 297 1010 l 297 80 l 739 80 l 739 0 l 208 0 m 270 1136 l 449 1389 l 586 1389 l 347 1136 l 270 1136 z "},"Ļ":{"ha":884,"x_min":208,"x_max":739,"o":"m 208 0 m 208 0 l 208 1010 l 297 1010 l 297 80 l 739 80 l 739 0 l 208 0 m 307 -379 l 428 -126 l 564 -126 l 384 -379 l 307 -379 z "},"Ľ":{"ha":884,"x_min":208,"x_max":739,"o":"m 208 0 m 208 0 l 208 1010 l 297 1010 l 297 80 l 739 80 l 739 0 l 208 0 m 510 676 l 612 1010 l 737 1010 l 578 676 l 510 676 z "},"M":{"ha":884,"x_min":104,"x_max":780,"o":"m 398 253 l 187 866 l 187 0 l 104 0 l 104 1010 l 222 1010 l 444 352 l 665 1010 l 780 1010 l 780 0 l 697 0 l 697 865 l 486 253 l 398 253 z "},"N":{"ha":884,"x_min":145,"x_max":739,"o":"m 622 0 l 227 871 l 227 0 l 145 0 l 145 1010 l 254 1010 l 657 120 l 657 1010 l 739 1010 l 739 0 l 622 0 z "},"Ñ":{"ha":884,"x_min":145,"x_max":739,"o":"m 145 0 m 622 0 l 227 871 l 227 0 l 145 0 l 145 1010 l 254 1010 l 657 120 l 657 1010 l 739 1010 l 739 0 l 622 0 m 573 1149 q 501 1172 530 1149 q 441 1246 472 1196 q 398 1308 417 1288 q 357 1328 379 1328 q 307 1294 324 1328 q 292 1176 289 1259 l 292 1162 l 221 1162 l 221 1181 q 257 1343 221 1284 q 361 1402 293 1402 q 436 1378 407 1402 q 492 1308 465 1355 q 539 1244 520 1265 q 577 1222 557 1222 q 626 1257 609 1222 q 643 1375 643 1292 l 643 1389 l 713 1389 l 713 1370 q 677 1208 713 1266 q 573 1149 641 1149 z "},"Ń":{"ha":884,"x_min":145,"x_max":739,"o":"m 145 0 m 622 0 l 227 871 l 227 0 l 145 0 l 145 1010 l 254 1010 l 657 120 l 657 1010 l 739 1010 l 739 0 l 622 0 m 359 1136 l 538 1389 l 674 1389 l 436 1136 l 359 1136 z "},"Ņ":{"ha":884,"x_min":145,"x_max":739,"o":"m 145 0 m 622 0 l 227 871 l 227 0 l 145 0 l 145 1010 l 254 1010 l 657 120 l 657 1010 l 739 1010 l 739 0 l 622 0 m 263 -379 l 384 -126 l 520 -126 l 340 -379 l 263 -379 z "},"Ň":{"ha":884,"x_min":145,"x_max":739,"o":"m 145 0 m 622 0 l 227 871 l 227 0 l 145 0 l 145 1010 l 254 1010 l 657 120 l 657 1010 l 739 1010 l 739 0 l 622 0 m 437 1141 l 217 1343 l 251 1396 l 467 1226 l 682 1396 l 717 1343 l 497 1141 l 437 1141 z "},"O":{"ha":884,"x_min":120,"x_max":764,"o":"m 442 -13 q 201 78 283 -13 q 120 350 120 168 l 120 655 q 202 931 120 840 q 443 1023 284 1023 q 682 931 601 1023 q 764 655 764 840 l 764 350 q 682 78 764 168 q 442 -13 601 -13 m 442 67 q 621 133 567 67 q 676 350 676 199 l 676 655 q 621 876 676 809 q 442 943 567 943 q 263 876 317 943 q 208 655 208 809 l 208 350 q 263 133 208 199 q 442 67 317 67 z "},"Ò":{"ha":884,"x_min":120,"x_max":764,"o":"m 120 0 m 442 -13 q 201 78 283 -13 q 120 350 120 168 l 120 655 q 202 931 120 840 q 443 1023 284 1023 q 682 931 601 1023 q 764 655 764 840 l 764 350 q 682 78 764 168 q 442 -13 601 -13 m 442 67 q 621 133 567 67 q 676 350 676 199 l 676 655 q 621 876 676 809 q 442 943 567 943 q 263 876 317 943 q 208 655 208 809 l 208 350 q 263 133 208 199 q 442 67 317 67 m 462 1136 l 223 1389 l 360 1389 l 539 1136 l 462 1136 z "},"Ó":{"ha":884,"x_min":120,"x_max":764,"o":"m 120 0 m 442 -13 q 201 78 283 -13 q 120 350 120 168 l 120 655 q 202 931 120 840 q 443 1023 284 1023 q 682 931 601 1023 q 764 655 764 840 l 764 350 q 682 78 764 168 q 442 -13 601 -13 m 442 67 q 621 133 567 67 q 676 350 676 199 l 676 655 q 621 876 676 809 q 442 943 567 943 q 263 876 317 943 q 208 655 208 809 l 208 350 q 263 133 208 199 q 442 67 317 67 m 384 1136 l 563 1389 l 699 1389 l 461 1136 l 384 1136 z "},"Ô":{"ha":884,"x_min":120,"x_max":764,"o":"m 120 0 m 442 -13 q 201 78 283 -13 q 120 350 120 168 l 120 655 q 202 931 120 840 q 443 1023 284 1023 q 682 931 601 1023 q 764 655 764 840 l 764 350 q 682 78 764 168 q 442 -13 601 -13 m 442 67 q 621 133 567 67 q 676 350 676 199 l 676 655 q 621 876 676 809 q 442 943 567 943 q 263 876 317 943 q 208 655 208 809 l 208 350 q 263 133 208 199 q 442 67 317 67 m 226 1155 l 192 1208 l 410 1410 l 471 1410 l 692 1208 l 657 1155 l 441 1326 l 226 1155 z "},"Õ":{"ha":884,"x_min":120,"x_max":764,"o":"m 120 0 m 442 -13 q 201 78 283 -13 q 120 350 120 168 l 120 655 q 202 931 120 840 q 443 1023 284 1023 q 682 931 601 1023 q 764 655 764 840 l 764 350 q 682 78 764 168 q 442 -13 601 -13 m 442 67 q 621 133 567 67 q 676 350 676 199 l 676 655 q 621 876 676 809 q 442 943 567 943 q 263 876 317 943 q 208 655 208 809 l 208 350 q 263 133 208 199 q 442 67 317 67 m 548 1149 q 476 1172 505 1149 q 415 1246 447 1196 q 372 1308 391 1288 q 332 1328 354 1328 q 282 1294 299 1328 q 266 1176 264 1259 l 266 1162 l 196 1162 l 196 1181 q 232 1343 196 1284 q 336 1402 268 1402 q 410 1378 381 1402 q 467 1308 439 1355 q 513 1244 495 1265 q 552 1222 532 1222 q 600 1257 583 1222 q 617 1375 617 1292 l 617 1389 l 688 1389 l 688 1370 q 652 1208 688 1266 q 548 1149 616 1149 z "},"Ö":{"ha":884,"x_min":120,"x_max":764,"o":"m 120 0 m 442 -13 q 201 78 283 -13 q 120 350 120 168 l 120 655 q 202 931 120 840 q 443 1023 284 1023 q 682 931 601 1023 q 764 655 764 840 l 764 350 q 682 78 764 168 q 442 -13 601 -13 m 442 67 q 621 133 567 67 q 676 350 676 199 l 676 655 q 621 876 676 809 q 442 943 567 943 q 263 876 317 943 q 208 655 208 809 l 208 350 q 263 133 208 199 q 442 67 317 67 m 304 1164 q 256 1176 274 1164 q 237 1221 237 1188 l 237 1230 q 256 1277 237 1264 q 304 1289 274 1289 q 353 1277 335 1289 q 371 1230 371 1264 l 371 1221 q 352 1176 371 1188 q 304 1164 333 1164 m 580 1164 q 531 1176 549 1164 q 513 1221 513 1188 l 513 1230 q 531 1277 513 1264 q 580 1289 549 1289 q 628 1277 610 1289 q 646 1230 646 1264 l 646 1221 q 628 1176 646 1188 q 580 1164 609 1164 z "},"Ō":{"ha":884,"x_min":120,"x_max":764,"o":"m 120 0 m 442 -13 q 201 78 283 -13 q 120 350 120 168 l 120 655 q 202 931 120 840 q 443 1023 284 1023 q 682 931 601 1023 q 764 655 764 840 l 764 350 q 682 78 764 168 q 442 -13 601 -13 m 442 67 q 621 133 567 67 q 676 350 676 199 l 676 655 q 621 876 676 809 q 442 943 567 943 q 263 876 317 943 q 208 655 208 809 l 208 350 q 263 133 208 199 q 442 67 317 67 m 208 1225 l 208 1304 l 676 1304 l 676 1225 l 208 1225 z "},"Ŏ":{"ha":884,"x_min":120,"x_max":764,"o":"m 120 0 m 442 -13 q 201 78 283 -13 q 120 350 120 168 l 120 655 q 202 931 120 840 q 443 1023 284 1023 q 682 931 601 1023 q 764 655 764 840 l 764 350 q 682 78 764 168 q 442 -13 601 -13 m 442 67 q 621 133 567 67 q 676 350 676 199 l 676 655 q 621 876 676 809 q 442 943 567 943 q 263 876 317 943 q 208 655 208 809 l 208 350 q 263 133 208 199 q 442 67 317 67 m 442 1128 q 246 1193 318 1128 q 172 1393 173 1258 l 260 1393 q 306 1246 263 1290 q 442 1202 350 1202 q 578 1246 534 1202 q 624 1393 621 1290 l 712 1393 q 638 1193 711 1258 q 442 1128 566 1128 z "},"Ő":{"ha":884,"x_min":120,"x_max":764,"o":"m 120 0 m 442 -13 q 201 78 283 -13 q 120 350 120 168 l 120 655 q 202 931 120 840 q 443 1023 284 1023 q 682 931 601 1023 q 764 655 764 840 l 764 350 q 682 78 764 168 q 442 -13 601 -13 m 442 67 q 621 133 567 67 q 676 350 676 199 l 676 655 q 621 876 676 809 q 442 943 567 943 q 263 876 317 943 q 208 655 208 809 l 208 350 q 263 133 208 199 q 442 67 317 67 m 513 1136 l 583 1389 l 722 1389 l 580 1136 l 513 1136 m 253 1136 l 323 1389 l 462 1389 l 319 1136 l 253 1136 z "},"P":{"ha":884,"x_min":145,"x_max":777,"o":"m 145 0 l 145 1010 l 481 1010 q 702 943 628 1010 q 777 744 777 875 l 777 620 q 701 421 777 489 q 480 354 626 354 l 234 354 l 234 0 l 145 0 m 234 432 l 480 432 q 640 476 592 432 q 688 622 688 520 l 688 739 q 640 886 688 841 q 480 931 592 931 l 234 931 l 234 432 z "},"Q":{"ha":884,"x_min":120,"x_max":798,"o":"m 798 -241 q 528 -221 622 -279 q 429 -13 433 -163 q 198 83 275 -9 q 120 350 120 174 l 120 655 q 201 930 120 837 q 443 1023 283 1023 q 682 930 601 1023 q 764 655 764 837 l 764 350 q 701 102 764 192 q 518 -6 639 11 q 586 -155 520 -121 q 784 -163 653 -188 l 798 -241 m 442 72 q 621 137 567 72 q 676 350 676 202 l 676 655 q 621 872 676 806 q 442 938 567 938 q 263 872 317 938 q 208 655 208 806 l 208 350 q 263 137 208 202 q 442 72 317 72 z "},"R":{"ha":884,"x_min":145,"x_max":817,"o":"m 234 473 l 505 473 q 665 518 616 473 q 713 665 713 562 l 713 741 q 665 886 713 842 q 505 931 616 931 l 234 931 l 234 473 m 234 0 l 145 0 l 145 1010 l 506 1010 q 729 943 655 1010 q 802 744 802 875 l 802 664 q 741 475 802 543 q 557 396 681 407 l 817 0 l 717 0 l 460 394 l 234 394 l 234 0 z "},"Ŕ":{"ha":884,"x_min":145,"x_max":817,"o":"m 145 0 m 234 473 l 505 473 q 665 518 616 473 q 713 665 713 562 l 713 741 q 665 886 713 842 q 505 931 616 931 l 234 931 l 234 473 m 234 0 l 145 0 l 145 1010 l 506 1010 q 729 943 655 1010 q 802 744 802 875 l 802 664 q 741 475 802 543 q 557 396 681 407 l 817 0 l 717 0 l 460 394 l 234 394 l 234 0 m 428 1136 l 607 1389 l 744 1389 l 505 1136 l 428 1136 z "},"Ŗ":{"ha":884,"x_min":145,"x_max":817,"o":"m 145 0 m 234 473 l 505 473 q 665 518 616 473 q 713 665 713 562 l 713 741 q 665 886 713 842 q 505 931 616 931 l 234 931 l 234 473 m 234 0 l 145 0 l 145 1010 l 506 1010 q 729 943 655 1010 q 802 744 802 875 l 802 664 q 741 475 802 543 q 557 396 681 407 l 817 0 l 717 0 l 460 394 l 234 394 l 234 0 m 269 -379 l 390 -126 l 527 -126 l 346 -379 l 269 -379 z "},"Ř":{"ha":884,"x_min":145,"x_max":817,"o":"m 145 0 m 234 473 l 505 473 q 665 518 616 473 q 713 665 713 562 l 713 741 q 665 886 713 842 q 505 931 616 931 l 234 931 l 234 473 m 234 0 l 145 0 l 145 1010 l 506 1010 q 729 943 655 1010 q 802 744 802 875 l 802 664 q 741 475 802 543 q 557 396 681 407 l 817 0 l 717 0 l 460 394 l 234 394 l 234 0 m 418 1141 l 198 1343 l 232 1396 l 448 1226 l 663 1396 l 698 1343 l 479 1141 l 418 1141 z "},"S":{"ha":884,"x_min":97,"x_max":778,"o":"m 461 -8 q 257 33 346 -8 q 97 160 168 73 l 160 218 q 290 108 218 144 q 463 72 362 72 q 629 124 566 72 q 692 261 692 176 q 637 394 692 348 q 439 477 582 439 q 203 584 270 521 q 135 758 135 646 q 218 946 135 876 q 426 1015 301 1015 q 612 975 530 1015 q 759 852 693 936 l 698 792 q 578 900 644 864 q 427 936 511 936 q 278 891 335 936 q 222 768 222 847 q 277 641 222 684 q 479 558 332 597 q 711 451 644 514 q 778 269 778 389 q 686 68 778 143 q 461 -8 595 -8 z "},"":{"ha":884,"x_min":97,"x_max":778,"o":"m 461 -8 q 257 33 346 -8 q 97 160 168 73 l 160 218 q 290 108 218 144 q 463 72 362 72 q 629 124 566 72 q 692 261 692 176 q 637 394 692 348 q 439 477 582 439 q 203 584 270 521 q 135 758 135 646 q 218 946 135 876 q 426 1015 301 1015 q 612 975 530 1015 q 759 852 693 936 l 698 792 q 578 900 644 864 q 427 936 511 936 q 278 891 335 936 q 222 768 222 847 q 277 641 222 684 q 479 558 332 597 q 711 451 644 514 q 778 269 778 389 q 686 68 778 143 q 461 -8 595 -8 z "},"Ś":{"ha":884,"x_min":97,"x_max":778,"o":"m 97 0 m 461 -8 q 257 33 346 -8 q 97 160 168 73 l 160 218 q 290 108 218 144 q 463 72 362 72 q 629 124 566 72 q 692 261 692 176 q 637 394 692 348 q 439 477 582 439 q 203 584 270 521 q 135 758 135 646 q 218 946 135 876 q 426 1015 301 1015 q 612 975 530 1015 q 759 852 693 936 l 698 792 q 578 900 644 864 q 427 936 511 936 q 278 891 335 936 q 222 768 222 847 q 277 641 222 684 q 479 558 332 597 q 711 451 644 514 q 778 269 778 389 q 686 68 778 143 q 461 -8 595 -8 m 335 1136 l 514 1389 l 650 1389 l 412 1136 l 335 1136 z "},"Ŝ":{"ha":884,"x_min":97,"x_max":778,"o":"m 97 0 m 461 -8 q 257 33 346 -8 q 97 160 168 73 l 160 218 q 290 108 218 144 q 463 72 362 72 q 629 124 566 72 q 692 261 692 176 q 637 394 692 348 q 439 477 582 439 q 203 584 270 521 q 135 758 135 646 q 218 946 135 876 q 426 1015 301 1015 q 612 975 530 1015 q 759 852 693 936 l 698 792 q 578 900 644 864 q 427 936 511 936 q 278 891 335 936 q 222 768 222 847 q 277 641 222 684 q 479 558 332 597 q 711 451 644 514 q 778 269 778 389 q 686 68 778 143 q 461 -8 595 -8 m 227 1155 l 193 1208 l 412 1410 l 472 1410 l 693 1208 l 658 1155 l 442 1326 l 227 1155 z "},"Ş":{"ha":884,"x_min":97,"x_max":778,"o":"m 97 0 m 461 -8 q 257 33 346 -8 q 97 160 168 73 l 160 218 q 290 108 218 144 q 463 72 362 72 q 629 124 566 72 q 692 261 692 176 q 637 394 692 348 q 439 477 582 439 q 203 584 270 521 q 135 758 135 646 q 218 946 135 876 q 426 1015 301 1015 q 612 975 530 1015 q 759 852 693 936 l 698 792 q 578 900 644 864 q 427 936 511 936 q 278 891 335 936 q 222 768 222 847 q 277 641 222 684 q 479 558 332 597 q 711 451 644 514 q 778 269 778 389 q 686 68 778 143 q 461 -8 595 -8 m 405 0 l 423 38 q 535 -14 491 25 q 580 -122 580 -53 q 530 -234 580 -196 q 403 -273 480 -273 q 278 -241 327 -273 q 225 -135 230 -210 l 306 -128 q 331 -183 311 -167 q 396 -199 351 -199 q 473 -181 449 -199 q 496 -112 496 -162 q 475 -39 496 -64 q 405 0 455 -14 z "},"Š":{"ha":884,"x_min":97,"x_max":778,"o":"m 97 0 m 461 -8 q 257 33 346 -8 q 97 160 168 73 l 160 218 q 290 108 218 144 q 463 72 362 72 q 629 124 566 72 q 692 261 692 176 q 637 394 692 348 q 439 477 582 439 q 203 584 270 521 q 135 758 135 646 q 218 946 135 876 q 426 1015 301 1015 q 612 975 530 1015 q 759 852 693 936 l 698 792 q 578 900 644 864 q 427 936 511 936 q 278 891 335 936 q 222 768 222 847 q 277 641 222 684 q 479 558 332 597 q 711 451 644 514 q 778 269 778 389 q 686 68 778 143 q 461 -8 595 -8 m 413 1141 l 193 1343 l 227 1396 l 443 1226 l 658 1396 l 693 1343 l 473 1141 l 413 1141 z "},"Ș":{"ha":884,"x_min":97,"x_max":778,"o":"m 97 0 m 461 -8 q 257 33 346 -8 q 97 160 168 73 l 160 218 q 290 108 218 144 q 463 72 362 72 q 629 124 566 72 q 692 261 692 176 q 637 394 692 348 q 439 477 582 439 q 203 584 270 521 q 135 758 135 646 q 218 946 135 876 q 426 1015 301 1015 q 612 975 530 1015 q 759 852 693 936 l 698 792 q 578 900 644 864 q 427 936 511 936 q 278 891 335 936 q 222 768 222 847 q 277 641 222 684 q 479 558 332 597 q 711 451 644 514 q 778 269 778 389 q 686 68 778 143 q 461 -8 595 -8 m 263 -379 l 384 -126 l 520 -126 l 340 -379 l 263 -379 z "},"T":{"ha":884,"x_min":82,"x_max":802,"o":"m 398 0 l 398 931 l 82 931 l 82 1010 l 802 1010 l 802 931 l 486 931 l 486 0 l 398 0 z "},"Ţ":{"ha":884,"x_min":82,"x_max":802,"o":"m 82 0 m 398 0 l 398 931 l 82 931 l 82 1010 l 802 1010 l 802 931 l 486 931 l 486 0 l 398 0 m 400 0 l 418 38 q 530 -14 486 25 q 574 -122 574 -53 q 525 -234 574 -196 q 398 -273 475 -273 q 273 -241 322 -273 q 220 -135 225 -210 l 301 -128 q 326 -183 306 -167 q 391 -199 346 -199 q 468 -181 444 -199 q 491 -112 491 -162 q 470 -39 491 -64 q 400 0 449 -14 z "},"Ť":{"ha":884,"x_min":82,"x_max":802,"o":"m 82 0 m 398 0 l 398 931 l 82 931 l 82 1010 l 802 1010 l 802 931 l 486 931 l 486 0 l 398 0 m 412 1141 l 192 1343 l 226 1396 l 442 1226 l 657 1396 l 692 1343 l 472 1141 l 412 1141 z "},"Ț":{"ha":884,"x_min":82,"x_max":802,"o":"m 82 0 m 398 0 l 398 931 l 82 931 l 82 1010 l 802 1010 l 802 931 l 486 931 l 486 0 l 398 0 m 261 -379 l 383 -126 l 519 -126 l 338 -379 l 261 -379 z "},"U":{"ha":884,"x_min":145,"x_max":739,"o":"m 442 -13 q 218 76 292 -13 q 145 350 145 165 l 145 1010 l 234 1010 l 234 350 q 282 133 234 198 q 442 67 330 67 q 602 133 554 67 q 650 350 650 198 l 650 1010 l 739 1010 l 739 350 q 665 76 739 165 q 442 -13 592 -13 z "},"Ù":{"ha":884,"x_min":145,"x_max":739,"o":"m 145 0 m 442 -13 q 218 76 292 -13 q 145 350 145 165 l 145 1010 l 234 1010 l 234 350 q 282 133 234 198 q 442 67 330 67 q 602 133 554 67 q 650 350 650 198 l 650 1010 l 739 1010 l 739 350 q 665 76 739 165 q 442 -13 592 -13 m 462 1136 l 223 1389 l 360 1389 l 539 1136 l 462 1136 z "},"Ú":{"ha":884,"x_min":145,"x_max":739,"o":"m 145 0 m 442 -13 q 218 76 292 -13 q 145 350 145 165 l 145 1010 l 234 1010 l 234 350 q 282 133 234 198 q 442 67 330 67 q 602 133 554 67 q 650 350 650 198 l 650 1010 l 739 1010 l 739 350 q 665 76 739 165 q 442 -13 592 -13 m 333 1136 l 513 1389 l 649 1389 l 410 1136 l 333 1136 z "},"Û":{"ha":884,"x_min":145,"x_max":739,"o":"m 145 0 m 442 -13 q 218 76 292 -13 q 145 350 145 165 l 145 1010 l 234 1010 l 234 350 q 282 133 234 198 q 442 67 330 67 q 602 133 554 67 q 650 350 650 198 l 650 1010 l 739 1010 l 739 350 q 665 76 739 165 q 442 -13 592 -13 m 226 1155 l 192 1208 l 410 1410 l 471 1410 l 692 1208 l 657 1155 l 441 1326 l 226 1155 z "},"Ü":{"ha":884,"x_min":145,"x_max":739,"o":"m 145 0 m 442 -13 q 218 76 292 -13 q 145 350 145 165 l 145 1010 l 234 1010 l 234 350 q 282 133 234 198 q 442 67 330 67 q 602 133 554 67 q 650 350 650 198 l 650 1010 l 739 1010 l 739 350 q 665 76 739 165 q 442 -13 592 -13 m 304 1164 q 256 1176 274 1164 q 237 1221 237 1188 l 237 1230 q 256 1277 237 1264 q 304 1289 274 1289 q 353 1277 335 1289 q 371 1230 371 1264 l 371 1221 q 352 1176 371 1188 q 304 1164 333 1164 m 580 1164 q 531 1176 549 1164 q 513 1221 513 1188 l 513 1230 q 531 1277 513 1264 q 580 1289 549 1289 q 628 1277 610 1289 q 646 1230 646 1264 l 646 1221 q 628 1176 646 1188 q 580 1164 609 1164 z "},"Ũ":{"ha":884,"x_min":145,"x_max":739,"o":"m 145 0 m 442 -13 q 218 76 292 -13 q 145 350 145 165 l 145 1010 l 234 1010 l 234 350 q 282 133 234 198 q 442 67 330 67 q 602 133 554 67 q 650 350 650 198 l 650 1010 l 739 1010 l 739 350 q 665 76 739 165 q 442 -13 592 -13 m 548 1149 q 476 1172 505 1149 q 415 1246 447 1196 q 372 1308 391 1288 q 332 1328 354 1328 q 282 1294 299 1328 q 266 1176 264 1259 l 266 1162 l 196 1162 l 196 1181 q 232 1343 196 1284 q 336 1402 268 1402 q 410 1378 381 1402 q 467 1308 439 1355 q 513 1244 495 1265 q 552 1222 532 1222 q 600 1257 583 1222 q 617 1375 617 1292 l 617 1389 l 688 1389 l 688 1370 q 652 1208 688 1266 q 548 1149 616 1149 z "},"Ū":{"ha":884,"x_min":145,"x_max":739,"o":"m 145 0 m 442 -13 q 218 76 292 -13 q 145 350 145 165 l 145 1010 l 234 1010 l 234 350 q 282 133 234 198 q 442 67 330 67 q 602 133 554 67 q 650 350 650 198 l 650 1010 l 739 1010 l 739 350 q 665 76 739 165 q 442 -13 592 -13 m 208 1225 l 208 1304 l 676 1304 l 676 1225 l 208 1225 z "},"Ŭ":{"ha":884,"x_min":145,"x_max":739,"o":"m 145 0 m 442 -13 q 218 76 292 -13 q 145 350 145 165 l 145 1010 l 234 1010 l 234 350 q 282 133 234 198 q 442 67 330 67 q 602 133 554 67 q 650 350 650 198 l 650 1010 l 739 1010 l 739 350 q 665 76 739 165 q 442 -13 592 -13 m 442 1128 q 246 1193 318 1128 q 172 1393 173 1258 l 260 1393 q 306 1246 263 1290 q 442 1202 350 1202 q 578 1246 534 1202 q 624 1393 621 1290 l 712 1393 q 638 1193 711 1258 q 442 1128 566 1128 z "},"Ů":{"ha":884,"x_min":145,"x_max":739,"o":"m 145 0 m 442 -13 q 218 76 292 -13 q 145 350 145 165 l 145 1010 l 234 1010 l 234 350 q 282 133 234 198 q 442 67 330 67 q 602 133 554 67 q 650 350 650 198 l 650 1010 l 739 1010 l 739 350 q 665 76 739 165 q 442 -13 592 -13 m 442 1117 q 305 1164 355 1117 q 255 1301 255 1210 l 255 1341 q 305 1480 255 1433 q 442 1528 355 1528 q 579 1480 529 1528 q 629 1341 629 1433 l 629 1301 q 579 1164 629 1210 q 442 1117 529 1117 m 442 1184 q 527 1211 500 1184 q 553 1301 553 1239 l 553 1341 q 527 1432 553 1403 q 442 1461 500 1461 q 357 1432 384 1461 q 331 1341 331 1403 l 331 1301 q 357 1211 331 1239 q 442 1184 384 1184 z "},"Ű":{"ha":884,"x_min":145,"x_max":739,"o":"m 145 0 m 442 -13 q 218 76 292 -13 q 145 350 145 165 l 145 1010 l 234 1010 l 234 350 q 282 133 234 198 q 442 67 330 67 q 602 133 554 67 q 650 350 650 198 l 650 1010 l 739 1010 l 739 350 q 665 76 739 165 q 442 -13 592 -13 m 525 1136 l 596 1389 l 735 1389 l 592 1136 l 525 1136 m 265 1136 l 336 1389 l 475 1389 l 332 1136 l 265 1136 z "},"Ų":{"ha":884,"x_min":145,"x_max":739,"o":"m 145 0 m 442 -13 q 218 76 292 -13 q 145 350 145 165 l 145 1010 l 234 1010 l 234 350 q 282 133 234 198 q 442 67 330 67 q 602 133 554 67 q 650 350 650 198 l 650 1010 l 739 1010 l 739 350 q 665 76 739 165 q 442 -13 592 -13 m 524 -271 q 398 -233 448 -271 q 348 -129 348 -194 q 392 -23 348 -71 q 500 49 436 24 l 523 29 q 453 -34 475 0 q 432 -105 432 -68 q 457 -170 432 -149 q 534 -192 482 -192 q 585 -189 558 -192 q 635 -181 612 -186 l 635 -260 q 580 -268 611 -265 q 524 -271 548 -271 z "},"V":{"ha":884,"x_min":69,"x_max":816,"o":"m 482 0 l 403 0 l 69 1010 l 168 1010 l 444 129 l 721 1010 l 816 1010 l 482 0 z "},"W":{"ha":884,"x_min":57,"x_max":827,"o":"m 606 0 l 443 657 l 278 0 l 189 0 l 57 1010 l 141 1010 l 247 141 l 399 765 l 491 765 l 641 146 l 742 1010 l 827 1010 l 694 0 l 606 0 z "},"Ŵ":{"ha":884,"x_min":57,"x_max":827,"o":"m 57 0 m 606 0 l 443 657 l 278 0 l 189 0 l 57 1010 l 141 1010 l 247 141 l 399 765 l 491 765 l 641 146 l 742 1010 l 827 1010 l 694 0 l 606 0 m 226 1155 l 192 1208 l 410 1410 l 471 1410 l 692 1208 l 657 1155 l 441 1326 l 226 1155 z "},"Ẁ":{"ha":884,"x_min":57,"x_max":827,"o":"m 57 0 m 606 0 l 443 657 l 278 0 l 189 0 l 57 1010 l 141 1010 l 247 141 l 399 765 l 491 765 l 641 146 l 742 1010 l 827 1010 l 694 0 l 606 0 m 475 1136 l 236 1389 l 372 1389 l 552 1136 l 475 1136 z "},"Ẃ":{"ha":884,"x_min":57,"x_max":827,"o":"m 57 0 m 606 0 l 443 657 l 278 0 l 189 0 l 57 1010 l 141 1010 l 247 141 l 399 765 l 491 765 l 641 146 l 742 1010 l 827 1010 l 694 0 l 606 0 m 346 1136 l 525 1389 l 662 1389 l 423 1136 l 346 1136 z "},"Ẅ":{"ha":884,"x_min":57,"x_max":827,"o":"m 57 0 m 606 0 l 443 657 l 278 0 l 189 0 l 57 1010 l 141 1010 l 247 141 l 399 765 l 491 765 l 641 146 l 742 1010 l 827 1010 l 694 0 l 606 0 m 304 1164 q 256 1176 274 1164 q 237 1221 237 1188 l 237 1230 q 256 1277 237 1264 q 304 1289 274 1289 q 353 1277 335 1289 q 371 1230 371 1264 l 371 1221 q 352 1176 371 1188 q 304 1164 333 1164 m 580 1164 q 531 1176 549 1164 q 513 1221 513 1188 l 513 1230 q 531 1277 513 1264 q 580 1289 549 1289 q 628 1277 610 1289 q 646 1230 646 1264 l 646 1221 q 628 1176 646 1188 q 580 1164 609 1164 z "},"X":{"ha":884,"x_min":47,"x_max":840,"o":"m 736 0 l 444 447 l 148 0 l 47 0 l 399 518 l 78 1010 l 178 1010 l 456 585 l 739 1010 l 840 1010 l 501 514 l 836 0 l 736 0 z "},"Y":{"ha":884,"x_min":37,"x_max":846,"o":"m 486 0 l 398 0 l 398 379 l 37 1010 l 136 1010 l 446 461 l 749 1010 l 846 1010 l 486 379 l 486 0 z "},"Ý":{"ha":884,"x_min":37,"x_max":846,"o":"m 37 0 m 486 0 l 398 0 l 398 379 l 37 1010 l 136 1010 l 446 461 l 749 1010 l 846 1010 l 486 379 l 486 0 m 333 1136 l 513 1389 l 649 1389 l 410 1136 l 333 1136 z "},"Ŷ":{"ha":884,"x_min":37,"x_max":846,"o":"m 37 0 m 486 0 l 398 0 l 398 379 l 37 1010 l 136 1010 l 446 461 l 749 1010 l 846 1010 l 486 379 l 486 0 m 226 1155 l 192 1208 l 410 1410 l 471 1410 l 692 1208 l 657 1155 l 441 1326 l 226 1155 z "},"Ÿ":{"ha":884,"x_min":37,"x_max":846,"o":"m 37 0 m 486 0 l 398 0 l 398 379 l 37 1010 l 136 1010 l 446 461 l 749 1010 l 846 1010 l 486 379 l 486 0 m 304 1164 q 256 1176 274 1164 q 237 1221 237 1188 l 237 1230 q 256 1277 237 1264 q 304 1289 274 1289 q 353 1277 335 1289 q 371 1230 371 1264 l 371 1221 q 352 1176 371 1188 q 304 1164 333 1164 m 580 1164 q 531 1176 549 1164 q 513 1221 513 1188 l 513 1230 q 531 1277 513 1264 q 580 1289 549 1289 q 628 1277 610 1289 q 646 1230 646 1264 l 646 1221 q 628 1176 646 1188 q 580 1164 609 1164 z "},"Ỳ":{"ha":884,"x_min":37,"x_max":846,"o":"m 37 0 m 486 0 l 398 0 l 398 379 l 37 1010 l 136 1010 l 446 461 l 749 1010 l 846 1010 l 486 379 l 486 0 m 462 1136 l 223 1389 l 360 1389 l 539 1136 l 462 1136 z "},"Z":{"ha":884,"x_min":120,"x_max":771,"o":"m 771 0 l 120 0 l 120 80 l 668 931 l 120 931 l 120 1010 l 771 1010 l 771 931 l 223 80 l 771 80 l 771 0 z "},"Ź":{"ha":884,"x_min":120,"x_max":771,"o":"m 120 0 m 771 0 l 120 0 l 120 80 l 668 931 l 120 931 l 120 1010 l 771 1010 l 771 931 l 223 80 l 771 80 l 771 0 m 371 1136 l 551 1389 l 687 1389 l 448 1136 l 371 1136 z "},"Ż":{"ha":884,"x_min":120,"x_max":771,"o":"m 120 0 m 771 0 l 120 0 l 120 80 l 668 931 l 120 931 l 120 1010 l 771 1010 l 771 931 l 223 80 l 771 80 l 771 0 m 442 1164 q 384 1176 407 1164 q 361 1221 361 1188 l 361 1230 q 384 1277 361 1264 q 442 1289 407 1289 q 500 1277 477 1289 q 523 1230 523 1264 l 523 1221 q 500 1176 523 1188 q 442 1164 477 1164 z "},"Ž":{"ha":884,"x_min":120,"x_max":771,"o":"m 120 0 m 771 0 l 120 0 l 120 80 l 668 931 l 120 931 l 120 1010 l 771 1010 l 771 931 l 223 80 l 771 80 l 771 0 m 412 1141 l 192 1343 l 226 1396 l 442 1226 l 657 1396 l 692 1343 l 472 1141 l 412 1141 z "},"Æ":{"ha":884,"x_min":15,"x_max":852,"o":"m 369 936 l 206 380 l 470 380 l 470 936 l 369 936 m 470 306 l 183 306 l 93 0 l 15 0 l 318 1010 l 852 1010 l 852 936 l 553 936 l 553 580 l 840 580 l 840 505 l 553 505 l 553 74 l 852 74 l 852 0 l 470 0 l 470 306 z "},"Ǽ":{"ha":884,"x_min":15,"x_max":852,"o":"m 15 0 m 369 936 l 206 380 l 470 380 l 470 936 l 369 936 m 470 306 l 183 306 l 93 0 l 15 0 l 318 1010 l 852 1010 l 852 936 l 553 936 l 553 580 l 840 580 l 840 505 l 553 505 l 553 74 l 852 74 l 852 0 l 470 0 l 470 306 m 497 1136 l 677 1389 l 813 1389 l 574 1136 l 497 1136 z "},"Ð":{"ha":884,"x_min":19,"x_max":764,"o":"m 19 514 l 19 593 l 423 593 l 423 514 l 19 514 m 145 0 l 145 1010 l 405 1010 q 669 910 573 1010 q 764 643 764 809 l 764 362 q 669 98 764 197 q 404 0 573 0 l 145 0 m 234 80 l 404 80 q 609 158 542 80 q 676 362 676 236 l 676 643 q 609 849 676 768 q 404 931 542 931 l 234 931 l 234 80 z "},"Ø":{"ha":884,"x_min":120,"x_max":764,"o":"m 249 152 l 557 924 q 506 938 534 933 q 442 943 477 943 q 262 877 316 943 q 208 655 208 811 l 208 350 q 218 234 208 283 q 249 152 229 184 m 442 67 q 622 132 568 67 q 676 350 676 197 l 676 655 q 662 791 676 735 q 619 881 648 847 l 306 96 q 365 74 331 81 q 442 67 399 67 m 442 -13 q 354 -4 394 -13 q 279 20 313 4 l 229 -107 l 140 -107 l 210 68 q 143 184 165 112 q 120 350 120 255 l 120 655 q 202 931 120 840 q 443 1023 284 1023 q 518 1017 482 1023 q 583 999 553 1011 l 630 1117 l 718 1117 l 654 958 q 736 838 708 914 q 764 655 764 761 l 764 350 q 682 78 764 168 q 442 -13 600 -13 z "},"Ǿ":{"ha":884,"x_min":120,"x_max":764,"o":"m 120 0 m 249 152 l 557 924 q 506 938 534 933 q 442 943 477 943 q 262 877 316 943 q 208 655 208 811 l 208 350 q 218 234 208 283 q 249 152 229 184 m 442 67 q 622 132 568 67 q 676 350 676 197 l 676 655 q 662 791 676 735 q 619 881 648 847 l 306 96 q 365 74 331 81 q 442 67 399 67 m 442 -13 q 354 -4 394 -13 q 279 20 313 4 l 229 -107 l 140 -107 l 210 68 q 143 184 165 112 q 120 350 120 255 l 120 655 q 202 931 120 840 q 443 1023 284 1023 q 518 1017 482 1023 q 583 999 553 1011 l 630 1117 l 718 1117 l 654 958 q 736 838 708 914 q 764 655 764 761 l 764 350 q 682 78 764 168 q 442 -13 600 -13 m 384 1136 l 563 1389 l 699 1389 l 461 1136 l 384 1136 z "},"Þ":{"ha":884,"x_min":145,"x_max":777,"o":"m 145 0 l 145 1010 l 234 1010 l 234 846 l 481 846 q 701 778 626 846 q 777 580 777 711 l 777 463 q 701 259 777 330 q 480 189 626 189 l 234 189 l 234 0 l 145 0 m 234 268 l 480 268 q 640 313 592 268 q 688 463 688 357 l 688 580 q 640 723 688 681 q 480 766 592 766 l 234 766 l 234 268 z "},"Đ":{"ha":884,"x_min":19,"x_max":764,"o":"m 19 514 l 19 593 l 423 593 l 423 514 l 19 514 m 145 0 l 145 1010 l 405 1010 q 669 910 573 1010 q 764 643 764 809 l 764 362 q 669 98 764 197 q 404 0 573 0 l 145 0 m 234 80 l 404 80 q 609 158 542 80 q 676 362 676 236 l 676 643 q 609 849 676 768 q 404 931 542 931 l 234 931 l 234 80 z "},"Ħ":{"ha":884,"x_min":19,"x_max":865,"o":"m 234 513 l 650 513 l 650 726 l 234 726 l 234 513 m 234 433 l 234 0 l 145 0 l 145 726 l 19 726 l 19 806 l 145 806 l 145 1010 l 234 1010 l 234 806 l 650 806 l 650 1010 l 739 1010 l 739 806 l 865 806 l 865 726 l 739 726 l 739 0 l 650 0 l 650 433 l 234 433 z "},"Ĳ":{"ha":884,"x_min":95,"x_max":790,"o":"m 183 0 l 95 0 l 95 1010 l 183 1010 l 183 0 m 558 -13 q 390 59 447 -13 q 323 306 332 131 l 412 316 q 453 122 420 177 q 559 67 485 67 q 670 126 639 67 q 702 302 702 186 l 702 931 l 443 931 l 443 1010 l 790 1010 l 790 303 q 735 66 790 144 q 558 -13 679 -13 z "},"Ŀ":{"ha":884,"x_min":208,"x_max":826,"o":"m 208 0 m 208 0 l 208 1010 l 297 1010 l 297 80 l 739 80 l 739 0 l 208 0 m 745 533 q 687 545 710 533 q 664 590 664 557 l 664 598 q 687 645 664 633 q 745 658 710 658 q 803 645 780 658 q 826 598 826 633 l 826 590 q 803 545 826 557 q 745 533 780 533 z "},"Ł":{"ha":884,"x_min":82,"x_max":739,"o":"m 82 428 l 82 503 l 612 679 l 612 605 l 82 428 m 208 0 l 208 1010 l 297 1010 l 297 80 l 739 80 l 739 0 l 208 0 z "},"Ŋ":{"ha":884,"x_min":145,"x_max":739,"o":"m 465 -263 q 379 -254 423 -263 q 287 -230 335 -246 l 307 -148 q 390 -172 352 -164 q 461 -181 427 -181 q 601 -123 552 -181 q 650 57 650 -66 l 650 725 q 606 886 650 835 q 482 937 562 937 q 352 896 408 937 q 234 779 297 856 l 234 0 l 145 0 l 145 1010 l 234 1010 l 234 859 l 256 859 q 365 980 301 937 q 508 1023 429 1023 q 677 951 615 1023 q 739 755 739 880 l 739 40 q 664 -184 739 -106 q 465 -263 588 -263 z "},"Œ":{"ha":884,"x_min":28,"x_max":865,"o":"m 345 0 q 112 97 196 0 q 28 362 28 194 l 28 643 q 112 911 28 812 q 343 1010 196 1010 l 865 1010 l 865 936 l 553 936 l 553 591 l 865 591 l 865 516 l 553 516 l 553 74 l 865 74 l 865 0 l 345 0 m 345 74 l 470 74 l 470 936 l 345 936 q 170 858 229 936 q 111 643 111 780 l 111 362 q 170 150 111 226 q 345 74 229 74 z "},"Ŧ":{"ha":884,"x_min":82,"x_max":802,"o":"m 145 410 l 145 490 l 739 490 l 739 410 l 145 410 m 398 0 l 398 931 l 82 931 l 82 1010 l 802 1010 l 802 931 l 486 931 l 486 0 l 398 0 z "},"Α":{"ha":884,"x_min":69,"x_max":816,"o":"m 69 0 m 600 385 l 441 893 l 280 385 l 600 385 m 720 0 l 624 306 l 256 306 l 160 0 l 69 0 l 403 1010 l 482 1010 l 816 0 l 720 0 z "},"Ά":{"ha":884,"x_min":49,"x_max":816,"o":"m 49 0 m 600 385 l 441 893 l 280 385 l 600 385 m 720 0 l 624 306 l 256 306 l 160 0 l 69 0 l 403 1010 l 482 1010 l 816 0 l 720 0 m 49 884 l 153 1136 l 284 1136 l 121 884 l 49 884 z "},"Β":{"ha":884,"x_min":145,"x_max":769,"o":"m 145 0 m 145 0 l 145 1010 l 447 1010 q 657 950 586 1010 q 729 773 729 890 l 729 716 q 691 603 729 649 q 591 545 654 557 l 591 524 q 720 459 672 516 q 769 314 769 402 l 769 258 q 693 65 769 130 q 466 0 616 0 l 145 0 m 234 567 l 452 567 q 598 604 554 567 q 643 729 643 641 l 643 764 q 598 891 643 852 q 452 931 554 931 l 234 931 l 234 567 m 234 80 l 477 80 q 633 122 586 80 q 681 264 681 165 l 681 304 q 633 445 681 403 q 477 487 586 487 l 234 487 l 234 80 z "},"Γ":{"ha":884,"x_min":145,"x_max":764,"o":"m 145 0 l 145 1010 l 764 1010 l 764 931 l 234 931 l 234 0 l 145 0 z "},"Δ":{"ha":884,"x_min":69,"x_max":814,"o":"m 69 0 l 69 80 l 396 1010 l 476 1010 l 814 80 l 814 0 l 69 0 m 725 80 l 439 903 l 155 80 l 725 80 z "},"Ε":{"ha":884,"x_min":145,"x_max":764,"o":"m 145 0 m 145 0 l 145 1010 l 764 1010 l 764 931 l 234 931 l 234 591 l 701 591 l 701 511 l 234 511 l 234 80 l 764 80 l 764 0 l 145 0 z "},"Έ":{"ha":884,"x_min":-128,"x_max":764,"o":"m 0 0 m 145 0 l 145 1010 l 764 1010 l 764 931 l 234 931 l 234 591 l 701 591 l 701 511 l 234 511 l 234 80 l 764 80 l 764 0 l 145 0 m -128 884 l -24 1136 l 107 1136 l -56 884 l -128 884 z "},"Ζ":{"ha":884,"x_min":120,"x_max":771,"o":"m 120 0 m 771 0 l 120 0 l 120 80 l 668 931 l 120 931 l 120 1010 l 771 1010 l 771 931 l 223 80 l 771 80 l 771 0 z "},"Η":{"ha":884,"x_min":145,"x_max":739,"o":"m 145 0 m 145 0 l 145 1010 l 234 1010 l 234 591 l 650 591 l 650 1010 l 739 1010 l 739 0 l 650 0 l 650 511 l 234 511 l 234 0 l 145 0 z "},"Ή":{"ha":884,"x_min":-140,"x_max":739,"o":"m 0 0 m 145 0 l 145 1010 l 234 1010 l 234 591 l 650 591 l 650 1010 l 739 1010 l 739 0 l 650 0 l 650 511 l 234 511 l 234 0 l 145 0 m -140 884 l -37 1136 l 95 1136 l -68 884 l -140 884 z "},"Θ":{"ha":884,"x_min":105,"x_max":779,"o":"m 442 -13 q 190 79 275 -13 q 105 350 105 170 l 105 655 q 191 930 105 837 q 443 1023 277 1023 q 694 930 609 1023 q 779 655 779 837 l 779 350 q 694 79 779 170 q 442 -13 609 -13 m 442 67 q 634 132 577 67 q 691 350 691 197 l 691 655 q 634 877 691 811 q 442 943 577 943 q 250 877 307 943 q 193 655 193 811 l 193 350 q 250 132 193 197 q 442 67 307 67 m 331 473 l 331 553 l 553 553 l 553 473 l 331 473 z "},"Ι":{"ha":884,"x_min":145,"x_max":739,"o":"m 145 0 m 145 0 l 145 80 l 398 80 l 398 931 l 145 931 l 145 1010 l 739 1010 l 739 931 l 486 931 l 486 80 l 739 80 l 739 0 l 145 0 z "},"Ί":{"ha":884,"x_min":-140,"x_max":739,"o":"m 0 0 m 145 0 l 145 80 l 398 80 l 398 931 l 145 931 l 145 1010 l 739 1010 l 739 931 l 486 931 l 486 80 l 739 80 l 739 0 l 145 0 m -140 884 l -37 1136 l 95 1136 l -68 884 l -140 884 z "},"Ϊ":{"ha":884,"x_min":145,"x_max":739,"o":"m 145 0 m 145 0 l 145 80 l 398 80 l 398 931 l 145 931 l 145 1010 l 739 1010 l 739 931 l 486 931 l 486 80 l 739 80 l 739 0 l 145 0 m 304 1164 q 256 1176 274 1164 q 237 1221 237 1188 l 237 1230 q 256 1277 237 1264 q 304 1289 274 1289 q 353 1277 335 1289 q 371 1230 371 1264 l 371 1221 q 352 1176 371 1188 q 304 1164 333 1164 m 580 1164 q 531 1176 549 1164 q 513 1221 513 1188 l 513 1230 q 531 1277 513 1264 q 580 1289 549 1289 q 628 1277 610 1289 q 646 1230 646 1264 l 646 1221 q 628 1176 646 1188 q 580 1164 609 1164 z "},"Κ":{"ha":884,"x_min":145,"x_max":813,"o":"m 145 0 m 234 495 l 234 0 l 145 0 l 145 1010 l 234 1010 l 234 574 l 314 574 l 705 1010 l 813 1010 l 393 543 l 809 0 l 701 0 l 323 495 l 234 495 z "},"Λ":{"ha":884,"x_min":69,"x_max":816,"o":"m 720 0 l 441 893 l 160 0 l 69 0 l 403 1010 l 482 1010 l 816 0 l 720 0 z "},"Μ":{"ha":884,"x_min":104,"x_max":780,"o":"m 104 0 m 398 253 l 187 866 l 187 0 l 104 0 l 104 1010 l 222 1010 l 444 352 l 665 1010 l 780 1010 l 780 0 l 697 0 l 697 865 l 486 253 l 398 253 z "},"Ν":{"ha":884,"x_min":145,"x_max":739,"o":"m 145 0 m 622 0 l 227 871 l 227 0 l 145 0 l 145 1010 l 254 1010 l 657 120 l 657 1010 l 739 1010 l 739 0 l 622 0 z "},"Ξ":{"ha":884,"x_min":120,"x_max":764,"o":"m 120 931 l 120 1010 l 764 1010 l 764 931 l 120 931 m 152 511 l 152 591 l 732 591 l 732 511 l 152 511 m 120 0 l 120 80 l 764 80 l 764 0 l 120 0 z "},"Ο":{"ha":884,"x_min":120,"x_max":764,"o":"m 120 0 m 442 -13 q 201 78 283 -13 q 120 350 120 168 l 120 655 q 202 931 120 840 q 443 1023 284 1023 q 682 931 601 1023 q 764 655 764 840 l 764 350 q 682 78 764 168 q 442 -13 601 -13 m 442 67 q 621 133 567 67 q 676 350 676 199 l 676 655 q 621 876 676 809 q 442 943 567 943 q 263 876 317 943 q 208 655 208 809 l 208 350 q 263 133 208 199 q 442 67 317 67 z "},"Ό":{"ha":884,"x_min":-33,"x_max":770,"o":"m 0 0 m 448 -13 q 208 78 289 -13 q 126 350 126 168 l 126 655 q 208 931 126 840 q 449 1023 290 1023 q 689 931 607 1023 q 770 655 770 840 l 770 350 q 689 78 770 168 q 448 -13 607 -13 m 448 67 q 628 133 573 67 q 682 350 682 199 l 682 655 q 628 876 682 809 q 448 943 573 943 q 269 876 323 943 q 215 655 215 809 l 215 350 q 269 133 215 199 q 448 67 323 67 m -33 884 l 71 1136 l 202 1136 l 39 884 l -33 884 z "},"Π":{"ha":884,"x_min":145,"x_max":739,"o":"m 145 0 l 145 1010 l 739 1010 l 739 0 l 650 0 l 650 931 l 234 931 l 234 0 l 145 0 z "},"Ρ":{"ha":884,"x_min":145,"x_max":777,"o":"m 145 0 m 145 0 l 145 1010 l 481 1010 q 702 943 628 1010 q 777 744 777 875 l 777 620 q 701 421 777 489 q 480 354 626 354 l 234 354 l 234 0 l 145 0 m 234 432 l 480 432 q 640 476 592 432 q 688 622 688 520 l 688 739 q 640 886 688 841 q 480 931 592 931 l 234 931 l 234 432 z "},"Σ":{"ha":884,"x_min":107,"x_max":764,"o":"m 764 0 l 107 0 l 107 80 l 545 520 l 107 931 l 107 1010 l 764 1010 l 764 931 l 223 931 l 612 561 l 612 484 l 217 80 l 764 80 l 764 0 z "},"Τ":{"ha":884,"x_min":82,"x_max":802,"o":"m 82 0 m 398 0 l 398 931 l 82 931 l 82 1010 l 802 1010 l 802 931 l 486 931 l 486 0 l 398 0 z "},"Υ":{"ha":884,"x_min":37,"x_max":846,"o":"m 37 0 m 486 0 l 398 0 l 398 379 l 37 1010 l 136 1010 l 446 461 l 749 1010 l 846 1010 l 486 379 l 486 0 z "},"Ύ":{"ha":884,"x_min":-178,"x_max":846,"o":"m 0 0 m 486 0 l 398 0 l 398 379 l 37 1010 l 136 1010 l 446 461 l 749 1010 l 846 1010 l 486 379 l 486 0 m -178 884 l -74 1136 l 57 1136 l -106 884 l -178 884 z "},"Ϋ":{"ha":884,"x_min":37,"x_max":846,"o":"m 37 0 m 486 0 l 398 0 l 398 379 l 37 1010 l 136 1010 l 446 461 l 749 1010 l 846 1010 l 486 379 l 486 0 m 304 1164 q 256 1176 274 1164 q 237 1221 237 1188 l 237 1230 q 256 1277 237 1264 q 304 1289 274 1289 q 353 1277 335 1289 q 371 1230 371 1264 l 371 1221 q 352 1176 371 1188 q 304 1164 333 1164 m 580 1164 q 531 1176 549 1164 q 513 1221 513 1188 l 513 1230 q 531 1277 513 1264 q 580 1289 549 1289 q 628 1277 610 1289 q 646 1230 646 1264 l 646 1221 q 628 1176 646 1188 q 580 1164 609 1164 z "},"Φ":{"ha":884,"x_min":82,"x_max":802,"o":"m 82 0 m 547 114 l 486 114 l 486 -20 l 398 -20 l 398 114 l 338 114 q 146 199 211 114 q 82 436 82 284 l 82 569 q 146 810 82 723 q 338 896 211 896 l 398 896 l 398 1030 l 486 1030 l 486 896 l 547 896 q 738 810 674 896 q 802 569 802 723 l 802 436 q 738 199 802 284 q 547 114 674 114 m 547 817 l 484 817 l 484 193 l 547 193 q 674 250 635 193 q 713 436 713 307 l 713 569 q 674 759 713 701 q 547 817 635 817 m 338 193 l 400 193 l 400 817 l 338 817 q 210 759 250 817 q 170 569 170 701 l 170 436 q 210 250 170 307 q 338 193 250 193 z "},"Χ":{"ha":884,"x_min":47,"x_max":840,"o":"m 47 0 m 736 0 l 444 447 l 148 0 l 47 0 l 399 518 l 78 1010 l 178 1010 l 456 585 l 739 1010 l 840 1010 l 501 514 l 836 0 l 736 0 z "},"Ψ":{"ha":884,"x_min":116,"x_max":768,"o":"m 486 0 l 398 0 l 398 258 q 184 356 251 270 q 116 577 116 442 l 116 1010 l 202 1010 l 202 577 q 248 412 202 467 q 398 347 294 356 l 398 1010 l 486 1010 l 486 347 q 636 412 591 356 q 682 577 682 467 l 682 1010 l 768 1010 l 768 577 q 700 356 768 442 q 486 258 633 270 l 486 0 z "},"Ω":{"ha":884,"x_min":107,"x_max":777,"o":"m 360 0 l 107 0 l 107 80 l 271 80 l 271 235 q 146 339 184 261 q 107 519 107 417 l 107 655 q 190 929 107 836 q 442 1023 273 1023 q 694 929 611 1023 q 777 655 777 836 l 777 519 q 738 339 777 417 q 612 235 699 261 l 612 80 l 777 80 l 777 0 l 524 0 l 524 283 q 653 364 619 303 q 688 519 688 424 l 688 655 q 631 876 688 809 q 442 943 574 943 q 253 876 309 943 q 196 655 196 809 l 196 519 q 230 364 196 424 q 360 283 265 303 l 360 0 z "},"Ώ":{"ha":884,"x_min":-64,"x_max":777,"o":"m 0 0 m 360 0 l 107 0 l 107 80 l 271 80 l 271 235 q 146 339 184 261 q 107 519 107 417 l 107 655 q 190 929 107 836 q 442 1023 273 1023 q 694 929 611 1023 q 777 655 777 836 l 777 519 q 738 339 777 417 q 612 235 699 261 l 612 80 l 777 80 l 777 0 l 524 0 l 524 283 q 653 364 619 303 q 688 519 688 424 l 688 655 q 631 876 688 809 q 442 943 574 943 q 253 876 309 943 q 196 655 196 809 l 196 519 q 230 364 196 424 q 360 283 265 303 l 360 0 m -64 884 l 39 1136 l 170 1136 l 8 884 l -64 884 z "},"Ω":{"ha":884,"x_min":107,"x_max":777,"o":"m 107 0 m 360 0 l 107 0 l 107 80 l 271 80 l 271 235 q 146 339 184 261 q 107 519 107 417 l 107 655 q 190 929 107 836 q 442 1023 273 1023 q 694 929 611 1023 q 777 655 777 836 l 777 519 q 738 339 777 417 q 612 235 699 261 l 612 80 l 777 80 l 777 0 l 524 0 l 524 283 q 653 364 619 303 q 688 519 688 424 l 688 655 q 631 876 688 809 q 442 943 574 943 q 253 876 309 943 q 196 655 196 809 l 196 519 q 230 364 196 424 q 360 283 265 303 l 360 0 z "},"Ђ":{"ha":884,"x_min":57,"x_max":789,"o":"m 246 0 l 246 931 l 57 931 l 57 1010 l 650 1010 l 650 931 l 335 931 l 335 641 l 503 641 q 717 578 645 641 q 789 390 789 515 l 789 266 q 721 68 789 135 q 518 0 653 0 l 518 77 q 655 121 610 77 q 701 269 701 164 l 701 388 q 652 525 701 485 q 503 564 604 564 l 335 564 l 335 0 l 246 0 z "},"Є":{"ha":884,"x_min":120,"x_max":787,"o":"m 787 306 q 695 68 778 149 q 455 -13 612 -13 q 205 78 290 -13 q 120 350 120 169 l 120 655 q 205 931 120 838 q 456 1023 290 1023 q 695 941 612 1023 q 787 699 778 859 l 698 691 q 631 884 687 826 q 455 943 574 943 q 266 876 323 943 q 208 655 208 809 l 208 591 l 495 591 l 495 511 l 208 511 l 208 350 q 266 133 208 198 q 455 67 323 67 q 631 124 576 67 q 698 314 687 182 l 787 306 z "},"Ѕ":{"ha":884,"x_min":97,"x_max":778,"o":"m 97 0 m 461 -8 q 257 33 346 -8 q 97 160 168 73 l 160 218 q 290 108 218 144 q 463 72 362 72 q 629 124 566 72 q 692 261 692 176 q 637 394 692 348 q 439 477 582 439 q 203 584 270 521 q 135 758 135 646 q 218 946 135 876 q 426 1015 301 1015 q 612 975 530 1015 q 759 852 693 936 l 698 792 q 578 900 644 864 q 427 936 511 936 q 278 891 335 936 q 222 768 222 847 q 277 641 222 684 q 479 558 332 597 q 711 451 644 514 q 778 269 778 389 q 686 68 778 143 q 461 -8 595 -8 z "},"І":{"ha":884,"x_min":145,"x_max":739,"o":"m 145 0 m 145 0 l 145 80 l 398 80 l 398 931 l 145 931 l 145 1010 l 739 1010 l 739 931 l 486 931 l 486 80 l 739 80 l 739 0 l 145 0 z "},"Ї":{"ha":884,"x_min":145,"x_max":739,"o":"m 145 0 m 145 0 l 145 80 l 398 80 l 398 931 l 145 931 l 145 1010 l 739 1010 l 739 931 l 486 931 l 486 80 l 739 80 l 739 0 l 145 0 m 304 1164 q 256 1176 274 1164 q 237 1221 237 1188 l 237 1230 q 256 1277 237 1264 q 304 1289 274 1289 q 353 1277 335 1289 q 371 1230 371 1264 l 371 1221 q 352 1176 371 1188 q 304 1164 333 1164 m 580 1164 q 531 1176 549 1164 q 513 1221 513 1188 l 513 1230 q 531 1277 513 1264 q 580 1289 549 1289 q 628 1277 610 1289 q 646 1230 646 1264 l 646 1221 q 628 1176 646 1188 q 580 1164 609 1164 z "},"Ј":{"ha":884,"x_min":95,"x_max":739,"o":"m 95 0 m 415 -13 q 180 65 258 -13 q 95 308 102 143 l 183 318 q 243 121 193 176 q 414 67 293 67 q 594 129 538 67 q 650 327 650 192 l 650 931 l 379 931 l 379 1010 l 739 1010 l 739 328 q 657 73 739 159 q 415 -13 576 -13 z "},"Љ":{"ha":884,"x_min":-11,"x_max":792,"o":"m 205 207 q 163 42 203 92 q 64 -8 122 -8 q 27 -5 45 -9 q -11 5 9 -1 l 9 90 q 32 83 20 86 q 54 80 43 80 q 101 105 81 78 q 122 217 121 131 l 138 1010 l 484 1010 l 484 657 l 563 657 q 734 589 677 657 q 792 390 792 521 l 792 266 q 735 68 792 135 q 564 0 678 0 l 400 0 l 400 931 l 217 931 l 205 207 m 484 80 l 563 80 q 669 121 629 80 q 708 271 708 162 l 708 388 q 669 537 708 496 q 563 578 629 578 l 484 578 l 484 80 z "},"Њ":{"ha":884,"x_min":92,"x_max":792,"o":"m 484 80 l 568 80 q 670 121 631 80 q 708 271 708 163 l 708 388 q 670 537 708 496 q 568 578 631 578 l 484 578 l 484 80 m 176 527 l 176 0 l 92 0 l 92 1010 l 176 1010 l 176 606 l 400 606 l 400 1010 l 484 1010 l 484 657 l 568 657 q 735 589 679 657 q 792 390 792 521 l 792 266 q 736 68 792 135 q 569 0 681 0 l 400 0 l 400 527 l 176 527 z "},"Ћ":{"ha":884,"x_min":44,"x_max":789,"o":"m 322 0 l 234 0 l 234 931 l 44 931 l 44 1010 l 638 1010 l 638 931 l 322 931 l 322 619 l 518 619 q 721 551 653 619 q 789 352 789 484 l 789 0 l 701 0 l 701 350 q 659 497 701 455 q 518 540 617 540 l 322 540 l 322 0 z "},"Џ":{"ha":884,"x_min":145,"x_max":739,"o":"m 398 -189 l 398 0 l 145 0 l 145 1010 l 234 1010 l 234 80 l 650 80 l 650 1010 l 739 1010 l 739 0 l 486 0 l 486 -189 l 398 -189 z "},"А":{"ha":884,"x_min":69,"x_max":816,"o":"m 69 0 m 600 385 l 441 893 l 280 385 l 600 385 m 720 0 l 624 306 l 256 306 l 160 0 l 69 0 l 403 1010 l 482 1010 l 816 0 l 720 0 z "},"Б":{"ha":884,"x_min":145,"x_max":756,"o":"m 145 0 l 145 1010 l 707 1010 l 707 931 l 234 931 l 234 596 l 477 596 q 683 531 610 596 q 756 347 756 466 l 756 266 q 683 70 756 140 q 479 0 610 0 l 145 0 m 234 80 l 460 80 q 618 126 568 80 q 668 273 668 173 l 668 328 q 618 472 668 427 q 460 518 568 518 l 234 518 l 234 80 z "},"В":{"ha":884,"x_min":145,"x_max":769,"o":"m 145 0 m 145 0 l 145 1010 l 447 1010 q 657 950 586 1010 q 729 773 729 890 l 729 716 q 691 603 729 649 q 591 545 654 557 l 591 524 q 720 459 672 516 q 769 314 769 402 l 769 258 q 693 65 769 130 q 466 0 616 0 l 145 0 m 234 567 l 452 567 q 598 604 554 567 q 643 729 643 641 l 643 764 q 598 891 643 852 q 452 931 554 931 l 234 931 l 234 567 m 234 80 l 477 80 q 633 122 586 80 q 681 264 681 165 l 681 304 q 633 445 681 403 q 477 487 586 487 l 234 487 l 234 80 z "},"Г":{"ha":884,"x_min":145,"x_max":764,"o":"m 145 0 m 145 0 l 145 1010 l 764 1010 l 764 931 l 234 931 l 234 0 l 145 0 z "},"Ѓ":{"ha":884,"x_min":145,"x_max":764,"o":"m 145 0 m 145 0 l 145 1010 l 764 1010 l 764 931 l 234 931 l 234 0 l 145 0 m 390 1136 l 569 1389 l 706 1389 l 467 1136 l 390 1136 z "},"Д":{"ha":884,"x_min":32,"x_max":841,"o":"m 205 98 l 205 80 l 626 80 l 626 931 l 283 931 l 279 383 q 263 203 278 269 q 205 98 247 138 m 120 0 l 120 -189 l 32 -189 l 32 80 l 105 80 q 173 188 152 114 q 196 390 194 263 l 199 1010 l 715 1010 l 715 80 l 841 80 l 841 -189 l 753 -189 l 753 0 l 120 0 z "},"Е":{"ha":884,"x_min":145,"x_max":764,"o":"m 145 0 m 145 0 l 145 1010 l 764 1010 l 764 931 l 234 931 l 234 591 l 701 591 l 701 511 l 234 511 l 234 80 l 764 80 l 764 0 l 145 0 z "},"Ѐ":{"ha":884,"x_min":145,"x_max":764,"o":"m 145 0 m 145 0 l 145 1010 l 764 1010 l 764 931 l 234 931 l 234 591 l 701 591 l 701 511 l 234 511 l 234 80 l 764 80 l 764 0 l 145 0 m 500 1136 l 261 1389 l 398 1389 l 577 1136 l 500 1136 z "},"Ё":{"ha":884,"x_min":145,"x_max":764,"o":"m 145 0 m 145 0 l 145 1010 l 764 1010 l 764 931 l 234 931 l 234 591 l 701 591 l 701 511 l 234 511 l 234 80 l 764 80 l 764 0 l 145 0 m 342 1164 q 294 1176 312 1164 q 275 1221 275 1188 l 275 1230 q 294 1277 275 1264 q 342 1289 312 1289 q 391 1277 372 1289 q 409 1230 409 1264 l 409 1221 q 390 1176 409 1188 q 342 1164 371 1164 m 617 1164 q 569 1176 587 1164 q 551 1221 551 1188 l 551 1230 q 569 1277 551 1264 q 617 1289 587 1289 q 666 1277 648 1289 q 684 1230 684 1264 l 684 1221 q 665 1176 684 1188 q 617 1164 646 1164 z "},"Ж":{"ha":884,"x_min":23,"x_max":862,"o":"m 323 503 l 112 0 l 24 0 l 255 540 l 23 1010 l 107 1010 l 321 574 l 403 574 l 403 1010 l 484 1010 l 484 574 l 562 574 l 778 1010 l 862 1010 l 628 543 l 861 0 l 773 0 l 562 503 l 484 503 l 484 0 l 403 0 l 403 503 l 323 503 z "},"З":{"ha":884,"x_min":107,"x_max":773,"o":"m 437 -13 q 196 52 275 -13 q 107 256 116 117 l 196 266 q 262 110 207 157 q 437 64 317 64 q 628 112 571 64 q 684 274 684 160 l 684 308 q 636 450 684 408 q 471 492 587 492 l 335 492 l 335 572 l 471 572 q 609 607 568 572 q 650 727 650 643 l 650 768 q 600 905 650 864 q 429 946 549 946 q 278 903 326 946 q 221 763 231 861 l 133 773 q 213 961 141 900 q 429 1023 284 1023 q 660 961 581 1023 q 739 768 739 900 l 739 727 q 696 598 739 644 q 581 543 654 552 l 581 521 q 722 455 672 514 q 773 308 773 395 l 773 274 q 693 59 773 131 q 437 -13 614 -13 z "},"И":{"ha":884,"x_min":145,"x_max":739,"o":"m 655 0 l 655 869 l 261 0 l 145 0 l 145 1010 l 229 1010 l 229 122 l 634 1010 l 739 1010 l 739 0 l 655 0 z "},"Ѝ":{"ha":884,"x_min":145,"x_max":739,"o":"m 145 0 m 655 0 l 655 869 l 261 0 l 145 0 l 145 1010 l 229 1010 l 229 122 l 634 1010 l 739 1010 l 739 0 l 655 0 m 449 1136 l 211 1389 l 347 1389 l 527 1136 l 449 1136 z "},"Й":{"ha":884,"x_min":145,"x_max":739,"o":"m 145 0 m 655 0 l 655 869 l 261 0 l 145 0 l 145 1010 l 229 1010 l 229 122 l 634 1010 l 739 1010 l 739 0 l 655 0 m 455 1128 q 271 1185 346 1128 q 194 1384 196 1242 l 283 1393 q 324 1245 285 1289 q 455 1201 364 1201 q 585 1245 545 1201 q 626 1393 624 1289 l 715 1384 q 638 1185 713 1242 q 455 1128 563 1128 z "},"К":{"ha":884,"x_min":145,"x_max":813,"o":"m 145 0 m 234 495 l 234 0 l 145 0 l 145 1010 l 234 1010 l 234 574 l 314 574 l 705 1010 l 813 1010 l 393 543 l 809 0 l 701 0 l 323 495 l 234 495 z "},"Ќ":{"ha":884,"x_min":145,"x_max":813,"o":"m 145 0 m 234 495 l 234 0 l 145 0 l 145 1010 l 234 1010 l 234 574 l 314 574 l 705 1010 l 813 1010 l 393 543 l 809 0 l 701 0 l 323 495 l 234 495 m 419 1136 l 598 1389 l 735 1389 l 496 1136 l 419 1136 z "},"Л":{"ha":884,"x_min":8,"x_max":739,"o":"m 650 0 l 650 931 l 308 931 l 304 297 q 249 61 303 135 q 100 -13 194 -13 q 51 -9 73 -13 q 8 1 28 -6 l 24 78 q 57 69 42 72 q 88 67 73 67 q 188 126 157 67 q 221 313 220 184 l 225 1010 l 739 1010 l 739 0 l 650 0 z "},"М":{"ha":884,"x_min":104,"x_max":780,"o":"m 104 0 m 398 253 l 187 866 l 187 0 l 104 0 l 104 1010 l 222 1010 l 444 352 l 665 1010 l 780 1010 l 780 0 l 697 0 l 697 865 l 486 253 l 398 253 z "},"Н":{"ha":884,"x_min":145,"x_max":739,"o":"m 145 0 m 145 0 l 145 1010 l 234 1010 l 234 591 l 650 591 l 650 1010 l 739 1010 l 739 0 l 650 0 l 650 511 l 234 511 l 234 0 l 145 0 z "},"О":{"ha":884,"x_min":120,"x_max":764,"o":"m 120 0 m 442 -13 q 201 78 283 -13 q 120 350 120 168 l 120 655 q 202 931 120 840 q 443 1023 284 1023 q 682 931 601 1023 q 764 655 764 840 l 764 350 q 682 78 764 168 q 442 -13 601 -13 m 442 67 q 621 133 567 67 q 676 350 676 199 l 676 655 q 621 876 676 809 q 442 943 567 943 q 263 876 317 943 q 208 655 208 809 l 208 350 q 263 133 208 199 q 442 67 317 67 z "},"П":{"ha":884,"x_min":145,"x_max":739,"o":"m 145 0 m 145 0 l 145 1010 l 739 1010 l 739 0 l 650 0 l 650 931 l 234 931 l 234 0 l 145 0 z "},"Р":{"ha":884,"x_min":145,"x_max":777,"o":"m 145 0 m 145 0 l 145 1010 l 481 1010 q 702 943 628 1010 q 777 744 777 875 l 777 620 q 701 421 777 489 q 480 354 626 354 l 234 354 l 234 0 l 145 0 m 234 432 l 480 432 q 640 476 592 432 q 688 622 688 520 l 688 739 q 640 886 688 841 q 480 931 592 931 l 234 931 l 234 432 z "},"С":{"ha":884,"x_min":120,"x_max":787,"o":"m 120 0 m 455 -13 q 205 78 289 -13 q 120 342 120 168 l 120 663 q 205 931 120 840 q 456 1023 290 1023 q 696 945 614 1023 q 787 699 778 867 l 698 691 q 633 888 686 832 q 455 943 580 943 q 265 877 322 943 q 208 655 208 811 l 208 350 q 265 132 208 197 q 455 67 322 67 q 638 123 582 67 q 698 314 693 179 l 787 306 q 700 66 783 145 q 455 -13 617 -13 z "},"Т":{"ha":884,"x_min":82,"x_max":802,"o":"m 82 0 m 398 0 l 398 931 l 82 931 l 82 1010 l 802 1010 l 802 931 l 486 931 l 486 0 l 398 0 z "},"У":{"ha":884,"x_min":76,"x_max":807,"o":"m 254 -6 q 209 -3 232 -6 q 162 5 186 0 l 178 85 q 219 76 201 78 q 256 74 237 74 q 354 107 317 74 q 419 221 391 140 l 426 237 l 393 237 l 76 1010 l 168 1010 l 449 304 l 717 1010 l 807 1010 l 486 193 q 386 36 442 78 q 254 -6 331 -6 z "},"Ў":{"ha":884,"x_min":76,"x_max":807,"o":"m 76 0 m 254 -6 q 209 -3 232 -6 q 162 5 186 0 l 178 85 q 219 76 201 78 q 256 74 237 74 q 354 107 317 74 q 419 221 391 140 l 426 237 l 393 237 l 76 1010 l 168 1010 l 449 304 l 717 1010 l 807 1010 l 486 193 q 386 36 442 78 q 254 -6 331 -6 m 442 1128 q 258 1185 333 1128 q 182 1384 183 1242 l 270 1393 q 312 1245 273 1289 q 442 1201 351 1201 q 572 1245 533 1201 q 614 1393 611 1289 l 702 1384 q 626 1185 701 1242 q 442 1128 551 1128 z "},"Ф":{"ha":884,"x_min":82,"x_max":802,"o":"m 547 114 l 486 114 l 486 -20 l 398 -20 l 398 114 l 338 114 q 146 199 211 114 q 82 436 82 284 l 82 569 q 146 810 82 723 q 338 896 211 896 l 398 896 l 398 1030 l 486 1030 l 486 896 l 547 896 q 738 810 674 896 q 802 569 802 723 l 802 436 q 738 199 802 284 q 547 114 674 114 m 547 817 l 484 817 l 484 193 l 547 193 q 674 250 635 193 q 713 436 713 307 l 713 569 q 674 759 713 701 q 547 817 635 817 m 338 193 l 400 193 l 400 817 l 338 817 q 210 759 250 817 q 170 569 170 701 l 170 436 q 210 250 170 307 q 338 193 250 193 z "},"Х":{"ha":884,"x_min":47,"x_max":840,"o":"m 47 0 m 736 0 l 444 447 l 148 0 l 47 0 l 399 518 l 78 1010 l 178 1010 l 456 585 l 739 1010 l 840 1010 l 501 514 l 836 0 l 736 0 z "},"Ц":{"ha":884,"x_min":145,"x_max":802,"o":"m 713 -189 l 713 0 l 145 0 l 145 1010 l 234 1010 l 234 80 l 587 80 l 587 1010 l 676 1010 l 676 80 l 802 80 l 802 -189 l 713 -189 z "},"Ч":{"ha":884,"x_min":145,"x_max":739,"o":"m 739 1010 l 739 0 l 650 0 l 650 354 l 442 354 q 215 415 284 354 q 145 620 145 477 l 145 1010 l 234 1010 l 234 622 q 282 475 234 519 q 442 431 330 431 l 650 431 l 650 1010 l 739 1010 z "},"Ш":{"ha":884,"x_min":87,"x_max":797,"o":"m 87 0 l 87 1010 l 172 1010 l 172 77 l 400 77 l 400 1010 l 484 1010 l 484 77 l 712 77 l 712 1010 l 797 1010 l 797 0 l 87 0 z "},"Щ":{"ha":884,"x_min":87,"x_max":851,"o":"m 851 -189 l 766 -189 l 766 0 l 87 0 l 87 1010 l 172 1010 l 172 77 l 400 77 l 400 1010 l 484 1010 l 484 77 l 713 77 l 713 1010 l 798 1010 l 798 77 l 851 77 l 851 -189 z "},"Ъ":{"ha":884,"x_min":24,"x_max":802,"o":"m 539 0 l 271 0 l 271 931 l 24 931 l 24 1010 l 360 1010 l 360 657 l 538 657 q 735 591 669 657 q 802 390 802 525 l 802 266 q 736 66 802 131 q 539 0 670 0 m 360 80 l 538 80 q 673 124 633 80 q 713 271 713 168 l 713 388 q 673 535 713 491 q 538 580 633 580 l 360 580 l 360 80 z "},"Ы":{"ha":884,"x_min":116,"x_max":768,"o":"m 116 0 l 116 1010 l 201 1010 l 201 657 l 302 657 q 477 590 423 657 q 532 390 532 523 l 532 266 q 477 67 532 134 q 303 0 423 0 l 116 0 m 683 0 l 683 1010 l 768 1010 l 768 0 l 683 0 m 201 77 l 302 77 q 411 121 375 77 q 447 271 447 165 l 447 388 q 411 538 447 494 q 302 582 375 582 l 201 582 l 201 77 z "},"Ь":{"ha":884,"x_min":145,"x_max":777,"o":"m 145 0 l 145 1010 l 234 1010 l 234 657 l 480 657 q 702 590 628 657 q 777 390 777 523 l 777 266 q 702 67 777 134 q 481 0 628 0 l 145 0 m 234 80 l 480 80 q 636 123 585 80 q 688 271 688 167 l 688 388 q 637 536 688 492 q 480 580 586 580 l 234 580 l 234 80 z "},"Э":{"ha":884,"x_min":120,"x_max":789,"o":"m 455 -13 q 213 68 297 -13 q 120 307 129 148 l 208 317 q 277 124 221 182 q 455 67 333 67 q 643 133 586 67 q 701 350 701 198 l 701 511 l 360 511 l 360 591 l 701 591 l 701 655 q 643 876 701 809 q 455 943 586 943 q 277 884 333 943 q 208 688 221 826 l 120 698 q 213 941 129 860 q 453 1023 297 1023 q 706 931 624 1023 q 789 655 789 838 l 789 350 q 706 78 789 169 q 455 -13 624 -13 z "},"Ю":{"ha":884,"x_min":91,"x_max":793,"o":"m 558 -13 q 386 69 442 -13 q 331 304 331 150 l 331 514 l 176 514 l 176 0 l 91 0 l 91 1010 l 176 1010 l 176 588 l 331 588 l 331 701 q 387 940 331 857 q 559 1023 443 1023 q 735 940 678 1023 q 793 701 793 857 l 793 304 q 736 69 793 150 q 558 -13 679 -13 m 558 64 q 673 121 638 64 q 708 304 708 177 l 708 701 q 673 888 708 831 q 558 944 638 944 q 449 888 482 944 q 415 701 415 831 l 415 304 q 449 121 415 177 q 558 64 482 64 z "},"Я":{"ha":884,"x_min":66,"x_max":737,"o":"m 378 473 l 649 473 l 649 931 l 378 931 q 218 886 266 931 q 169 741 169 842 l 169 665 q 218 518 169 562 q 378 473 266 473 m 649 394 l 423 394 l 169 0 l 66 0 l 326 396 q 141 474 202 407 q 81 664 81 542 l 81 744 q 153 943 81 876 q 376 1010 226 1010 l 737 1010 l 737 0 l 649 0 l 649 394 z "},"Ґ":{"ha":884,"x_min":145,"x_max":764,"o":"m 145 0 l 145 1010 l 676 1010 l 676 1199 l 764 1199 l 764 931 l 234 931 l 234 0 l 145 0 z "},"a":{"ha":884,"x_min":107,"x_max":827,"o":"m 359 62 q 485 89 428 62 q 587 178 542 116 l 587 337 l 333 337 q 231 310 270 337 q 192 211 192 283 q 232 101 192 140 q 359 62 271 62 m 348 -13 q 176 42 244 -13 q 107 203 107 97 q 166 352 107 298 q 319 407 225 407 l 587 407 l 587 534 q 542 646 587 601 q 407 691 497 691 q 273 662 316 691 q 206 551 231 634 l 128 572 q 221 722 154 674 q 405 770 288 770 q 601 711 527 770 q 676 540 676 653 l 676 202 q 710 90 676 115 q 827 78 744 64 l 827 -4 q 688 11 744 -16 q 625 122 633 38 l 607 122 q 502 25 569 63 q 348 -13 434 -13 z "},"à":{"ha":884,"x_min":107,"x_max":827,"o":"m 107 0 m 359 62 q 485 89 428 62 q 587 178 542 116 l 587 337 l 333 337 q 231 310 270 337 q 192 211 192 283 q 232 101 192 140 q 359 62 271 62 m 348 -13 q 176 42 244 -13 q 107 203 107 97 q 166 352 107 298 q 319 407 225 407 l 587 407 l 587 534 q 542 646 587 601 q 407 691 497 691 q 273 662 316 691 q 206 551 231 634 l 128 572 q 221 722 154 674 q 405 770 288 770 q 601 711 527 770 q 676 540 676 653 l 676 202 q 710 90 676 115 q 827 78 744 64 l 827 -4 q 688 11 744 -16 q 625 122 633 38 l 607 122 q 502 25 569 63 q 348 -13 434 -13 m 437 884 l 198 1136 l 335 1136 l 514 884 l 437 884 z "},"á":{"ha":884,"x_min":107,"x_max":827,"o":"m 107 0 m 359 62 q 485 89 428 62 q 587 178 542 116 l 587 337 l 333 337 q 231 310 270 337 q 192 211 192 283 q 232 101 192 140 q 359 62 271 62 m 348 -13 q 176 42 244 -13 q 107 203 107 97 q 166 352 107 298 q 319 407 225 407 l 587 407 l 587 534 q 542 646 587 601 q 407 691 497 691 q 273 662 316 691 q 206 551 231 634 l 128 572 q 221 722 154 674 q 405 770 288 770 q 601 711 527 770 q 676 540 676 653 l 676 202 q 710 90 676 115 q 827 78 744 64 l 827 -4 q 688 11 744 -16 q 625 122 633 38 l 607 122 q 502 25 569 63 q 348 -13 434 -13 m 308 884 l 487 1136 l 624 1136 l 385 884 l 308 884 z "},"â":{"ha":884,"x_min":107,"x_max":827,"o":"m 107 0 m 359 62 q 485 89 428 62 q 587 178 542 116 l 587 337 l 333 337 q 231 310 270 337 q 192 211 192 283 q 232 101 192 140 q 359 62 271 62 m 348 -13 q 176 42 244 -13 q 107 203 107 97 q 166 352 107 298 q 319 407 225 407 l 587 407 l 587 534 q 542 646 587 601 q 407 691 497 691 q 273 662 316 691 q 206 551 231 634 l 128 572 q 221 722 154 674 q 405 770 288 770 q 601 711 527 770 q 676 540 676 653 l 676 202 q 710 90 676 115 q 827 78 744 64 l 827 -4 q 688 11 744 -16 q 625 122 633 38 l 607 122 q 502 25 569 63 q 348 -13 434 -13 m 213 903 l 179 956 l 398 1158 l 458 1158 l 679 956 l 644 903 l 428 1073 l 213 903 z "},"ã":{"ha":884,"x_min":107,"x_max":827,"o":"m 107 0 m 359 62 q 485 89 428 62 q 587 178 542 116 l 587 337 l 333 337 q 231 310 270 337 q 192 211 192 283 q 232 101 192 140 q 359 62 271 62 m 348 -13 q 176 42 244 -13 q 107 203 107 97 q 166 352 107 298 q 319 407 225 407 l 587 407 l 587 534 q 542 646 587 601 q 407 691 497 691 q 273 662 316 691 q 206 551 231 634 l 128 572 q 221 722 154 674 q 405 770 288 770 q 601 711 527 770 q 676 540 676 653 l 676 202 q 710 90 676 115 q 827 78 744 64 l 827 -4 q 688 11 744 -16 q 625 122 633 38 l 607 122 q 502 25 569 63 q 348 -13 434 -13 m 523 896 q 451 920 480 896 q 390 994 422 943 q 347 1056 366 1035 q 307 1076 328 1076 q 256 1041 274 1076 q 241 923 239 1006 l 241 909 l 170 909 l 170 928 q 206 1090 170 1032 q 311 1149 242 1149 q 385 1126 356 1149 q 442 1056 414 1102 q 488 991 470 1013 q 527 970 506 970 q 575 1004 558 970 q 592 1122 592 1039 l 592 1136 l 663 1136 l 663 1117 q 627 955 663 1014 q 523 896 591 896 z "},"ä":{"ha":884,"x_min":107,"x_max":827,"o":"m 107 0 m 359 62 q 485 89 428 62 q 587 178 542 116 l 587 337 l 333 337 q 231 310 270 337 q 192 211 192 283 q 232 101 192 140 q 359 62 271 62 m 348 -13 q 176 42 244 -13 q 107 203 107 97 q 166 352 107 298 q 319 407 225 407 l 587 407 l 587 534 q 542 646 587 601 q 407 691 497 691 q 273 662 316 691 q 206 551 231 634 l 128 572 q 221 722 154 674 q 405 770 288 770 q 601 711 527 770 q 676 540 676 653 l 676 202 q 710 90 676 115 q 827 78 744 64 l 827 -4 q 688 11 744 -16 q 625 122 633 38 l 607 122 q 502 25 569 63 q 348 -13 434 -13 m 279 912 q 230 924 249 912 q 212 968 212 936 l 212 977 q 230 1024 212 1011 q 279 1037 249 1037 q 328 1024 309 1037 q 346 977 346 1011 l 346 968 q 327 924 346 936 q 279 912 308 912 m 554 912 q 506 924 524 912 q 487 968 487 936 l 487 977 q 506 1024 487 1011 q 554 1037 524 1037 q 603 1024 585 1037 q 621 977 621 1011 l 621 968 q 602 924 621 936 q 554 912 583 912 z "},"å":{"ha":884,"x_min":107,"x_max":827,"o":"m 107 0 m 359 62 q 485 89 428 62 q 587 178 542 116 l 587 337 l 333 337 q 231 310 270 337 q 192 211 192 283 q 232 101 192 140 q 359 62 271 62 m 348 -13 q 176 42 244 -13 q 107 203 107 97 q 166 352 107 298 q 319 407 225 407 l 587 407 l 587 534 q 542 646 587 601 q 407 691 497 691 q 273 662 316 691 q 206 551 231 634 l 128 572 q 221 722 154 674 q 405 770 288 770 q 601 711 527 770 q 676 540 676 653 l 676 202 q 710 90 676 115 q 827 78 744 64 l 827 -4 q 688 11 744 -16 q 625 122 633 38 l 607 122 q 502 25 569 63 q 348 -13 434 -13 m 417 865 q 280 911 330 865 q 230 1048 230 957 l 230 1088 q 280 1228 230 1181 q 417 1275 330 1275 q 554 1228 504 1275 q 604 1088 604 1181 l 604 1048 q 554 911 604 957 q 417 865 504 865 m 417 932 q 501 959 475 932 q 528 1048 528 986 l 528 1088 q 501 1179 528 1150 q 417 1208 475 1208 q 332 1179 359 1208 q 306 1088 306 1150 l 306 1048 q 332 959 306 986 q 417 932 359 932 z "},"ā":{"ha":884,"x_min":107,"x_max":827,"o":"m 107 0 m 359 62 q 485 89 428 62 q 587 178 542 116 l 587 337 l 333 337 q 231 310 270 337 q 192 211 192 283 q 232 101 192 140 q 359 62 271 62 m 348 -13 q 176 42 244 -13 q 107 203 107 97 q 166 352 107 298 q 319 407 225 407 l 587 407 l 587 534 q 542 646 587 601 q 407 691 497 691 q 273 662 316 691 q 206 551 231 634 l 128 572 q 221 722 154 674 q 405 770 288 770 q 601 711 527 770 q 676 540 676 653 l 676 202 q 710 90 676 115 q 827 78 744 64 l 827 -4 q 688 11 744 -16 q 625 122 633 38 l 607 122 q 502 25 569 63 q 348 -13 434 -13 m 183 972 l 183 1052 l 650 1052 l 650 972 l 183 972 z "},"ă":{"ha":884,"x_min":107,"x_max":827,"o":"m 107 0 m 359 62 q 485 89 428 62 q 587 178 542 116 l 587 337 l 333 337 q 231 310 270 337 q 192 211 192 283 q 232 101 192 140 q 359 62 271 62 m 348 -13 q 176 42 244 -13 q 107 203 107 97 q 166 352 107 298 q 319 407 225 407 l 587 407 l 587 534 q 542 646 587 601 q 407 691 497 691 q 273 662 316 691 q 206 551 231 634 l 128 572 q 221 722 154 674 q 405 770 288 770 q 601 711 527 770 q 676 540 676 653 l 676 202 q 710 90 676 115 q 827 78 744 64 l 827 -4 q 688 11 744 -16 q 625 122 633 38 l 607 122 q 502 25 569 63 q 348 -13 434 -13 m 417 875 q 220 940 293 875 q 146 1140 148 1005 l 235 1140 q 281 994 237 1038 q 417 949 324 949 q 552 994 509 949 q 598 1140 596 1038 l 687 1140 q 613 940 686 1005 q 417 875 540 875 z "},"ą":{"ha":884,"x_min":107,"x_max":869,"o":"m 107 0 m 359 62 q 485 89 428 62 q 587 178 542 116 l 587 337 l 333 337 q 231 310 270 337 q 192 211 192 283 q 232 101 192 140 q 359 62 271 62 m 348 -13 q 176 42 244 -13 q 107 203 107 97 q 166 352 107 298 q 319 407 225 407 l 587 407 l 587 534 q 542 646 587 601 q 407 691 497 691 q 273 662 316 691 q 206 551 231 634 l 128 572 q 221 722 154 674 q 405 770 288 770 q 601 711 527 770 q 676 540 676 653 l 676 202 q 710 90 676 115 q 827 78 744 64 l 827 -4 q 688 11 744 -16 q 625 122 633 38 l 607 122 q 502 25 569 63 q 348 -13 434 -13 m 758 -271 q 632 -233 682 -271 q 582 -129 582 -194 q 626 -23 582 -71 q 734 49 669 24 l 756 29 q 687 -34 708 0 q 665 -105 665 -68 q 691 -170 665 -149 q 768 -192 716 -192 q 819 -189 792 -192 q 869 -181 846 -186 l 869 -260 q 813 -268 845 -265 q 758 -271 782 -271 z "},"ǻ":{"ha":884,"x_min":107,"x_max":827,"o":"m 107 0 m 359 62 q 485 89 428 62 q 587 178 542 116 l 587 337 l 333 337 q 231 310 270 337 q 192 211 192 283 q 232 101 192 140 q 359 62 271 62 m 348 -13 q 176 42 244 -13 q 107 203 107 97 q 166 352 107 298 q 319 407 225 407 l 587 407 l 587 534 q 542 646 587 601 q 407 691 497 691 q 273 662 316 691 q 206 551 231 634 l 128 572 q 221 722 154 674 q 405 770 288 770 q 601 711 527 770 q 676 540 676 653 l 676 202 q 710 90 676 115 q 827 78 744 64 l 827 -4 q 688 11 744 -16 q 625 122 633 38 l 607 122 q 502 25 569 63 q 348 -13 434 -13 m 417 865 q 280 911 330 865 q 230 1048 230 957 l 230 1088 q 280 1228 230 1181 q 417 1275 330 1275 q 554 1228 504 1275 q 604 1088 604 1181 l 604 1048 q 554 911 604 957 q 417 865 504 865 m 417 932 q 501 959 475 932 q 528 1048 528 986 l 528 1088 q 501 1179 528 1150 q 417 1208 475 1208 q 332 1179 359 1208 q 306 1088 306 1150 l 306 1048 q 332 959 306 986 q 417 932 359 932 m 384 1263 l 563 1515 l 699 1515 l 461 1263 l 384 1263 z "},"b":{"ha":884,"x_min":145,"x_max":739,"o":"m 432 -13 q 283 8 360 -13 q 145 68 207 29 l 145 1010 l 234 1010 l 234 639 l 256 639 q 354 734 288 697 q 500 770 419 770 q 674 695 610 770 q 739 482 739 620 l 739 277 q 657 65 739 143 q 432 -13 574 -13 m 431 64 q 595 118 540 64 q 650 279 650 172 l 650 481 q 609 637 650 586 q 480 688 567 688 q 351 655 412 688 q 234 552 290 622 l 234 115 q 324 77 277 90 q 431 64 372 64 z "},"":{"ha":884,"x_min":145,"x_max":739,"o":"m 432 -13 q 283 8 360 -13 q 145 68 207 29 l 145 1010 l 234 1010 l 234 639 l 256 639 q 354 734 288 697 q 500 770 419 770 q 674 695 610 770 q 739 482 739 620 l 739 277 q 657 65 739 143 q 432 -13 574 -13 m 431 64 q 595 118 540 64 q 650 279 650 172 l 650 481 q 609 637 650 586 q 480 688 567 688 q 351 655 412 688 q 234 552 290 622 l 234 115 q 324 77 277 90 q 431 64 372 64 z "},"c":{"ha":884,"x_min":145,"x_max":753,"o":"m 460 -13 q 225 61 306 -13 q 145 274 145 134 l 145 479 q 225 696 145 621 q 458 770 304 770 q 672 710 600 770 q 753 529 744 650 l 667 523 q 610 652 658 614 q 457 691 563 691 q 289 639 343 691 q 234 479 234 587 l 234 274 q 289 117 234 168 q 460 66 345 66 q 614 99 566 66 q 667 210 662 133 l 753 203 q 673 40 745 93 q 460 -13 601 -13 z "},"ç":{"ha":884,"x_min":145,"x_max":753,"o":"m 145 0 m 460 -13 q 225 61 306 -13 q 145 274 145 134 l 145 479 q 225 696 145 621 q 458 770 304 770 q 672 710 600 770 q 753 529 744 650 l 667 523 q 610 652 658 614 q 457 691 563 691 q 289 639 343 691 q 234 479 234 587 l 234 274 q 289 117 234 168 q 460 66 345 66 q 614 99 566 66 q 667 210 662 133 l 753 203 q 673 40 745 93 q 460 -13 601 -13 m 399 0 l 417 38 q 529 -14 485 25 q 573 -122 573 -53 q 523 -234 573 -196 q 396 -273 473 -273 q 272 -241 321 -273 q 218 -135 223 -210 l 299 -128 q 324 -183 304 -167 q 390 -199 345 -199 q 467 -181 443 -199 q 490 -112 490 -162 q 469 -39 490 -64 q 399 0 448 -14 z "},"ć":{"ha":884,"x_min":145,"x_max":753,"o":"m 145 0 m 460 -13 q 225 61 306 -13 q 145 274 145 134 l 145 479 q 225 696 145 621 q 458 770 304 770 q 672 710 600 770 q 753 529 744 650 l 667 523 q 610 652 658 614 q 457 691 563 691 q 289 639 343 691 q 234 479 234 587 l 234 274 q 289 117 234 168 q 460 66 345 66 q 614 99 566 66 q 667 210 662 133 l 753 203 q 673 40 745 93 q 460 -13 601 -13 m 341 884 l 520 1136 l 657 1136 l 418 884 l 341 884 z "},"ĉ":{"ha":884,"x_min":145,"x_max":753,"o":"m 145 0 m 460 -13 q 225 61 306 -13 q 145 274 145 134 l 145 479 q 225 696 145 621 q 458 770 304 770 q 672 710 600 770 q 753 529 744 650 l 667 523 q 610 652 658 614 q 457 691 563 691 q 289 639 343 691 q 234 479 234 587 l 234 274 q 289 117 234 168 q 460 66 345 66 q 614 99 566 66 q 667 210 662 133 l 753 203 q 673 40 745 93 q 460 -13 601 -13 m 246 903 l 212 956 l 431 1158 l 491 1158 l 712 956 l 677 903 l 461 1073 l 246 903 z "},"ċ":{"ha":884,"x_min":145,"x_max":753,"o":"m 145 0 m 460 -13 q 225 61 306 -13 q 145 274 145 134 l 145 479 q 225 696 145 621 q 458 770 304 770 q 672 710 600 770 q 753 529 744 650 l 667 523 q 610 652 658 614 q 457 691 563 691 q 289 639 343 691 q 234 479 234 587 l 234 274 q 289 117 234 168 q 460 66 345 66 q 614 99 566 66 q 667 210 662 133 l 753 203 q 673 40 745 93 q 460 -13 601 -13 m 449 912 q 391 924 414 912 q 369 968 369 936 l 369 977 q 391 1024 369 1011 q 449 1037 414 1037 q 508 1024 485 1037 q 530 977 530 1011 l 530 968 q 508 924 530 936 q 449 912 485 912 z "},"č":{"ha":884,"x_min":145,"x_max":753,"o":"m 145 0 m 460 -13 q 225 61 306 -13 q 145 274 145 134 l 145 479 q 225 696 145 621 q 458 770 304 770 q 672 710 600 770 q 753 529 744 650 l 667 523 q 610 652 658 614 q 457 691 563 691 q 289 639 343 691 q 234 479 234 587 l 234 274 q 289 117 234 168 q 460 66 345 66 q 614 99 566 66 q 667 210 662 133 l 753 203 q 673 40 745 93 q 460 -13 601 -13 m 419 889 l 199 1091 l 234 1144 l 449 973 l 664 1144 l 699 1091 l 480 889 l 419 889 z "},"d":{"ha":884,"x_min":145,"x_max":739,"o":"m 404 69 q 533 102 472 69 q 650 206 593 135 l 650 639 q 556 680 605 667 q 453 693 508 693 q 289 639 345 693 q 234 479 234 585 l 234 275 q 275 119 234 168 q 404 69 316 69 m 628 119 q 531 24 596 61 q 384 -13 466 -13 q 207 62 269 -13 q 145 275 145 136 l 145 481 q 227 693 145 616 q 452 770 309 770 q 555 758 505 770 q 650 727 605 746 l 650 1010 l 739 1010 l 739 0 l 650 0 l 650 119 l 628 119 z "},"ď":{"ha":884,"x_min":145,"x_max":1129,"o":"m 145 0 m 404 69 q 533 102 472 69 q 650 206 593 135 l 650 639 q 556 680 605 667 q 453 693 508 693 q 289 639 345 693 q 234 479 234 585 l 234 275 q 275 119 234 168 q 404 69 316 69 m 628 119 q 531 24 596 61 q 384 -13 466 -13 q 207 62 269 -13 q 145 275 145 136 l 145 481 q 227 693 145 616 q 452 770 309 770 q 555 758 505 770 q 650 727 605 746 l 650 1010 l 739 1010 l 739 0 l 650 0 l 650 119 l 628 119 m 902 928 l 1004 1263 l 1129 1263 l 970 928 l 902 928 z "},"e":{"ha":884,"x_min":145,"x_max":739,"o":"m 735 157 q 637 27 703 67 q 443 -13 571 -13 q 224 60 303 -13 q 145 275 145 133 l 145 479 q 228 698 145 625 q 443 770 311 770 q 658 696 577 770 q 739 470 739 622 l 739 365 l 234 365 l 234 274 q 285 114 234 163 q 442 64 337 64 q 581 92 538 64 q 649 183 625 120 l 735 157 m 234 479 l 234 434 l 650 434 l 650 467 q 598 638 650 585 q 442 692 545 692 q 286 640 338 692 q 234 479 234 588 z "},"è":{"ha":884,"x_min":145,"x_max":739,"o":"m 145 0 m 735 157 q 637 27 703 67 q 443 -13 571 -13 q 224 60 303 -13 q 145 275 145 133 l 145 479 q 228 698 145 625 q 443 770 311 770 q 658 696 577 770 q 739 470 739 622 l 739 365 l 234 365 l 234 274 q 285 114 234 163 q 442 64 337 64 q 581 92 538 64 q 649 183 625 120 l 735 157 m 234 479 l 234 434 l 650 434 l 650 467 q 598 638 650 585 q 442 692 545 692 q 286 640 338 692 q 234 479 234 588 m 463 884 l 225 1136 l 361 1136 l 540 884 l 463 884 z "},"é":{"ha":884,"x_min":145,"x_max":739,"o":"m 145 0 m 735 157 q 637 27 703 67 q 443 -13 571 -13 q 224 60 303 -13 q 145 275 145 133 l 145 479 q 228 698 145 625 q 443 770 311 770 q 658 696 577 770 q 739 470 739 622 l 739 365 l 234 365 l 234 274 q 285 114 234 163 q 442 64 337 64 q 581 92 538 64 q 649 183 625 120 l 735 157 m 234 479 l 234 434 l 650 434 l 650 467 q 598 638 650 585 q 442 692 545 692 q 286 640 338 692 q 234 479 234 588 m 335 884 l 514 1136 l 650 1136 l 412 884 l 335 884 z "},"ê":{"ha":884,"x_min":145,"x_max":739,"o":"m 145 0 m 735 157 q 637 27 703 67 q 443 -13 571 -13 q 224 60 303 -13 q 145 275 145 133 l 145 479 q 228 698 145 625 q 443 770 311 770 q 658 696 577 770 q 739 470 739 622 l 739 365 l 234 365 l 234 274 q 285 114 234 163 q 442 64 337 64 q 581 92 538 64 q 649 183 625 120 l 735 157 m 234 479 l 234 434 l 650 434 l 650 467 q 598 638 650 585 q 442 692 545 692 q 286 640 338 692 q 234 479 234 588 m 227 903 l 193 956 l 412 1158 l 472 1158 l 693 956 l 658 903 l 442 1073 l 227 903 z "},"ë":{"ha":884,"x_min":145,"x_max":739,"o":"m 145 0 m 735 157 q 637 27 703 67 q 443 -13 571 -13 q 224 60 303 -13 q 145 275 145 133 l 145 479 q 228 698 145 625 q 443 770 311 770 q 658 696 577 770 q 739 470 739 622 l 739 365 l 234 365 l 234 274 q 285 114 234 163 q 442 64 337 64 q 581 92 538 64 q 649 183 625 120 l 735 157 m 234 479 l 234 434 l 650 434 l 650 467 q 598 638 650 585 q 442 692 545 692 q 286 640 338 692 q 234 479 234 588 m 306 912 q 257 924 275 912 q 239 968 239 936 l 239 977 q 257 1024 239 1011 q 306 1037 275 1037 q 354 1024 336 1037 q 372 977 372 1011 l 372 968 q 354 924 372 936 q 306 912 335 912 m 581 912 q 532 924 551 912 q 514 968 514 936 l 514 977 q 532 1024 514 1011 q 581 1037 551 1037 q 629 1024 611 1037 q 648 977 648 1011 l 648 968 q 629 924 648 936 q 581 912 610 912 z "},"ē":{"ha":884,"x_min":145,"x_max":739,"o":"m 145 0 m 735 157 q 637 27 703 67 q 443 -13 571 -13 q 224 60 303 -13 q 145 275 145 133 l 145 479 q 228 698 145 625 q 443 770 311 770 q 658 696 577 770 q 739 470 739 622 l 739 365 l 234 365 l 234 274 q 285 114 234 163 q 442 64 337 64 q 581 92 538 64 q 649 183 625 120 l 735 157 m 234 479 l 234 434 l 650 434 l 650 467 q 598 638 650 585 q 442 692 545 692 q 286 640 338 692 q 234 479 234 588 m 210 972 l 210 1052 l 677 1052 l 677 972 l 210 972 z "},"ĕ":{"ha":884,"x_min":145,"x_max":739,"o":"m 145 0 m 735 157 q 637 27 703 67 q 443 -13 571 -13 q 224 60 303 -13 q 145 275 145 133 l 145 479 q 228 698 145 625 q 443 770 311 770 q 658 696 577 770 q 739 470 739 622 l 739 365 l 234 365 l 234 274 q 285 114 234 163 q 442 64 337 64 q 581 92 538 64 q 649 183 625 120 l 735 157 m 234 479 l 234 434 l 650 434 l 650 467 q 598 638 650 585 q 442 692 545 692 q 286 640 338 692 q 234 479 234 588 m 443 875 q 247 940 319 875 q 173 1140 174 1005 l 261 1140 q 307 994 264 1038 q 443 949 351 949 q 579 994 535 949 q 625 1140 622 1038 l 713 1140 q 640 940 712 1005 q 443 875 567 875 z "},"ė":{"ha":884,"x_min":145,"x_max":739,"o":"m 145 0 m 735 157 q 637 27 703 67 q 443 -13 571 -13 q 224 60 303 -13 q 145 275 145 133 l 145 479 q 228 698 145 625 q 443 770 311 770 q 658 696 577 770 q 739 470 739 622 l 739 365 l 234 365 l 234 274 q 285 114 234 163 q 442 64 337 64 q 581 92 538 64 q 649 183 625 120 l 735 157 m 234 479 l 234 434 l 650 434 l 650 467 q 598 638 650 585 q 442 692 545 692 q 286 640 338 692 q 234 479 234 588 m 443 912 q 385 924 408 912 q 362 968 362 936 l 362 977 q 385 1024 362 1011 q 443 1037 408 1037 q 501 1024 479 1037 q 524 977 524 1011 l 524 968 q 501 924 524 936 q 443 912 479 912 z "},"ę":{"ha":884,"x_min":145,"x_max":739,"o":"m 145 0 m 735 157 q 637 27 703 67 q 443 -13 571 -13 q 224 60 303 -13 q 145 275 145 133 l 145 479 q 228 698 145 625 q 443 770 311 770 q 658 696 577 770 q 739 470 739 622 l 739 365 l 234 365 l 234 274 q 285 114 234 163 q 442 64 337 64 q 581 92 538 64 q 649 183 625 120 l 735 157 m 234 479 l 234 434 l 650 434 l 650 467 q 598 638 650 585 q 442 692 545 692 q 286 640 338 692 q 234 479 234 588 m 620 -271 q 494 -233 544 -271 q 444 -129 444 -194 q 488 -23 444 -71 q 596 49 532 24 l 619 29 q 549 -34 571 0 q 528 -105 528 -68 q 553 -170 528 -149 q 630 -192 578 -192 q 681 -189 654 -192 q 731 -181 708 -186 l 731 -260 q 676 -268 707 -265 q 620 -271 644 -271 z "},"ě":{"ha":884,"x_min":145,"x_max":739,"o":"m 145 0 m 735 157 q 637 27 703 67 q 443 -13 571 -13 q 224 60 303 -13 q 145 275 145 133 l 145 479 q 228 698 145 625 q 443 770 311 770 q 658 696 577 770 q 739 470 739 622 l 739 365 l 234 365 l 234 274 q 285 114 234 163 q 442 64 337 64 q 581 92 538 64 q 649 183 625 120 l 735 157 m 234 479 l 234 434 l 650 434 l 650 467 q 598 638 650 585 q 442 692 545 692 q 286 640 338 692 q 234 479 234 588 m 413 889 l 193 1091 l 227 1144 l 443 973 l 658 1144 l 693 1091 l 473 889 l 413 889 z "},"f":{"ha":884,"x_min":112,"x_max":755,"o":"m 335 0 l 335 678 l 112 678 l 112 758 l 335 758 l 335 808 q 407 967 335 910 q 585 1023 479 1023 q 677 1014 633 1023 q 755 994 721 1005 l 737 919 q 668 936 707 929 q 583 943 629 943 q 467 912 510 943 q 423 809 423 880 l 423 758 l 746 758 l 746 678 l 423 678 l 423 0 l 335 0 z "},"g":{"ha":884,"x_min":82,"x_max":802,"o":"m 802 -61 q 733 -214 802 -163 q 562 -265 664 -265 l 324 -265 q 150 -216 218 -265 q 82 -64 82 -167 q 112 35 82 -3 q 201 77 143 72 l 201 92 q 133 129 158 98 q 107 211 107 159 q 143 315 107 273 q 249 362 178 357 l 249 375 q 174 429 197 391 q 152 515 152 467 l 152 557 q 221 701 152 644 q 417 758 290 758 l 770 758 l 770 678 l 582 698 l 582 684 q 655 628 631 672 q 679 542 679 585 l 679 501 q 616 364 679 417 q 412 311 553 311 l 259 311 q 201 289 221 311 q 182 217 182 268 q 208 147 182 170 q 288 124 235 124 l 574 124 q 740 78 678 124 q 802 -61 802 32 m 417 380 q 549 411 504 380 q 593 506 593 442 l 593 547 q 549 651 593 619 q 417 683 504 683 q 285 651 330 683 q 240 547 240 619 l 240 506 q 285 411 240 442 q 417 380 330 380 m 322 -191 l 578 -191 q 682 -161 646 -191 q 718 -68 718 -131 q 686 15 718 -11 q 591 40 653 40 l 170 40 l 170 -45 q 209 -154 170 -117 q 322 -191 247 -191 z "},"ĝ":{"ha":884,"x_min":82,"x_max":802,"o":"m 82 0 m 802 -61 q 733 -214 802 -163 q 562 -265 664 -265 l 324 -265 q 150 -216 218 -265 q 82 -64 82 -167 q 112 35 82 -3 q 201 77 143 72 l 201 92 q 133 129 158 98 q 107 211 107 159 q 143 315 107 273 q 249 362 178 357 l 249 375 q 174 429 197 391 q 152 515 152 467 l 152 557 q 221 701 152 644 q 417 758 290 758 l 770 758 l 770 678 l 582 698 l 582 684 q 655 628 631 672 q 679 542 679 585 l 679 501 q 616 364 679 417 q 412 311 553 311 l 259 311 q 201 289 221 311 q 182 217 182 268 q 208 147 182 170 q 288 124 235 124 l 574 124 q 740 78 678 124 q 802 -61 802 32 m 417 380 q 549 411 504 380 q 593 506 593 442 l 593 547 q 549 651 593 619 q 417 683 504 683 q 285 651 330 683 q 240 547 240 619 l 240 506 q 285 411 240 442 q 417 380 330 380 m 322 -191 l 578 -191 q 682 -161 646 -191 q 718 -68 718 -131 q 686 15 718 -11 q 591 40 653 40 l 170 40 l 170 -45 q 209 -154 170 -117 q 322 -191 247 -191 m 213 903 l 179 956 l 398 1158 l 458 1158 l 679 956 l 644 903 l 428 1073 l 213 903 z "},"ğ":{"ha":884,"x_min":82,"x_max":802,"o":"m 82 0 m 802 -61 q 733 -214 802 -163 q 562 -265 664 -265 l 324 -265 q 150 -216 218 -265 q 82 -64 82 -167 q 112 35 82 -3 q 201 77 143 72 l 201 92 q 133 129 158 98 q 107 211 107 159 q 143 315 107 273 q 249 362 178 357 l 249 375 q 174 429 197 391 q 152 515 152 467 l 152 557 q 221 701 152 644 q 417 758 290 758 l 770 758 l 770 678 l 582 698 l 582 684 q 655 628 631 672 q 679 542 679 585 l 679 501 q 616 364 679 417 q 412 311 553 311 l 259 311 q 201 289 221 311 q 182 217 182 268 q 208 147 182 170 q 288 124 235 124 l 574 124 q 740 78 678 124 q 802 -61 802 32 m 417 380 q 549 411 504 380 q 593 506 593 442 l 593 547 q 549 651 593 619 q 417 683 504 683 q 285 651 330 683 q 240 547 240 619 l 240 506 q 285 411 240 442 q 417 380 330 380 m 322 -191 l 578 -191 q 682 -161 646 -191 q 718 -68 718 -131 q 686 15 718 -11 q 591 40 653 40 l 170 40 l 170 -45 q 209 -154 170 -117 q 322 -191 247 -191 m 442 875 q 246 940 318 875 q 172 1140 173 1005 l 260 1140 q 306 994 263 1038 q 442 949 350 949 q 578 994 534 949 q 624 1140 621 1038 l 712 1140 q 638 940 711 1005 q 442 875 566 875 z "},"ġ":{"ha":884,"x_min":82,"x_max":802,"o":"m 82 0 m 802 -61 q 733 -214 802 -163 q 562 -265 664 -265 l 324 -265 q 150 -216 218 -265 q 82 -64 82 -167 q 112 35 82 -3 q 201 77 143 72 l 201 92 q 133 129 158 98 q 107 211 107 159 q 143 315 107 273 q 249 362 178 357 l 249 375 q 174 429 197 391 q 152 515 152 467 l 152 557 q 221 701 152 644 q 417 758 290 758 l 770 758 l 770 678 l 582 698 l 582 684 q 655 628 631 672 q 679 542 679 585 l 679 501 q 616 364 679 417 q 412 311 553 311 l 259 311 q 201 289 221 311 q 182 217 182 268 q 208 147 182 170 q 288 124 235 124 l 574 124 q 740 78 678 124 q 802 -61 802 32 m 417 380 q 549 411 504 380 q 593 506 593 442 l 593 547 q 549 651 593 619 q 417 683 504 683 q 285 651 330 683 q 240 547 240 619 l 240 506 q 285 411 240 442 q 417 380 330 380 m 322 -191 l 578 -191 q 682 -161 646 -191 q 718 -68 718 -131 q 686 15 718 -11 q 591 40 653 40 l 170 40 l 170 -45 q 209 -154 170 -117 q 322 -191 247 -191 m 442 912 q 384 924 407 912 q 361 968 361 936 l 361 977 q 384 1024 361 1011 q 442 1037 407 1037 q 500 1024 477 1037 q 523 977 523 1011 l 523 968 q 500 924 523 936 q 442 912 477 912 z "},"ģ":{"ha":884,"x_min":82,"x_max":802,"o":"m 82 0 m 802 -61 q 733 -214 802 -163 q 562 -265 664 -265 l 324 -265 q 150 -216 218 -265 q 82 -64 82 -167 q 112 35 82 -3 q 201 77 143 72 l 201 92 q 133 129 158 98 q 107 211 107 159 q 143 315 107 273 q 249 362 178 357 l 249 375 q 174 429 197 391 q 152 515 152 467 l 152 557 q 221 701 152 644 q 417 758 290 758 l 770 758 l 770 678 l 582 698 l 582 684 q 655 628 631 672 q 679 542 679 585 l 679 501 q 616 364 679 417 q 412 311 553 311 l 259 311 q 201 289 221 311 q 182 217 182 268 q 208 147 182 170 q 288 124 235 124 l 574 124 q 740 78 678 124 q 802 -61 802 32 m 417 380 q 549 411 504 380 q 593 506 593 442 l 593 547 q 549 651 593 619 q 417 683 504 683 q 285 651 330 683 q 240 547 240 619 l 240 506 q 285 411 240 442 q 417 380 330 380 m 322 -191 l 578 -191 q 682 -161 646 -191 q 718 -68 718 -131 q 686 15 718 -11 q 591 40 653 40 l 170 40 l 170 -45 q 209 -154 170 -117 q 322 -191 247 -191 m 361 884 l 542 1136 l 619 1136 l 497 884 l 361 884 z "},"h":{"ha":884,"x_min":145,"x_max":739,"o":"m 145 0 l 145 1010 l 234 1010 l 234 631 l 256 631 q 354 733 295 696 q 497 770 413 770 q 673 702 607 770 q 739 520 739 634 l 739 0 l 650 0 l 650 501 q 606 639 650 590 q 482 688 562 688 q 355 654 414 688 q 234 548 295 620 l 234 0 l 145 0 z "},"ĥ":{"ha":884,"x_min":-61,"x_max":739,"o":"m 0 0 m 145 0 l 145 1010 l 234 1010 l 234 631 l 256 631 q 354 733 295 696 q 497 770 413 770 q 673 702 607 770 q 739 520 739 634 l 739 0 l 650 0 l 650 501 q 606 639 650 590 q 482 688 562 688 q 355 654 414 688 q 234 548 295 620 l 234 0 l 145 0 m -27 1155 l -61 1208 l 158 1410 l 218 1410 l 439 1208 l 404 1155 l 188 1326 l -27 1155 z "},"i":{"ha":884,"x_min":145,"x_max":739,"o":"m 145 0 m 145 0 l 145 80 l 398 80 l 398 678 l 145 678 l 145 758 l 486 758 l 486 80 l 739 80 l 739 0 l 145 0 m 442 912 q 384 924 407 912 q 361 968 361 936 l 361 977 q 384 1024 361 1011 q 442 1037 407 1037 q 500 1024 477 1037 q 523 977 523 1011 l 523 968 q 500 924 523 936 q 442 912 477 912 z "},"ì":{"ha":884,"x_min":145,"x_max":739,"o":"m 145 0 m 145 0 l 145 80 l 398 80 l 398 678 l 145 678 l 145 758 l 486 758 l 486 80 l 739 80 l 739 0 l 145 0 m 462 884 l 223 1136 l 360 1136 l 539 884 l 462 884 z "},"í":{"ha":884,"x_min":145,"x_max":739,"o":"m 145 0 m 145 0 l 145 80 l 398 80 l 398 678 l 145 678 l 145 758 l 486 758 l 486 80 l 739 80 l 739 0 l 145 0 m 333 884 l 513 1136 l 649 1136 l 410 884 l 333 884 z "},"î":{"ha":884,"x_min":145,"x_max":739,"o":"m 145 0 m 145 0 l 145 80 l 398 80 l 398 678 l 145 678 l 145 758 l 486 758 l 486 80 l 739 80 l 739 0 l 145 0 m 226 903 l 192 956 l 410 1158 l 471 1158 l 692 956 l 657 903 l 441 1073 l 226 903 z "},"ï":{"ha":884,"x_min":145,"x_max":739,"o":"m 145 0 m 145 0 l 145 80 l 398 80 l 398 678 l 145 678 l 145 758 l 486 758 l 486 80 l 739 80 l 739 0 l 145 0 m 304 912 q 256 924 274 912 q 237 968 237 936 l 237 977 q 256 1024 237 1011 q 304 1037 274 1037 q 353 1024 335 1037 q 371 977 371 1011 l 371 968 q 352 924 371 936 q 304 912 333 912 m 580 912 q 531 924 549 912 q 513 968 513 936 l 513 977 q 531 1024 513 1011 q 580 1037 549 1037 q 628 1024 610 1037 q 646 977 646 1011 l 646 968 q 628 924 646 936 q 580 912 609 912 z "},"ĩ":{"ha":884,"x_min":145,"x_max":739,"o":"m 145 0 m 145 0 l 145 80 l 398 80 l 398 678 l 145 678 l 145 758 l 486 758 l 486 80 l 739 80 l 739 0 l 145 0 m 548 896 q 476 920 505 896 q 415 994 447 943 q 372 1056 391 1035 q 332 1076 354 1076 q 282 1041 299 1076 q 266 923 264 1006 l 266 909 l 196 909 l 196 928 q 232 1090 196 1032 q 336 1149 268 1149 q 410 1126 381 1149 q 467 1056 439 1102 q 513 991 495 1013 q 552 970 532 970 q 600 1004 583 970 q 617 1122 617 1039 l 617 1136 l 688 1136 l 688 1117 q 652 955 688 1014 q 548 896 616 896 z "},"ī":{"ha":884,"x_min":145,"x_max":739,"o":"m 145 0 m 145 0 l 145 80 l 398 80 l 398 678 l 145 678 l 145 758 l 486 758 l 486 80 l 739 80 l 739 0 l 145 0 m 208 972 l 208 1052 l 676 1052 l 676 972 l 208 972 z "},"ĭ":{"ha":884,"x_min":145,"x_max":739,"o":"m 145 0 m 145 0 l 145 80 l 398 80 l 398 678 l 145 678 l 145 758 l 486 758 l 486 80 l 739 80 l 739 0 l 145 0 m 442 875 q 246 940 318 875 q 172 1140 173 1005 l 260 1140 q 306 994 263 1038 q 442 949 350 949 q 578 994 534 949 q 624 1140 621 1038 l 712 1140 q 638 940 711 1005 q 442 875 566 875 z "},"į":{"ha":884,"x_min":145,"x_max":739,"o":"m 145 0 m 145 0 l 145 80 l 398 80 l 398 678 l 145 678 l 145 758 l 486 758 l 486 80 l 739 80 l 739 0 l 145 0 m 442 912 q 384 924 407 912 q 361 968 361 936 l 361 977 q 384 1024 361 1011 q 442 1037 407 1037 q 500 1024 477 1037 q 523 977 523 1011 l 523 968 q 500 924 523 936 q 442 912 477 912 m 562 -271 q 436 -233 486 -271 q 386 -129 386 -194 q 430 -23 386 -71 q 538 49 473 24 l 561 29 q 491 -34 513 0 q 470 -105 470 -68 q 495 -170 470 -149 q 572 -192 520 -192 q 623 -189 596 -192 q 673 -181 650 -186 l 673 -260 q 617 -268 649 -265 q 562 -271 586 -271 z "},"j":{"ha":884,"x_min":145,"x_max":645,"o":"m 145 0 m 333 -263 q 239 -256 287 -263 q 145 -236 192 -249 l 164 -153 q 249 -174 207 -168 q 330 -179 290 -179 q 474 -131 424 -179 q 524 20 524 -82 l 524 678 l 170 678 l 170 758 l 612 758 l 612 8 q 536 -193 612 -124 q 333 -263 460 -263 m 564 912 q 506 924 529 912 q 484 968 484 936 l 484 977 q 506 1024 484 1011 q 564 1037 529 1037 q 622 1024 600 1037 q 645 977 645 1011 l 645 968 q 622 924 645 936 q 564 912 600 912 z "},"ĵ":{"ha":884,"x_min":145,"x_max":775,"o":"m 145 0 m 333 -263 q 239 -256 287 -263 q 145 -236 192 -249 l 164 -153 q 249 -174 207 -168 q 330 -179 290 -179 q 474 -131 424 -179 q 524 20 524 -82 l 524 678 l 170 678 l 170 758 l 612 758 l 612 8 q 536 -193 612 -124 q 333 -263 460 -263 m 309 903 l 275 956 l 494 1158 l 554 1158 l 775 956 l 740 903 l 524 1073 l 309 903 z "},"k":{"ha":884,"x_min":208,"x_max":758,"o":"m 297 360 l 297 0 l 208 0 l 208 1010 l 297 1010 l 297 437 l 399 437 l 650 758 l 758 758 l 471 404 l 754 0 l 653 0 l 400 360 l 297 360 z "},"ķ":{"ha":884,"x_min":208,"x_max":758,"o":"m 208 0 m 297 360 l 297 0 l 208 0 l 208 1010 l 297 1010 l 297 437 l 399 437 l 650 758 l 758 758 l 471 404 l 754 0 l 653 0 l 400 360 l 297 360 m 279 -379 l 400 -126 l 537 -126 l 356 -379 l 279 -379 z "},"l":{"ha":884,"x_min":145,"x_max":739,"o":"m 145 0 l 145 80 l 398 80 l 398 931 l 145 931 l 145 1010 l 486 1010 l 486 80 l 739 80 l 739 0 l 145 0 z "},"ĺ":{"ha":884,"x_min":145,"x_max":739,"o":"m 145 0 m 145 0 l 145 80 l 398 80 l 398 931 l 145 931 l 145 1010 l 486 1010 l 486 80 l 739 80 l 739 0 l 145 0 m 352 1136 l 532 1389 l 668 1389 l 429 1136 l 352 1136 z "},"ļ":{"ha":884,"x_min":145,"x_max":739,"o":"m 145 0 m 145 0 l 145 80 l 398 80 l 398 931 l 145 931 l 145 1010 l 486 1010 l 486 80 l 739 80 l 739 0 l 145 0 m 256 -379 l 378 -126 l 514 -126 l 333 -379 l 256 -379 z "},"ľ":{"ha":884,"x_min":145,"x_max":876,"o":"m 145 0 m 145 0 l 145 80 l 398 80 l 398 931 l 145 931 l 145 1010 l 486 1010 l 486 80 l 739 80 l 739 0 l 145 0 m 649 928 l 751 1263 l 876 1263 l 717 928 l 649 928 z "},"m":{"ha":884,"x_min":87,"x_max":797,"o":"m 172 581 l 172 0 l 87 0 l 87 758 l 172 758 l 172 657 l 189 657 q 249 739 213 708 q 335 770 285 770 q 420 741 385 770 q 472 657 456 711 l 491 657 q 555 739 515 708 q 648 770 595 770 q 756 715 716 770 q 797 566 797 660 l 797 0 l 712 0 l 712 549 q 691 661 712 625 q 625 697 669 697 q 557 667 591 697 q 484 581 523 636 l 484 0 l 400 0 l 400 549 q 378 661 400 625 q 312 697 356 697 q 244 667 278 697 q 172 581 211 638 z "},"n":{"ha":884,"x_min":145,"x_max":739,"o":"m 145 0 l 145 758 l 234 758 l 234 631 l 256 631 q 354 733 288 696 q 497 770 419 770 q 674 703 609 770 q 739 519 739 635 l 739 0 l 650 0 l 650 501 q 607 640 650 592 q 482 687 564 687 q 354 653 417 687 q 234 552 292 619 l 234 0 l 145 0 z "},"ñ":{"ha":884,"x_min":145,"x_max":739,"o":"m 145 0 m 145 0 l 145 758 l 234 758 l 234 631 l 256 631 q 354 733 288 696 q 497 770 419 770 q 674 703 609 770 q 739 519 739 635 l 739 0 l 650 0 l 650 501 q 607 640 650 592 q 482 687 564 687 q 354 653 417 687 q 234 552 292 619 l 234 0 l 145 0 m 573 896 q 501 920 530 896 q 441 994 472 943 q 398 1056 417 1035 q 357 1076 379 1076 q 307 1041 324 1076 q 292 923 289 1006 l 292 909 l 221 909 l 221 928 q 257 1090 221 1032 q 361 1149 293 1149 q 436 1126 407 1149 q 492 1056 465 1102 q 539 991 520 1013 q 577 970 557 970 q 626 1004 609 970 q 643 1122 643 1039 l 643 1136 l 713 1136 l 713 1117 q 677 955 713 1014 q 573 896 641 896 z "},"ń":{"ha":884,"x_min":145,"x_max":739,"o":"m 145 0 m 145 0 l 145 758 l 234 758 l 234 631 l 256 631 q 354 733 288 696 q 497 770 419 770 q 674 703 609 770 q 739 519 739 635 l 739 0 l 650 0 l 650 501 q 607 640 650 592 q 482 687 564 687 q 354 653 417 687 q 234 552 292 619 l 234 0 l 145 0 m 359 884 l 538 1136 l 674 1136 l 436 884 l 359 884 z "},"ņ":{"ha":884,"x_min":145,"x_max":739,"o":"m 145 0 m 145 0 l 145 758 l 234 758 l 234 631 l 256 631 q 354 733 288 696 q 497 770 419 770 q 674 703 609 770 q 739 519 739 635 l 739 0 l 650 0 l 650 501 q 607 640 650 592 q 482 687 564 687 q 354 653 417 687 q 234 552 292 619 l 234 0 l 145 0 m 288 -379 l 409 -126 l 545 -126 l 365 -379 l 288 -379 z "},"ň":{"ha":884,"x_min":145,"x_max":739,"o":"m 145 0 m 145 0 l 145 758 l 234 758 l 234 631 l 256 631 q 354 733 288 696 q 497 770 419 770 q 674 703 609 770 q 739 519 739 635 l 739 0 l 650 0 l 650 501 q 607 640 650 592 q 482 687 564 687 q 354 653 417 687 q 234 552 292 619 l 234 0 l 145 0 m 437 889 l 217 1091 l 251 1144 l 467 973 l 682 1144 l 717 1091 l 497 889 l 437 889 z "},"o":{"ha":884,"x_min":145,"x_max":739,"o":"m 442 -13 q 222 61 299 -13 q 145 274 145 135 l 145 479 q 223 695 145 620 q 443 770 301 770 q 662 695 586 770 q 739 479 739 620 l 739 274 q 662 61 739 135 q 442 -13 585 -13 m 442 67 q 599 117 548 67 q 650 274 650 168 l 650 479 q 599 639 650 587 q 442 691 548 691 q 285 639 336 691 q 234 479 234 587 l 234 274 q 285 117 234 168 q 442 67 336 67 z "},"ò":{"ha":884,"x_min":145,"x_max":739,"o":"m 145 0 m 442 -13 q 222 61 299 -13 q 145 274 145 135 l 145 479 q 223 695 145 620 q 443 770 301 770 q 662 695 586 770 q 739 479 739 620 l 739 274 q 662 61 739 135 q 442 -13 585 -13 m 442 67 q 599 117 548 67 q 650 274 650 168 l 650 479 q 599 639 650 587 q 442 691 548 691 q 285 639 336 691 q 234 479 234 587 l 234 274 q 285 117 234 168 q 442 67 336 67 m 462 884 l 223 1136 l 360 1136 l 539 884 l 462 884 z "},"ó":{"ha":884,"x_min":145,"x_max":739,"o":"m 145 0 m 442 -13 q 222 61 299 -13 q 145 274 145 135 l 145 479 q 223 695 145 620 q 443 770 301 770 q 662 695 586 770 q 739 479 739 620 l 739 274 q 662 61 739 135 q 442 -13 585 -13 m 442 67 q 599 117 548 67 q 650 274 650 168 l 650 479 q 599 639 650 587 q 442 691 548 691 q 285 639 336 691 q 234 479 234 587 l 234 274 q 285 117 234 168 q 442 67 336 67 m 333 884 l 513 1136 l 649 1136 l 410 884 l 333 884 z "},"ô":{"ha":884,"x_min":145,"x_max":739,"o":"m 145 0 m 442 -13 q 222 61 299 -13 q 145 274 145 135 l 145 479 q 223 695 145 620 q 443 770 301 770 q 662 695 586 770 q 739 479 739 620 l 739 274 q 662 61 739 135 q 442 -13 585 -13 m 442 67 q 599 117 548 67 q 650 274 650 168 l 650 479 q 599 639 650 587 q 442 691 548 691 q 285 639 336 691 q 234 479 234 587 l 234 274 q 285 117 234 168 q 442 67 336 67 m 226 903 l 192 956 l 410 1158 l 471 1158 l 692 956 l 657 903 l 441 1073 l 226 903 z "},"õ":{"ha":884,"x_min":145,"x_max":739,"o":"m 145 0 m 442 -13 q 222 61 299 -13 q 145 274 145 135 l 145 479 q 223 695 145 620 q 443 770 301 770 q 662 695 586 770 q 739 479 739 620 l 739 274 q 662 61 739 135 q 442 -13 585 -13 m 442 67 q 599 117 548 67 q 650 274 650 168 l 650 479 q 599 639 650 587 q 442 691 548 691 q 285 639 336 691 q 234 479 234 587 l 234 274 q 285 117 234 168 q 442 67 336 67 m 548 896 q 476 920 505 896 q 415 994 447 943 q 372 1056 391 1035 q 332 1076 354 1076 q 282 1041 299 1076 q 266 923 264 1006 l 266 909 l 196 909 l 196 928 q 232 1090 196 1032 q 336 1149 268 1149 q 410 1126 381 1149 q 467 1056 439 1102 q 513 991 495 1013 q 552 970 532 970 q 600 1004 583 970 q 617 1122 617 1039 l 617 1136 l 688 1136 l 688 1117 q 652 955 688 1014 q 548 896 616 896 z "},"ö":{"ha":884,"x_min":145,"x_max":739,"o":"m 145 0 m 442 -13 q 222 61 299 -13 q 145 274 145 135 l 145 479 q 223 695 145 620 q 443 770 301 770 q 662 695 586 770 q 739 479 739 620 l 739 274 q 662 61 739 135 q 442 -13 585 -13 m 442 67 q 599 117 548 67 q 650 274 650 168 l 650 479 q 599 639 650 587 q 442 691 548 691 q 285 639 336 691 q 234 479 234 587 l 234 274 q 285 117 234 168 q 442 67 336 67 m 304 912 q 256 924 274 912 q 237 968 237 936 l 237 977 q 256 1024 237 1011 q 304 1037 274 1037 q 353 1024 335 1037 q 371 977 371 1011 l 371 968 q 352 924 371 936 q 304 912 333 912 m 580 912 q 531 924 549 912 q 513 968 513 936 l 513 977 q 531 1024 513 1011 q 580 1037 549 1037 q 628 1024 610 1037 q 646 977 646 1011 l 646 968 q 628 924 646 936 q 580 912 609 912 z "},"ō":{"ha":884,"x_min":145,"x_max":739,"o":"m 145 0 m 442 -13 q 222 61 299 -13 q 145 274 145 135 l 145 479 q 223 695 145 620 q 443 770 301 770 q 662 695 586 770 q 739 479 739 620 l 739 274 q 662 61 739 135 q 442 -13 585 -13 m 442 67 q 599 117 548 67 q 650 274 650 168 l 650 479 q 599 639 650 587 q 442 691 548 691 q 285 639 336 691 q 234 479 234 587 l 234 274 q 285 117 234 168 q 442 67 336 67 m 208 972 l 208 1052 l 676 1052 l 676 972 l 208 972 z "},"ŏ":{"ha":884,"x_min":145,"x_max":739,"o":"m 145 0 m 442 -13 q 222 61 299 -13 q 145 274 145 135 l 145 479 q 223 695 145 620 q 443 770 301 770 q 662 695 586 770 q 739 479 739 620 l 739 274 q 662 61 739 135 q 442 -13 585 -13 m 442 67 q 599 117 548 67 q 650 274 650 168 l 650 479 q 599 639 650 587 q 442 691 548 691 q 285 639 336 691 q 234 479 234 587 l 234 274 q 285 117 234 168 q 442 67 336 67 m 442 875 q 246 940 318 875 q 172 1140 173 1005 l 260 1140 q 306 994 263 1038 q 442 949 350 949 q 578 994 534 949 q 624 1140 621 1038 l 712 1140 q 638 940 711 1005 q 442 875 566 875 z "},"ő":{"ha":884,"x_min":145,"x_max":739,"o":"m 145 0 m 442 -13 q 222 61 299 -13 q 145 274 145 135 l 145 479 q 223 695 145 620 q 443 770 301 770 q 662 695 586 770 q 739 479 739 620 l 739 274 q 662 61 739 135 q 442 -13 585 -13 m 442 67 q 599 117 548 67 q 650 274 650 168 l 650 479 q 599 639 650 587 q 442 691 548 691 q 285 639 336 691 q 234 479 234 587 l 234 274 q 285 117 234 168 q 442 67 336 67 m 513 884 l 583 1136 l 722 1136 l 580 884 l 513 884 m 253 884 l 323 1136 l 462 1136 l 319 884 l 253 884 z "},"p":{"ha":884,"x_min":145,"x_max":739,"o":"m 431 64 q 597 116 544 64 q 650 279 650 168 l 650 484 q 609 639 650 590 q 480 688 567 688 q 351 656 410 688 q 234 552 292 624 l 234 120 q 328 78 279 92 q 431 64 376 64 m 432 -13 q 336 -1 389 -13 q 234 30 283 10 l 234 -253 l 145 -253 l 145 758 l 234 758 l 234 631 l 256 631 q 354 734 289 698 q 496 770 419 770 q 674 693 610 770 q 739 482 739 616 l 739 277 q 657 64 739 141 q 432 -13 574 -13 z "},"q":{"ha":884,"x_min":145,"x_max":739,"o":"m 650 -253 l 650 126 l 628 126 q 524 24 588 61 q 380 -13 460 -13 q 206 63 268 -13 q 145 275 145 139 l 145 481 q 229 694 145 619 q 452 770 313 770 q 605 752 530 770 q 739 699 681 734 l 739 -253 l 650 -253 m 404 69 q 534 103 473 69 q 650 206 595 136 l 650 645 q 559 681 607 669 q 453 693 511 693 q 291 641 348 693 q 234 479 234 588 l 234 288 q 275 123 234 177 q 404 69 317 69 z "},"r":{"ha":884,"x_min":208,"x_max":749,"o":"m 208 0 l 208 758 l 297 758 l 297 631 l 319 631 q 416 738 359 706 q 544 770 473 770 q 693 714 636 770 q 749 556 749 658 l 749 461 l 663 461 l 663 535 q 628 648 663 607 q 518 688 592 688 q 399 655 453 688 q 297 553 345 621 l 297 0 l 208 0 z "},"ŕ":{"ha":884,"x_min":208,"x_max":749,"o":"m 208 0 m 208 0 l 208 758 l 297 758 l 297 631 l 319 631 q 416 738 359 706 q 544 770 473 770 q 693 714 636 770 q 749 556 749 658 l 749 461 l 663 461 l 663 535 q 628 648 663 607 q 518 688 592 688 q 399 655 453 688 q 297 553 345 621 l 297 0 l 208 0 m 384 884 l 563 1136 l 699 1136 l 461 884 l 384 884 z "},"ŗ":{"ha":884,"x_min":124,"x_max":749,"o":"m 124 0 m 208 0 l 208 758 l 297 758 l 297 631 l 319 631 q 416 738 359 706 q 544 770 473 770 q 693 714 636 770 q 749 556 749 658 l 749 461 l 663 461 l 663 535 q 628 648 663 607 q 518 688 592 688 q 399 655 453 688 q 297 553 345 621 l 297 0 l 208 0 m 124 -379 l 245 -126 l 381 -126 l 201 -379 l 124 -379 z "},"ř":{"ha":884,"x_min":208,"x_max":749,"o":"m 208 0 m 208 0 l 208 758 l 297 758 l 297 631 l 319 631 q 416 738 359 706 q 544 770 473 770 q 693 714 636 770 q 749 556 749 658 l 749 461 l 663 461 l 663 535 q 628 648 663 607 q 518 688 592 688 q 399 655 453 688 q 297 553 345 621 l 297 0 l 208 0 m 462 889 l 242 1091 l 277 1144 l 492 973 l 707 1144 l 742 1091 l 523 889 l 462 889 z "},"s":{"ha":884,"x_min":119,"x_max":744,"o":"m 460 -13 q 278 15 366 -13 q 119 101 191 43 l 162 172 q 301 94 225 121 q 460 67 378 67 q 600 98 543 67 q 657 197 657 129 q 607 288 657 259 q 422 338 558 317 q 212 410 279 361 q 145 552 145 458 q 220 712 145 654 q 404 770 294 770 q 566 741 489 770 q 712 659 644 711 l 670 590 q 545 662 612 634 q 404 691 477 691 q 281 659 330 691 q 232 563 232 628 q 280 469 232 499 q 463 419 328 439 q 677 347 610 396 q 744 206 744 297 q 662 44 744 101 q 460 -13 580 -13 z "},"":{"ha":884,"x_min":119,"x_max":744,"o":"m 460 -13 q 278 15 366 -13 q 119 101 191 43 l 162 172 q 301 94 225 121 q 460 67 378 67 q 600 98 543 67 q 657 197 657 129 q 607 288 657 259 q 422 338 558 317 q 212 410 279 361 q 145 552 145 458 q 220 712 145 654 q 404 770 294 770 q 566 741 489 770 q 712 659 644 711 l 670 590 q 545 662 612 634 q 404 691 477 691 q 281 659 330 691 q 232 563 232 628 q 280 469 232 499 q 463 419 328 439 q 677 347 610 396 q 744 206 744 297 q 662 44 744 101 q 460 -13 580 -13 z "},"ś":{"ha":884,"x_min":119,"x_max":744,"o":"m 119 0 m 460 -13 q 278 15 366 -13 q 119 101 191 43 l 162 172 q 301 94 225 121 q 460 67 378 67 q 600 98 543 67 q 657 197 657 129 q 607 288 657 259 q 422 338 558 317 q 212 410 279 361 q 145 552 145 458 q 220 712 145 654 q 404 770 294 770 q 566 741 489 770 q 712 659 644 711 l 670 590 q 545 662 612 634 q 404 691 477 691 q 281 659 330 691 q 232 563 232 628 q 280 469 232 499 q 463 419 328 439 q 677 347 610 396 q 744 206 744 297 q 662 44 744 101 q 460 -13 580 -13 m 331 884 l 510 1136 l 646 1136 l 408 884 l 331 884 z "},"ŝ":{"ha":884,"x_min":119,"x_max":744,"o":"m 119 0 m 460 -13 q 278 15 366 -13 q 119 101 191 43 l 162 172 q 301 94 225 121 q 460 67 378 67 q 600 98 543 67 q 657 197 657 129 q 607 288 657 259 q 422 338 558 317 q 212 410 279 361 q 145 552 145 458 q 220 712 145 654 q 404 770 294 770 q 566 741 489 770 q 712 659 644 711 l 670 590 q 545 662 612 634 q 404 691 477 691 q 281 659 330 691 q 232 563 232 628 q 280 469 232 499 q 463 419 328 439 q 677 347 610 396 q 744 206 744 297 q 662 44 744 101 q 460 -13 580 -13 m 223 903 l 189 956 l 408 1158 l 468 1158 l 689 956 l 654 903 l 438 1073 l 223 903 z "},"ş":{"ha":884,"x_min":119,"x_max":744,"o":"m 119 0 m 460 -13 q 278 15 366 -13 q 119 101 191 43 l 162 172 q 301 94 225 121 q 460 67 378 67 q 600 98 543 67 q 657 197 657 129 q 607 288 657 259 q 422 338 558 317 q 212 410 279 361 q 145 552 145 458 q 220 712 145 654 q 404 770 294 770 q 566 741 489 770 q 712 659 644 711 l 670 590 q 545 662 612 634 q 404 691 477 691 q 281 659 330 691 q 232 563 232 628 q 280 469 232 499 q 463 419 328 439 q 677 347 610 396 q 744 206 744 297 q 662 44 744 101 q 460 -13 580 -13 m 402 0 l 419 38 q 532 -14 487 25 q 576 -122 576 -53 q 526 -234 576 -196 q 399 -273 476 -273 q 275 -241 323 -273 q 221 -135 226 -210 l 302 -128 q 327 -183 307 -167 q 393 -199 347 -199 q 469 -181 446 -199 q 492 -112 492 -162 q 472 -39 492 -64 q 402 0 451 -14 z "},"š":{"ha":884,"x_min":119,"x_max":744,"o":"m 119 0 m 460 -13 q 278 15 366 -13 q 119 101 191 43 l 162 172 q 301 94 225 121 q 460 67 378 67 q 600 98 543 67 q 657 197 657 129 q 607 288 657 259 q 422 338 558 317 q 212 410 279 361 q 145 552 145 458 q 220 712 145 654 q 404 770 294 770 q 566 741 489 770 q 712 659 644 711 l 670 590 q 545 662 612 634 q 404 691 477 691 q 281 659 330 691 q 232 563 232 628 q 280 469 232 499 q 463 419 328 439 q 677 347 610 396 q 744 206 744 297 q 662 44 744 101 q 460 -13 580 -13 m 409 889 l 189 1091 l 223 1144 l 439 973 l 654 1144 l 689 1091 l 470 889 l 409 889 z "},"ș":{"ha":884,"x_min":119,"x_max":744,"o":"m 119 0 m 460 -13 q 278 15 366 -13 q 119 101 191 43 l 162 172 q 301 94 225 121 q 460 67 378 67 q 600 98 543 67 q 657 197 657 129 q 607 288 657 259 q 422 338 558 317 q 212 410 279 361 q 145 552 145 458 q 220 712 145 654 q 404 770 294 770 q 566 741 489 770 q 712 659 644 711 l 670 590 q 545 662 612 634 q 404 691 477 691 q 281 659 330 691 q 232 563 232 628 q 280 469 232 499 q 463 419 328 439 q 677 347 610 396 q 744 206 744 297 q 662 44 744 101 q 460 -13 580 -13 m 263 -379 l 384 -126 l 520 -126 l 340 -379 l 263 -379 z "},"t":{"ha":884,"x_min":107,"x_max":753,"o":"m 574 -11 q 389 52 456 -11 q 322 237 322 116 l 322 678 l 107 678 l 107 758 l 322 758 l 322 1010 l 410 1010 l 410 758 l 739 758 l 739 678 l 410 678 l 410 249 q 453 114 410 158 q 582 71 495 71 q 658 79 619 71 q 735 100 697 87 l 753 20 q 667 -3 712 5 q 574 -11 621 -11 z "},"ţ":{"ha":884,"x_min":107,"x_max":753,"o":"m 107 0 m 574 -11 q 389 52 456 -11 q 322 237 322 116 l 322 678 l 107 678 l 107 758 l 322 758 l 322 1010 l 410 1010 l 410 758 l 739 758 l 739 678 l 410 678 l 410 249 q 453 114 410 158 q 582 71 495 71 q 658 79 619 71 q 735 100 697 87 l 753 20 q 667 -3 712 5 q 574 -11 621 -11 m 486 0 l 504 38 q 616 -14 572 25 q 660 -122 660 -53 q 610 -234 660 -196 q 484 -273 561 -273 q 359 -241 408 -273 q 306 -135 311 -210 l 386 -128 q 412 -183 391 -167 q 477 -199 432 -199 q 554 -181 530 -199 q 577 -112 577 -162 q 556 -39 577 -64 q 486 0 535 -14 z "},"ť":{"ha":884,"x_min":107,"x_max":801,"o":"m 107 0 m 574 -11 q 389 52 456 -11 q 322 237 322 116 l 322 678 l 107 678 l 107 758 l 322 758 l 322 1010 l 410 1010 l 410 758 l 739 758 l 739 678 l 410 678 l 410 249 q 453 114 410 158 q 582 71 495 71 q 658 79 619 71 q 735 100 697 87 l 753 20 q 667 -3 712 5 q 574 -11 621 -11 m 573 928 l 676 1263 l 801 1263 l 641 928 l 573 928 z "},"ț":{"ha":884,"x_min":107,"x_max":753,"o":"m 107 0 m 574 -11 q 389 52 456 -11 q 322 237 322 116 l 322 678 l 107 678 l 107 758 l 322 758 l 322 1010 l 410 1010 l 410 758 l 739 758 l 739 678 l 410 678 l 410 249 q 453 114 410 158 q 582 71 495 71 q 658 79 619 71 q 735 100 697 87 l 753 20 q 667 -3 712 5 q 574 -11 621 -11 m 288 -379 l 409 -126 l 545 -126 l 365 -379 l 288 -379 z "},"u":{"ha":884,"x_min":145,"x_max":739,"o":"m 386 -13 q 211 58 277 -13 q 145 246 145 129 l 145 758 l 234 758 l 234 271 q 276 120 234 170 q 402 69 318 69 q 527 103 465 69 q 650 206 590 136 l 650 758 l 739 758 l 739 0 l 650 0 l 650 126 l 628 126 q 526 23 588 59 q 386 -13 463 -13 z "},"ù":{"ha":884,"x_min":145,"x_max":739,"o":"m 145 0 m 386 -13 q 211 58 277 -13 q 145 246 145 129 l 145 758 l 234 758 l 234 271 q 276 120 234 170 q 402 69 318 69 q 527 103 465 69 q 650 206 590 136 l 650 758 l 739 758 l 739 0 l 650 0 l 650 126 l 628 126 q 526 23 588 59 q 386 -13 463 -13 m 424 884 l 186 1136 l 322 1136 l 501 884 l 424 884 z "},"ú":{"ha":884,"x_min":145,"x_max":739,"o":"m 145 0 m 386 -13 q 211 58 277 -13 q 145 246 145 129 l 145 758 l 234 758 l 234 271 q 276 120 234 170 q 402 69 318 69 q 527 103 465 69 q 650 206 590 136 l 650 758 l 739 758 l 739 0 l 650 0 l 650 126 l 628 126 q 526 23 588 59 q 386 -13 463 -13 m 384 884 l 563 1136 l 699 1136 l 461 884 l 384 884 z "},"û":{"ha":884,"x_min":145,"x_max":739,"o":"m 145 0 m 386 -13 q 211 58 277 -13 q 145 246 145 129 l 145 758 l 234 758 l 234 271 q 276 120 234 170 q 402 69 318 69 q 527 103 465 69 q 650 206 590 136 l 650 758 l 739 758 l 739 0 l 650 0 l 650 126 l 628 126 q 526 23 588 59 q 386 -13 463 -13 m 226 903 l 192 956 l 410 1158 l 471 1158 l 692 956 l 657 903 l 441 1073 l 226 903 z "},"ü":{"ha":884,"x_min":145,"x_max":739,"o":"m 145 0 m 386 -13 q 211 58 277 -13 q 145 246 145 129 l 145 758 l 234 758 l 234 271 q 276 120 234 170 q 402 69 318 69 q 527 103 465 69 q 650 206 590 136 l 650 758 l 739 758 l 739 0 l 650 0 l 650 126 l 628 126 q 526 23 588 59 q 386 -13 463 -13 m 304 912 q 256 924 274 912 q 237 968 237 936 l 237 977 q 256 1024 237 1011 q 304 1037 274 1037 q 353 1024 335 1037 q 371 977 371 1011 l 371 968 q 352 924 371 936 q 304 912 333 912 m 580 912 q 531 924 549 912 q 513 968 513 936 l 513 977 q 531 1024 513 1011 q 580 1037 549 1037 q 628 1024 610 1037 q 646 977 646 1011 l 646 968 q 628 924 646 936 q 580 912 609 912 z "},"ũ":{"ha":884,"x_min":145,"x_max":739,"o":"m 145 0 m 386 -13 q 211 58 277 -13 q 145 246 145 129 l 145 758 l 234 758 l 234 271 q 276 120 234 170 q 402 69 318 69 q 527 103 465 69 q 650 206 590 136 l 650 758 l 739 758 l 739 0 l 650 0 l 650 126 l 628 126 q 526 23 588 59 q 386 -13 463 -13 m 548 896 q 476 920 505 896 q 415 994 447 943 q 372 1056 391 1035 q 332 1076 354 1076 q 282 1041 299 1076 q 266 923 264 1006 l 266 909 l 196 909 l 196 928 q 232 1090 196 1032 q 336 1149 268 1149 q 410 1126 381 1149 q 467 1056 439 1102 q 513 991 495 1013 q 552 970 532 970 q 600 1004 583 970 q 617 1122 617 1039 l 617 1136 l 688 1136 l 688 1117 q 652 955 688 1014 q 548 896 616 896 z "},"ū":{"ha":884,"x_min":145,"x_max":739,"o":"m 145 0 m 386 -13 q 211 58 277 -13 q 145 246 145 129 l 145 758 l 234 758 l 234 271 q 276 120 234 170 q 402 69 318 69 q 527 103 465 69 q 650 206 590 136 l 650 758 l 739 758 l 739 0 l 650 0 l 650 126 l 628 126 q 526 23 588 59 q 386 -13 463 -13 m 208 972 l 208 1052 l 676 1052 l 676 972 l 208 972 z "},"ŭ":{"ha":884,"x_min":145,"x_max":739,"o":"m 145 0 m 386 -13 q 211 58 277 -13 q 145 246 145 129 l 145 758 l 234 758 l 234 271 q 276 120 234 170 q 402 69 318 69 q 527 103 465 69 q 650 206 590 136 l 650 758 l 739 758 l 739 0 l 650 0 l 650 126 l 628 126 q 526 23 588 59 q 386 -13 463 -13 m 442 875 q 246 940 318 875 q 172 1140 173 1005 l 260 1140 q 306 994 263 1038 q 442 949 350 949 q 578 994 534 949 q 624 1140 621 1038 l 712 1140 q 638 940 711 1005 q 442 875 566 875 z "},"ů":{"ha":884,"x_min":145,"x_max":739,"o":"m 145 0 m 386 -13 q 211 58 277 -13 q 145 246 145 129 l 145 758 l 234 758 l 234 271 q 276 120 234 170 q 402 69 318 69 q 527 103 465 69 q 650 206 590 136 l 650 758 l 739 758 l 739 0 l 650 0 l 650 126 l 628 126 q 526 23 588 59 q 386 -13 463 -13 m 442 865 q 305 911 355 865 q 255 1048 255 957 l 255 1088 q 305 1228 255 1181 q 442 1275 355 1275 q 579 1228 529 1275 q 629 1088 629 1181 l 629 1048 q 579 911 629 957 q 442 865 529 865 m 442 932 q 527 959 500 932 q 553 1048 553 986 l 553 1088 q 527 1179 553 1150 q 442 1208 500 1208 q 357 1179 384 1208 q 331 1088 331 1150 l 331 1048 q 357 959 331 986 q 442 932 384 932 z "},"ű":{"ha":884,"x_min":145,"x_max":747,"o":"m 145 0 m 386 -13 q 211 58 277 -13 q 145 246 145 129 l 145 758 l 234 758 l 234 271 q 276 120 234 170 q 402 69 318 69 q 527 103 465 69 q 650 206 590 136 l 650 758 l 739 758 l 739 0 l 650 0 l 650 126 l 628 126 q 526 23 588 59 q 386 -13 463 -13 m 538 884 l 609 1136 l 747 1136 l 605 884 l 538 884 m 278 884 l 348 1136 l 487 1136 l 345 884 l 278 884 z "},"ų":{"ha":884,"x_min":145,"x_max":850,"o":"m 145 0 m 386 -13 q 211 58 277 -13 q 145 246 145 129 l 145 758 l 234 758 l 234 271 q 276 120 234 170 q 402 69 318 69 q 527 103 465 69 q 650 206 590 136 l 650 758 l 739 758 l 739 0 l 650 0 l 650 126 l 628 126 q 526 23 588 59 q 386 -13 463 -13 m 739 -271 q 613 -233 663 -271 q 563 -129 563 -194 q 607 -23 563 -71 q 715 49 650 24 l 737 29 q 668 -34 689 0 q 646 -105 646 -68 q 672 -170 646 -149 q 749 -192 697 -192 q 800 -189 773 -192 q 850 -181 827 -186 l 850 -260 q 794 -268 826 -265 q 739 -271 763 -271 z "},"v":{"ha":884,"x_min":112,"x_max":770,"o":"m 494 0 l 389 0 l 112 758 l 207 758 l 443 77 l 679 758 l 770 758 l 494 0 z "},"w":{"ha":884,"x_min":57,"x_max":827,"o":"m 576 0 l 441 523 l 313 0 l 215 0 l 57 758 l 144 758 l 266 91 l 388 631 l 491 631 l 621 107 l 740 758 l 827 758 l 669 0 l 576 0 z "},"":{"ha":884,"x_min":57,"x_max":827,"o":"m 576 0 l 441 523 l 313 0 l 215 0 l 57 758 l 144 758 l 266 91 l 388 631 l 491 631 l 621 107 l 740 758 l 827 758 l 669 0 l 576 0 z "},"ŵ":{"ha":884,"x_min":57,"x_max":827,"o":"m 57 0 m 576 0 l 441 523 l 313 0 l 215 0 l 57 758 l 144 758 l 266 91 l 388 631 l 491 631 l 621 107 l 740 758 l 827 758 l 669 0 l 576 0 m 226 903 l 192 956 l 410 1158 l 471 1158 l 692 956 l 657 903 l 441 1073 l 226 903 z "},"ẁ":{"ha":884,"x_min":57,"x_max":827,"o":"m 57 0 m 576 0 l 441 523 l 313 0 l 215 0 l 57 758 l 144 758 l 266 91 l 388 631 l 491 631 l 621 107 l 740 758 l 827 758 l 669 0 l 576 0 m 462 884 l 223 1136 l 360 1136 l 539 884 l 462 884 z "},"ẃ":{"ha":884,"x_min":57,"x_max":827,"o":"m 57 0 m 576 0 l 441 523 l 313 0 l 215 0 l 57 758 l 144 758 l 266 91 l 388 631 l 491 631 l 621 107 l 740 758 l 827 758 l 669 0 l 576 0 m 333 884 l 513 1136 l 649 1136 l 410 884 l 333 884 z "},"ẅ":{"ha":884,"x_min":57,"x_max":827,"o":"m 57 0 m 576 0 l 441 523 l 313 0 l 215 0 l 57 758 l 144 758 l 266 91 l 388 631 l 491 631 l 621 107 l 740 758 l 827 758 l 669 0 l 576 0 m 304 912 q 256 924 274 912 q 237 968 237 936 l 237 977 q 256 1024 237 1011 q 304 1037 274 1037 q 353 1024 335 1037 q 371 977 371 1011 l 371 968 q 352 924 371 936 q 304 912 333 912 m 580 912 q 531 924 549 912 q 513 968 513 936 l 513 977 q 531 1024 513 1011 q 580 1037 549 1037 q 628 1024 610 1037 q 646 977 646 1011 l 646 968 q 628 924 646 936 q 580 912 609 912 z "},"x":{"ha":884,"x_min":128,"x_max":756,"o":"m 652 0 l 436 318 l 223 0 l 128 0 l 390 385 l 136 758 l 236 758 l 446 448 l 660 758 l 756 758 l 491 383 l 751 0 l 652 0 z "},"y":{"ha":884,"x_min":112,"x_max":770,"o":"m 218 -260 q 171 -258 196 -260 q 117 -249 146 -255 l 131 -170 q 182 -179 159 -177 q 232 -182 206 -182 q 335 -148 294 -182 q 408 -29 376 -115 l 419 0 l 391 0 l 112 758 l 207 758 l 447 81 l 679 758 l 770 758 l 482 -44 q 378 -210 441 -159 q 218 -260 314 -260 z "},"":{"ha":884,"x_min":112,"x_max":770,"o":"m 218 -260 q 171 -258 196 -260 q 117 -249 146 -255 l 131 -170 q 182 -179 159 -177 q 232 -182 206 -182 q 335 -148 294 -182 q 408 -29 376 -115 l 419 0 l 391 0 l 112 758 l 207 758 l 447 81 l 679 758 l 770 758 l 482 -44 q 378 -210 441 -159 q 218 -260 314 -260 z "},"ý":{"ha":884,"x_min":112,"x_max":770,"o":"m 112 0 m 218 -260 q 171 -258 196 -260 q 117 -249 146 -255 l 131 -170 q 182 -179 159 -177 q 232 -182 206 -182 q 335 -148 294 -182 q 408 -29 376 -115 l 419 0 l 391 0 l 112 758 l 207 758 l 447 81 l 679 758 l 770 758 l 482 -44 q 378 -210 441 -159 q 218 -260 314 -260 m 333 884 l 513 1136 l 649 1136 l 410 884 l 333 884 z "},"ÿ":{"ha":884,"x_min":112,"x_max":770,"o":"m 112 0 m 218 -260 q 171 -258 196 -260 q 117 -249 146 -255 l 131 -170 q 182 -179 159 -177 q 232 -182 206 -182 q 335 -148 294 -182 q 408 -29 376 -115 l 419 0 l 391 0 l 112 758 l 207 758 l 447 81 l 679 758 l 770 758 l 482 -44 q 378 -210 441 -159 q 218 -260 314 -260 m 304 912 q 256 924 274 912 q 237 968 237 936 l 237 977 q 256 1024 237 1011 q 304 1037 274 1037 q 353 1024 335 1037 q 371 977 371 1011 l 371 968 q 352 924 371 936 q 304 912 333 912 m 580 912 q 531 924 549 912 q 513 968 513 936 l 513 977 q 531 1024 513 1011 q 580 1037 549 1037 q 628 1024 610 1037 q 646 977 646 1011 l 646 968 q 628 924 646 936 q 580 912 609 912 z "},"ŷ":{"ha":884,"x_min":112,"x_max":770,"o":"m 112 0 m 218 -260 q 171 -258 196 -260 q 117 -249 146 -255 l 131 -170 q 182 -179 159 -177 q 232 -182 206 -182 q 335 -148 294 -182 q 408 -29 376 -115 l 419 0 l 391 0 l 112 758 l 207 758 l 447 81 l 679 758 l 770 758 l 482 -44 q 378 -210 441 -159 q 218 -260 314 -260 m 226 903 l 192 956 l 410 1158 l 471 1158 l 692 956 l 657 903 l 441 1073 l 226 903 z "},"ỳ":{"ha":884,"x_min":112,"x_max":770,"o":"m 112 0 m 218 -260 q 171 -258 196 -260 q 117 -249 146 -255 l 131 -170 q 182 -179 159 -177 q 232 -182 206 -182 q 335 -148 294 -182 q 408 -29 376 -115 l 419 0 l 391 0 l 112 758 l 207 758 l 447 81 l 679 758 l 770 758 l 482 -44 q 378 -210 441 -159 q 218 -260 314 -260 m 462 884 l 223 1136 l 360 1136 l 539 884 l 462 884 z "},"z":{"ha":884,"x_min":170,"x_max":713,"o":"m 713 0 l 170 0 l 170 80 l 609 678 l 170 678 l 170 758 l 713 758 l 713 678 l 274 80 l 713 80 l 713 0 z "},"ź":{"ha":884,"x_min":170,"x_max":713,"o":"m 170 0 m 713 0 l 170 0 l 170 80 l 609 678 l 170 678 l 170 758 l 713 758 l 713 678 l 274 80 l 713 80 l 713 0 m 333 884 l 513 1136 l 649 1136 l 410 884 l 333 884 z "},"ż":{"ha":884,"x_min":170,"x_max":713,"o":"m 170 0 m 713 0 l 170 0 l 170 80 l 609 678 l 170 678 l 170 758 l 713 758 l 713 678 l 274 80 l 713 80 l 713 0 m 442 912 q 384 924 407 912 q 361 968 361 936 l 361 977 q 384 1024 361 1011 q 442 1037 407 1037 q 500 1024 477 1037 q 523 977 523 1011 l 523 968 q 500 924 523 936 q 442 912 477 912 z "},"ž":{"ha":884,"x_min":170,"x_max":713,"o":"m 170 0 m 713 0 l 170 0 l 170 80 l 609 678 l 170 678 l 170 758 l 713 758 l 713 678 l 274 80 l 713 80 l 713 0 m 412 889 l 192 1091 l 226 1144 l 442 973 l 657 1144 l 692 1091 l 472 889 l 412 889 z "},"ª":{"ha":884,"x_min":155,"x_max":742,"o":"m 366 475 q 471 496 426 475 q 545 558 516 518 l 545 669 l 357 669 q 265 648 297 669 q 234 580 234 628 q 265 501 234 527 q 366 475 297 475 m 348 405 q 210 448 265 405 q 155 573 155 491 q 206 688 155 646 q 326 730 258 730 l 545 730 l 545 812 q 508 916 545 879 q 396 953 470 953 q 294 932 327 953 q 241 845 261 912 l 173 866 q 245 984 191 946 q 399 1023 299 1023 q 562 972 501 1023 q 622 824 622 922 l 622 572 q 648 496 622 513 q 742 489 674 480 l 742 412 q 626 426 667 405 q 581 515 585 446 l 567 515 q 479 436 534 467 q 348 405 423 405 z "},"º":{"ha":884,"x_min":184,"x_max":698,"o":"m 442 405 q 253 465 321 405 q 184 639 184 524 l 184 783 q 253 961 184 900 q 442 1023 321 1023 q 631 961 563 1023 q 698 783 698 900 l 698 639 q 630 465 698 524 q 442 405 562 405 m 442 479 q 574 517 532 479 q 617 639 617 556 l 617 783 q 574 909 617 869 q 442 949 532 949 q 308 909 351 949 q 265 783 265 869 l 265 639 q 308 517 265 556 q 442 479 351 479 z "},"ß":{"ha":884,"x_min":82,"x_max":841,"o":"m 585 -8 q 440 19 509 -8 q 324 95 371 45 l 371 164 q 472 97 417 121 q 588 72 527 72 q 708 102 663 72 q 753 197 753 133 q 713 289 753 260 q 577 338 674 318 q 388 414 446 366 q 330 545 330 462 q 408 691 330 636 q 604 749 486 745 q 542 891 598 845 q 385 938 486 938 q 229 883 287 938 q 170 711 170 828 l 170 0 l 82 0 l 82 727 q 168 944 82 869 q 386 1020 254 1020 q 609 943 527 1020 q 692 735 692 865 l 692 681 q 487 652 558 681 q 417 553 417 622 q 462 468 417 495 q 614 419 508 441 q 788 344 735 395 q 841 203 841 293 q 768 46 841 100 q 585 -8 694 -8 z "},"æ":{"ha":884,"x_min":53,"x_max":831,"o":"m 827 165 q 764 31 811 74 q 622 -13 717 -13 q 512 17 558 -13 q 442 101 466 47 l 429 101 q 349 20 395 52 q 239 -13 303 -13 q 107 42 160 -13 q 53 203 53 96 q 105 350 53 295 q 232 405 157 405 l 407 405 l 407 525 q 374 650 407 604 q 277 696 342 696 q 191 670 217 696 q 145 574 165 645 l 73 597 q 140 725 90 679 q 279 770 189 770 q 384 742 338 770 q 449 663 431 715 q 517 742 472 713 q 617 770 562 770 q 773 708 715 770 q 831 514 831 645 l 831 365 l 485 365 l 485 230 q 517 99 485 139 q 616 59 549 59 q 708 85 681 59 q 749 178 736 110 l 827 165 m 485 523 l 485 429 l 747 429 l 747 511 q 715 654 747 610 q 616 698 682 698 q 518 655 552 698 q 485 523 485 612 m 407 148 l 407 342 l 268 342 q 171 311 206 342 q 136 211 136 279 q 164 96 136 135 q 254 57 192 57 q 338 82 301 57 q 407 148 376 107 z "},"ǽ":{"ha":884,"x_min":53,"x_max":831,"o":"m 53 0 m 827 165 q 764 31 811 74 q 622 -13 717 -13 q 512 17 558 -13 q 442 101 466 47 l 429 101 q 349 20 395 52 q 239 -13 303 -13 q 107 42 160 -13 q 53 203 53 96 q 105 350 53 295 q 232 405 157 405 l 407 405 l 407 525 q 374 650 407 604 q 277 696 342 696 q 191 670 217 696 q 145 574 165 645 l 73 597 q 140 725 90 679 q 279 770 189 770 q 384 742 338 770 q 449 663 431 715 q 517 742 472 713 q 617 770 562 770 q 773 708 715 770 q 831 514 831 645 l 831 365 l 485 365 l 485 230 q 517 99 485 139 q 616 59 549 59 q 708 85 681 59 q 749 178 736 110 l 827 165 m 485 523 l 485 429 l 747 429 l 747 511 q 715 654 747 610 q 616 698 682 698 q 518 655 552 698 q 485 523 485 612 m 407 148 l 407 342 l 268 342 q 171 311 206 342 q 136 211 136 279 q 164 96 136 135 q 254 57 192 57 q 338 82 301 57 q 407 148 376 107 m 398 884 l 577 1136 l 713 1136 l 475 884 l 398 884 z "},"ð":{"ha":884,"x_min":145,"x_max":802,"o":"m 442 -13 q 227 59 309 -13 q 145 278 145 131 l 145 369 q 224 561 145 490 q 429 631 303 631 q 569 602 514 631 q 644 530 624 572 l 662 530 q 633 686 657 616 q 566 809 610 755 l 335 705 l 335 775 l 516 857 q 411 925 472 896 q 273 973 350 953 l 297 1037 q 463 975 390 1013 q 587 890 535 938 l 802 987 l 802 917 l 634 841 q 713 682 688 773 q 739 476 739 591 l 739 285 q 657 59 739 130 q 442 -13 574 -13 m 443 67 q 602 117 553 67 q 650 275 650 168 l 650 355 q 602 503 650 456 q 443 551 553 551 q 285 503 333 551 q 236 355 236 456 l 236 275 q 285 117 236 168 q 443 67 333 67 z "},"ø":{"ha":884,"x_min":145,"x_max":739,"o":"m 234 274 q 245 186 234 223 q 278 124 256 148 l 551 670 q 501 686 529 681 q 442 691 473 691 q 285 640 336 691 q 234 479 234 588 l 234 274 m 442 67 q 599 116 548 67 q 650 274 650 164 l 650 479 q 639 568 650 529 q 606 631 628 606 l 333 86 q 383 72 355 77 q 442 67 410 67 m 442 -13 q 367 -6 403 -13 q 301 13 332 0 l 242 -107 l 157 -107 l 235 49 q 169 141 192 85 q 145 274 145 197 l 145 479 q 227 698 145 626 q 443 770 308 770 q 518 764 482 770 q 583 745 553 758 l 643 865 l 729 865 l 649 708 q 715 615 692 673 q 739 479 739 557 l 739 274 q 658 57 739 128 q 442 -13 577 -13 z "},"ǿ":{"ha":884,"x_min":145,"x_max":739,"o":"m 145 0 m 234 274 q 245 186 234 223 q 278 124 256 148 l 551 670 q 501 686 529 681 q 442 691 473 691 q 285 640 336 691 q 234 479 234 588 l 234 274 m 442 67 q 599 116 548 67 q 650 274 650 164 l 650 479 q 639 568 650 529 q 606 631 628 606 l 333 86 q 383 72 355 77 q 442 67 410 67 m 442 -13 q 367 -6 403 -13 q 301 13 332 0 l 242 -107 l 157 -107 l 235 49 q 169 141 192 85 q 145 274 145 197 l 145 479 q 227 698 145 626 q 443 770 308 770 q 518 764 482 770 q 583 745 553 758 l 643 865 l 729 865 l 649 708 q 715 615 692 673 q 739 479 739 557 l 739 274 q 658 57 739 128 q 442 -13 577 -13 m 333 884 l 513 1136 l 649 1136 l 410 884 l 333 884 z "},"þ":{"ha":884,"x_min":145,"x_max":739,"o":"m 431 64 q 597 117 544 64 q 650 279 650 169 l 650 484 q 609 639 650 590 q 480 688 567 688 q 350 655 410 688 q 234 552 290 622 l 234 120 q 328 78 280 92 q 431 64 376 64 m 432 -13 q 335 -1 389 -13 q 234 30 282 10 l 234 -253 l 145 -253 l 145 1010 l 234 1010 l 234 631 l 256 631 q 354 734 289 698 q 496 770 419 770 q 674 693 609 770 q 739 482 739 616 l 739 277 q 657 64 739 141 q 432 -13 574 -13 z "},"đ":{"ha":884,"x_min":145,"x_max":865,"o":"m 404 69 q 534 102 475 69 q 650 206 593 135 l 650 574 q 555 616 602 602 q 453 630 508 630 q 287 582 340 630 q 235 431 235 534 l 235 265 q 276 117 235 164 q 404 69 317 69 m 628 119 q 527 22 588 57 q 384 -13 466 -13 q 208 59 270 -13 q 145 260 145 130 l 145 433 q 225 635 145 563 q 452 707 306 707 q 551 695 499 707 q 650 662 604 683 l 650 809 l 398 809 l 398 884 l 650 884 l 650 1010 l 739 1010 l 739 884 l 865 884 l 865 809 l 739 809 l 739 0 l 650 0 l 650 119 l 628 119 z "},"ħ":{"ha":884,"x_min":19,"x_max":739,"o":"m 234 485 l 234 0 l 145 0 l 145 809 l 19 809 l 19 884 l 145 884 l 145 1010 l 234 1010 l 234 884 l 486 884 l 486 809 l 234 809 l 234 568 l 256 568 q 360 672 298 636 q 501 707 422 707 q 672 644 605 707 q 739 468 739 581 l 739 0 l 650 0 l 650 448 q 605 581 650 537 q 482 625 559 625 q 356 591 417 625 q 234 485 295 557 z "},"ı":{"ha":884,"x_min":145,"x_max":739,"o":"m 145 0 l 145 80 l 398 80 l 398 678 l 145 678 l 145 758 l 486 758 l 486 80 l 739 80 l 739 0 l 145 0 z "},"ĳ":{"ha":884,"x_min":134,"x_max":770,"o":"m 215 912 q 157 924 179 912 q 134 968 134 937 l 134 977 q 157 1023 134 1010 q 215 1037 179 1037 q 273 1023 250 1037 q 295 977 295 1010 l 295 968 q 273 924 295 937 q 215 912 250 912 m 689 912 q 631 924 653 912 q 609 968 609 937 l 609 977 q 631 1023 609 1010 q 689 1037 653 1037 q 747 1023 725 1037 q 770 977 770 1010 l 770 968 q 747 924 770 937 q 689 912 725 912 m 259 0 l 170 0 l 170 758 l 259 758 l 259 0 m 494 -263 q 416 -256 455 -263 q 338 -236 378 -250 l 357 -154 q 426 -174 393 -169 q 490 -179 458 -179 q 609 -134 567 -179 q 652 5 652 -90 l 652 678 l 486 678 l 486 758 l 740 758 l 740 -8 q 672 -198 740 -133 q 494 -263 605 -263 z "},"ĸ":{"ha":884,"x_min":208,"x_max":758,"o":"m 208 0 m 297 360 l 297 0 l 208 0 l 208 758 l 297 758 l 297 437 l 399 437 l 650 758 l 758 758 l 471 404 l 754 0 l 653 0 l 400 360 l 297 360 z "},"ŀ":{"ha":884,"x_min":145,"x_max":927,"o":"m 145 0 m 145 0 l 145 80 l 398 80 l 398 931 l 145 931 l 145 1010 l 486 1010 l 486 80 l 739 80 l 739 0 l 145 0 m 846 407 q 788 419 811 407 q 765 463 765 431 l 765 472 q 788 519 765 506 q 846 532 811 532 q 904 519 881 532 q 927 472 927 506 l 927 463 q 904 419 927 431 q 846 407 881 407 z "},"ł":{"ha":884,"x_min":145,"x_max":739,"o":"m 189 407 l 189 481 l 694 620 l 694 545 l 189 407 m 145 0 l 145 80 l 398 80 l 398 931 l 145 931 l 145 1010 l 486 1010 l 486 80 l 739 80 l 739 0 l 145 0 z "},"ŉ":{"ha":884,"x_min":18,"x_max":739,"o":"m 18 0 m 145 0 l 145 758 l 234 758 l 234 631 l 256 631 q 354 733 288 696 q 497 770 419 770 q 674 703 609 770 q 739 519 739 635 l 739 0 l 650 0 l 650 501 q 607 640 650 592 q 482 687 564 687 q 354 653 417 687 q 234 552 292 619 l 234 0 l 145 0 m 18 884 l 197 1136 l 333 1136 l 95 884 l 18 884 z "},"ŋ":{"ha":884,"x_min":145,"x_max":739,"o":"m 501 -263 q 434 -256 470 -263 q 361 -239 399 -250 l 380 -155 q 446 -174 414 -168 q 505 -179 477 -179 q 610 -135 571 -179 q 650 9 650 -91 l 650 510 q 608 643 650 597 q 482 688 566 688 q 354 655 414 688 q 234 552 293 621 l 234 0 l 145 0 l 145 758 l 234 758 l 234 631 l 256 631 q 354 734 288 697 q 508 770 420 770 q 677 704 615 770 q 739 523 739 638 l 739 -8 q 671 -200 739 -138 q 501 -263 604 -263 z "},"œ":{"ha":884,"x_min":53,"x_max":831,"o":"m 827 158 q 755 30 804 73 q 619 -13 706 -13 q 507 19 556 -13 q 441 109 458 51 q 369 19 417 51 q 263 -13 322 -13 q 109 59 164 -13 q 53 274 53 131 l 53 479 q 109 696 53 622 q 264 770 165 770 q 372 741 323 770 q 441 654 420 711 q 510 740 465 710 q 614 770 556 770 q 773 699 716 770 q 831 487 831 628 l 831 365 l 481 365 l 481 256 q 513 105 481 152 q 612 59 545 59 q 701 85 673 59 q 749 173 729 110 l 827 158 m 481 496 l 481 429 l 747 429 l 747 485 q 714 646 747 596 q 612 697 681 697 q 515 648 548 697 q 481 496 481 598 m 268 62 q 369 111 336 62 q 403 274 403 160 l 403 479 q 369 643 403 590 q 268 696 336 696 q 169 643 202 696 q 136 479 136 590 l 136 274 q 169 111 136 160 q 268 62 202 62 z "},"ŧ":{"ha":884,"x_min":107,"x_max":753,"o":"m 128 372 l 128 452 l 720 452 l 720 372 l 128 372 m 574 -11 q 389 52 456 -11 q 322 237 322 116 l 322 678 l 107 678 l 107 758 l 322 758 l 322 1010 l 410 1010 l 410 758 l 739 758 l 739 678 l 410 678 l 410 249 q 453 114 410 158 q 582 71 495 71 q 658 79 619 71 q 735 100 697 87 l 753 20 q 667 -3 712 5 q 574 -11 621 -11 z "},"ſ":{"ha":884,"x_min":246,"x_max":742,"o":"m 398 0 l 398 678 l 246 678 l 246 758 l 398 758 l 398 808 q 456 967 398 910 q 597 1023 514 1023 q 673 1014 633 1023 q 742 992 713 1005 l 725 918 q 666 936 698 928 q 601 943 634 943 q 517 912 548 943 q 486 809 486 880 l 486 0 l 398 0 z "},"ȷ":{"ha":884,"x_min":145,"x_max":612,"o":"m 333 -263 q 239 -256 287 -263 q 145 -236 192 -249 l 164 -153 q 249 -174 207 -168 q 330 -179 290 -179 q 474 -131 424 -179 q 524 20 524 -82 l 524 678 l 170 678 l 170 758 l 612 758 l 612 8 q 536 -193 612 -124 q 333 -263 460 -263 z "},"":{"ha":884,"x_min":145,"x_max":612,"o":"m 333 -263 q 239 -256 287 -263 q 145 -236 192 -249 l 164 -153 q 249 -174 207 -168 q 330 -179 290 -179 q 474 -131 424 -179 q 524 20 524 -82 l 524 678 l 170 678 l 170 758 l 612 758 l 612 8 q 536 -193 612 -124 q 333 -263 460 -263 z "},"α":{"ha":884,"x_min":133,"x_max":835,"o":"m 386 71 q 504 105 451 71 q 612 206 558 139 l 612 552 q 504 653 558 619 q 386 687 451 687 q 264 633 304 687 q 223 470 223 578 l 223 288 q 265 125 223 179 q 386 71 306 71 m 635 139 l 612 139 q 510 27 569 66 q 370 -13 451 -13 q 196 64 260 -13 q 133 275 133 140 l 133 482 q 196 694 133 617 q 370 770 260 770 q 495 733 438 770 q 590 631 552 696 l 612 631 l 612 758 l 701 758 l 701 202 q 731 90 701 115 q 835 78 761 66 l 835 -4 q 691 16 740 -16 q 635 139 641 49 z "},"ά":{"ha":884,"x_min":133,"x_max":835,"o":"m 133 0 m 386 71 q 504 105 451 71 q 612 206 558 139 l 612 552 q 504 653 558 619 q 386 687 451 687 q 264 633 304 687 q 223 470 223 578 l 223 288 q 265 125 223 179 q 386 71 306 71 m 635 139 l 612 139 q 510 27 569 66 q 370 -13 451 -13 q 196 64 260 -13 q 133 275 133 140 l 133 482 q 196 694 133 617 q 370 770 260 770 q 495 733 438 770 q 590 631 552 696 l 612 631 l 612 758 l 701 758 l 701 202 q 731 90 701 115 q 835 78 761 66 l 835 -4 q 691 16 740 -16 q 635 139 641 49 m 427 884 l 530 1136 l 662 1136 l 499 884 l 427 884 z "},"β":{"ha":884,"x_min":145,"x_max":739,"o":"m 431 64 q 595 115 542 64 q 648 271 648 165 l 648 324 q 598 458 648 415 q 442 501 548 501 l 378 501 l 378 578 l 434 578 q 569 617 525 578 q 612 736 612 655 l 612 759 q 568 898 612 854 q 429 943 524 943 q 281 890 328 943 q 234 727 234 837 l 234 114 q 324 76 277 88 q 431 64 372 64 m 432 -13 q 328 -2 380 -13 q 234 27 275 9 l 234 -253 l 145 -253 l 145 723 q 223 946 145 870 q 429 1023 302 1023 q 624 957 551 1023 q 698 774 698 891 l 698 741 q 662 618 698 668 q 553 556 625 568 l 553 534 q 689 468 640 525 q 739 328 737 412 l 739 269 q 650 59 739 130 q 432 -13 562 -13 z "},"γ":{"ha":884,"x_min":112,"x_max":770,"o":"m 492 -253 l 391 -253 l 399 19 l 112 758 l 210 758 l 444 130 l 673 758 l 770 758 l 485 19 l 492 -253 z "},"δ":{"ha":884,"x_min":145,"x_max":739,"o":"m 442 -13 q 224 59 303 -13 q 145 274 145 131 l 145 390 q 192 528 145 467 q 328 628 239 588 q 216 706 251 660 q 181 821 181 753 q 243 963 181 915 q 423 1010 306 1010 l 653 1010 l 653 931 l 423 931 q 306 906 346 931 q 265 822 265 881 q 306 732 265 764 q 485 658 347 701 q 685 557 631 612 q 739 403 739 503 l 739 274 q 660 59 739 131 q 442 -13 581 -13 m 442 67 q 600 116 549 67 q 650 274 650 164 l 650 403 q 600 519 650 480 q 394 602 551 558 q 275 513 316 567 q 234 390 234 460 l 234 274 q 284 116 234 164 q 442 67 335 67 z "},"ε":{"ha":884,"x_min":121,"x_max":759,"o":"m 447 -13 q 201 42 280 -13 q 121 211 121 96 l 121 223 q 165 345 121 293 q 299 402 210 396 l 299 415 q 186 458 227 420 q 144 561 144 496 l 144 578 q 216 723 144 677 q 439 770 288 770 q 655 719 583 770 q 736 559 727 668 l 649 552 q 592 660 640 628 q 439 692 544 692 q 279 665 326 692 q 232 571 232 638 l 232 553 q 279 471 232 495 q 437 447 326 447 l 508 447 l 508 375 l 437 375 q 259 345 308 375 q 210 236 210 316 l 210 223 q 264 102 210 138 q 447 66 318 66 q 610 101 559 66 q 672 220 662 136 l 759 212 q 674 42 750 96 q 447 -13 598 -13 z "},"έ":{"ha":884,"x_min":121,"x_max":759,"o":"m 121 0 m 447 -13 q 201 42 280 -13 q 121 211 121 96 l 121 223 q 165 345 121 293 q 299 402 210 396 l 299 415 q 186 458 227 420 q 144 561 144 496 l 144 578 q 216 723 144 677 q 439 770 288 770 q 655 719 583 770 q 736 559 727 668 l 649 552 q 592 660 640 628 q 439 692 544 692 q 279 665 326 692 q 232 571 232 638 l 232 553 q 279 471 232 495 q 437 447 326 447 l 508 447 l 508 375 l 437 375 q 259 345 308 375 q 210 236 210 316 l 210 223 q 264 102 210 138 q 447 66 318 66 q 610 101 559 66 q 672 220 662 136 l 759 212 q 674 42 750 96 q 447 -13 598 -13 m 364 884 l 467 1136 l 598 1136 l 436 884 l 364 884 z "},"ζ":{"ha":884,"x_min":122,"x_max":773,"o":"m 532 -253 l 398 -253 l 398 -173 l 537 -173 q 626 -148 596 -173 q 657 -64 657 -122 q 626 19 657 -6 q 537 44 596 44 l 429 44 q 213 122 287 44 q 139 319 139 199 q 167 458 139 391 q 251 591 194 524 l 448 824 l 443 838 q 229 878 312 826 q 122 1020 146 929 l 201 1038 q 308 924 218 957 q 516 926 398 890 l 735 1028 l 773 929 l 571 860 l 318 552 q 248 441 269 490 q 227 326 227 393 q 279 177 227 231 q 429 124 331 124 l 535 124 q 684 76 630 124 q 739 -64 739 28 q 683 -203 739 -154 q 532 -253 628 -253 z "},"η":{"ha":884,"x_min":145,"x_max":739,"o":"m 650 -253 l 650 511 q 608 643 650 598 q 482 687 566 687 q 354 653 415 687 q 234 552 292 620 l 234 0 l 145 0 l 145 758 l 234 758 l 234 631 l 256 631 q 355 733 288 696 q 501 770 422 770 q 674 705 610 770 q 739 530 739 640 l 739 -253 l 650 -253 z "},"ή":{"ha":884,"x_min":145,"x_max":739,"o":"m 145 0 m 650 -253 l 650 511 q 608 643 650 598 q 482 687 566 687 q 354 653 415 687 q 234 552 292 620 l 234 0 l 145 0 l 145 758 l 234 758 l 234 631 l 256 631 q 355 733 288 696 q 501 770 422 770 q 674 705 610 770 q 739 530 739 640 l 739 -253 l 650 -253 m 364 884 l 467 1136 l 598 1136 l 436 884 l 364 884 z "},"θ":{"ha":884,"x_min":145,"x_max":739,"o":"m 442 -13 q 224 60 303 -13 q 145 274 145 133 l 145 731 q 225 948 145 874 q 443 1023 304 1023 q 660 948 581 1023 q 739 731 739 874 l 739 274 q 660 60 739 133 q 442 -13 581 -13 m 234 731 l 234 553 l 650 553 l 650 731 q 599 891 650 838 q 442 943 548 943 q 285 891 336 943 q 234 731 234 838 m 442 67 q 599 118 548 67 q 650 274 650 169 l 650 473 l 234 473 l 234 274 q 285 118 234 169 q 442 67 336 67 z "},"ι":{"ha":884,"x_min":120,"x_max":761,"o":"m 120 0 m 610 -6 q 454 61 510 -6 q 398 245 398 128 l 398 678 l 120 678 l 120 758 l 486 758 l 486 244 q 517 117 486 160 q 611 74 548 74 q 677 82 640 74 q 741 101 715 90 l 761 24 q 693 3 731 11 q 610 -6 654 -6 z "},"ΐ":{"ha":884,"x_min":120,"x_max":761,"o":"m 120 0 m 610 -6 q 454 61 510 -6 q 398 245 398 128 l 398 678 l 120 678 l 120 758 l 486 758 l 486 244 q 517 117 486 160 q 611 74 548 74 q 677 82 640 74 q 741 101 715 90 l 761 24 q 693 3 731 11 q 610 -6 654 -6 m 356 884 l 429 1136 l 535 1136 l 418 884 l 356 884 m 208 899 q 169 911 184 899 q 154 956 154 923 l 154 965 q 169 1011 154 999 q 208 1024 184 1024 q 247 1011 232 1024 q 263 965 263 999 l 263 956 q 247 911 263 923 q 208 899 232 899 m 650 899 q 611 911 626 899 q 596 956 596 923 l 596 965 q 611 1011 596 999 q 650 1024 626 1024 q 689 1011 674 1024 q 705 965 705 999 l 705 956 q 689 911 705 923 q 650 899 674 899 z "},"ί":{"ha":884,"x_min":120,"x_max":761,"o":"m 120 0 m 610 -6 q 454 61 510 -6 q 398 245 398 128 l 398 678 l 120 678 l 120 758 l 486 758 l 486 244 q 517 117 486 160 q 611 74 548 74 q 677 82 640 74 q 741 101 715 90 l 761 24 q 693 3 731 11 q 610 -6 654 -6 m 357 884 l 461 1136 l 592 1136 l 429 884 l 357 884 z "},"ϊ":{"ha":884,"x_min":120,"x_max":761,"o":"m 120 0 m 610 -6 q 454 61 510 -6 q 398 245 398 128 l 398 678 l 120 678 l 120 758 l 486 758 l 486 244 q 517 117 486 160 q 611 74 548 74 q 677 82 640 74 q 741 101 715 90 l 761 24 q 693 3 731 11 q 610 -6 654 -6 m 298 912 q 249 924 268 912 q 231 968 231 936 l 231 977 q 249 1024 231 1011 q 298 1037 268 1037 q 347 1024 328 1037 q 365 977 365 1011 l 365 968 q 346 924 365 936 q 298 912 327 912 m 573 912 q 525 924 543 912 q 506 968 506 936 l 506 977 q 525 1024 506 1011 q 573 1037 543 1037 q 622 1024 604 1037 q 640 977 640 1011 l 640 968 q 621 924 640 936 q 573 912 602 912 z "},"κ":{"ha":884,"x_min":208,"x_max":758,"o":"m 297 360 l 297 0 l 208 0 l 208 758 l 297 758 l 297 437 l 399 437 l 650 758 l 758 758 l 471 404 l 754 0 l 653 0 l 400 360 l 297 360 z "},"λ":{"ha":884,"x_min":112,"x_max":770,"o":"m 677 0 l 444 677 l 205 0 l 112 0 l 391 758 l 417 758 l 403 794 q 336 905 374 871 q 234 939 299 939 q 182 936 206 939 q 131 927 159 933 l 117 1006 q 170 1015 144 1011 q 220 1018 196 1018 q 374 973 311 1018 q 475 823 437 928 l 770 0 l 677 0 z "},"μ":{"ha":884,"x_min":136,"x_max":814,"o":"m 234 25 l 242 -253 l 136 -253 l 145 25 l 145 758 l 234 758 l 234 247 q 279 115 234 159 q 402 71 324 71 q 513 96 465 71 q 600 168 561 121 l 600 758 l 688 758 l 688 202 q 717 90 688 115 q 814 78 745 66 l 814 -4 q 687 14 731 -16 q 636 119 643 44 l 619 119 q 530 29 588 71 q 393 -13 472 -13 q 302 9 342 -13 q 234 71 261 32 l 234 25 z "},"ν":{"ha":884,"x_min":112,"x_max":770,"o":"m 481 0 l 402 0 l 112 758 l 206 758 l 453 72 q 612 420 552 245 q 686 758 672 595 l 770 758 q 676 376 749 562 q 481 0 602 191 z "},"ξ":{"ha":884,"x_min":67,"x_max":764,"o":"m 764 -64 q 710 -205 764 -157 q 556 -253 655 -253 l 404 -253 l 404 -173 l 562 -173 q 652 -149 622 -173 q 682 -64 682 -125 q 652 20 682 -5 q 562 44 622 44 l 429 44 q 223 104 301 44 q 145 261 145 163 l 145 295 q 204 440 145 380 q 369 508 263 500 l 369 523 q 261 564 301 523 q 221 669 221 605 q 252 766 221 722 q 341 832 283 809 l 340 848 q 159 896 231 850 q 67 1020 87 942 l 145 1038 q 252 937 165 967 q 458 927 338 907 l 720 1028 l 758 929 l 484 854 l 399 811 q 331 752 354 787 q 309 672 309 717 q 342 582 309 611 q 428 553 374 553 l 650 553 l 650 473 l 431 473 q 283 431 332 473 q 234 314 234 388 l 234 280 q 283 165 234 207 q 429 124 332 124 l 561 124 q 711 77 659 124 q 764 -64 764 30 z "},"ο":{"ha":884,"x_min":145,"x_max":739,"o":"m 145 0 m 442 -13 q 222 61 299 -13 q 145 274 145 135 l 145 479 q 223 695 145 620 q 443 770 301 770 q 662 695 586 770 q 739 479 739 620 l 739 274 q 662 61 739 135 q 442 -13 585 -13 m 442 67 q 599 117 548 67 q 650 274 650 168 l 650 479 q 599 639 650 587 q 442 691 548 691 q 285 639 336 691 q 234 479 234 587 l 234 274 q 285 117 234 168 q 442 67 336 67 z "},"ό":{"ha":884,"x_min":145,"x_max":739,"o":"m 145 0 m 442 -13 q 222 61 299 -13 q 145 274 145 135 l 145 479 q 223 695 145 620 q 443 770 301 770 q 662 695 586 770 q 739 479 739 620 l 739 274 q 662 61 739 135 q 442 -13 585 -13 m 442 67 q 599 117 548 67 q 650 274 650 168 l 650 479 q 599 639 650 587 q 442 691 548 691 q 285 639 336 691 q 234 479 234 587 l 234 274 q 285 117 234 168 q 442 67 336 67 m 364 884 l 467 1136 l 598 1136 l 436 884 l 364 884 z "},"π":{"ha":884,"x_min":69,"x_max":777,"o":"m 777 758 l 777 678 l 625 678 l 625 174 q 657 86 625 106 q 777 78 689 67 l 777 -4 q 594 21 652 -18 q 537 158 537 59 l 537 678 l 284 678 l 284 0 l 196 0 l 196 678 l 69 678 l 69 758 l 777 758 z "},"ρ":{"ha":884,"x_min":145,"x_max":739,"o":"m 480 73 q 609 126 567 73 q 650 288 650 179 l 650 479 q 599 638 650 586 q 442 691 548 691 q 285 638 336 691 q 234 479 234 586 l 234 206 q 348 105 288 138 q 480 73 409 73 m 145 -253 l 145 479 q 225 696 145 621 q 443 770 304 770 q 660 696 581 770 q 739 479 739 621 l 739 275 q 673 62 739 138 q 492 -13 607 -13 q 356 24 417 -13 q 256 126 295 61 l 234 126 l 234 -253 l 145 -253 z "},"ς":{"ha":884,"x_min":145,"x_max":744,"o":"m 384 -253 l 384 -173 l 542 -173 q 633 -152 604 -173 q 662 -72 662 -130 q 633 4 662 -18 q 542 25 604 25 l 434 25 q 215 100 284 25 q 145 324 145 174 l 145 476 q 218 696 145 622 q 446 770 290 770 q 653 710 587 770 q 727 516 718 650 l 648 511 q 597 650 643 610 q 444 689 551 689 q 282 642 331 689 q 234 484 234 595 l 234 312 q 280 153 234 201 q 434 106 326 106 l 542 106 q 692 62 640 106 q 744 -72 744 19 q 691 -208 744 -163 q 538 -253 638 -253 l 384 -253 z "},"σ":{"ha":884,"x_min":145,"x_max":865,"o":"m 417 67 q 554 117 508 67 q 600 274 600 168 l 600 441 q 554 619 600 561 q 417 678 508 678 q 280 626 326 678 q 234 466 234 573 l 234 274 q 280 117 234 168 q 417 67 326 67 m 417 -13 q 218 61 292 -13 q 145 274 145 135 l 145 466 q 219 681 145 605 q 418 758 293 758 l 865 758 l 865 665 l 588 683 q 663 588 638 652 q 688 441 688 525 l 688 274 q 615 61 688 135 q 417 -13 542 -13 z "},"τ":{"ha":884,"x_min":145,"x_max":751,"o":"m 638 -4 q 454 20 510 -16 q 398 152 398 57 l 398 678 l 145 678 l 145 758 l 751 758 l 751 678 l 486 678 l 486 174 q 517 86 486 106 q 638 78 548 67 l 638 -4 z "},"υ":{"ha":884,"x_min":145,"x_max":739,"o":"m 442 -13 q 222 61 298 -13 q 145 274 145 135 l 145 758 l 234 758 l 234 274 q 285 116 234 164 q 442 67 336 67 q 599 116 548 67 q 650 274 650 164 l 650 758 l 739 758 l 739 274 q 662 61 739 135 q 442 -13 586 -13 z "},"ΰ":{"ha":884,"x_min":145,"x_max":739,"o":"m 145 0 m 442 -13 q 222 61 298 -13 q 145 274 145 135 l 145 758 l 234 758 l 234 274 q 285 116 234 164 q 442 67 336 67 q 599 116 548 67 q 650 274 650 164 l 650 758 l 739 758 l 739 274 q 662 61 739 135 q 442 -13 586 -13 m 369 884 l 442 1136 l 548 1136 l 431 884 l 369 884 m 221 899 q 182 911 197 899 q 167 956 167 923 l 167 965 q 182 1011 167 999 q 221 1024 197 1024 q 260 1011 245 1024 q 275 965 275 999 l 275 956 q 260 911 275 923 q 221 899 245 899 m 663 899 q 624 911 639 899 q 609 956 609 923 l 609 965 q 624 1011 609 999 q 663 1024 639 1024 q 702 1011 687 1024 q 717 965 717 999 l 717 956 q 702 911 717 923 q 663 899 687 899 z "},"ϋ":{"ha":884,"x_min":145,"x_max":739,"o":"m 145 0 m 442 -13 q 222 61 298 -13 q 145 274 145 135 l 145 758 l 234 758 l 234 274 q 285 116 234 164 q 442 67 336 67 q 599 116 548 67 q 650 274 650 164 l 650 758 l 739 758 l 739 274 q 662 61 739 135 q 442 -13 586 -13 m 304 912 q 256 924 274 912 q 237 968 237 936 l 237 977 q 256 1024 237 1011 q 304 1037 274 1037 q 353 1024 335 1037 q 371 977 371 1011 l 371 968 q 352 924 371 936 q 304 912 333 912 m 580 912 q 531 924 549 912 q 513 968 513 936 l 513 977 q 531 1024 513 1011 q 580 1037 549 1037 q 628 1024 610 1037 q 646 977 646 1011 l 646 968 q 628 924 646 936 q 580 912 609 912 z "},"ύ":{"ha":884,"x_min":145,"x_max":739,"o":"m 145 0 m 442 -13 q 222 61 298 -13 q 145 274 145 135 l 145 758 l 234 758 l 234 274 q 285 116 234 164 q 442 67 336 67 q 599 116 548 67 q 650 274 650 164 l 650 758 l 739 758 l 739 274 q 662 61 739 135 q 442 -13 586 -13 m 364 884 l 467 1136 l 598 1136 l 436 884 l 364 884 z "},"φ":{"ha":884,"x_min":87,"x_max":797,"o":"m 484 -253 l 400 -253 l 400 -10 q 172 92 258 3 q 87 340 87 182 l 87 441 q 111 624 87 543 q 186 774 135 706 l 265 745 q 197 610 222 686 q 172 441 172 534 l 172 340 q 229 146 172 216 q 400 64 285 77 l 400 758 l 486 758 q 714 667 631 758 q 797 403 797 577 l 797 340 q 711 92 797 182 q 484 -10 626 3 l 484 -253 m 484 683 l 484 64 q 655 146 597 77 q 712 340 712 216 l 712 403 q 655 616 712 548 q 484 683 597 683 z "},"χ":{"ha":884,"x_min":134,"x_max":750,"o":"m 643 -253 l 434 178 l 229 -253 l 134 -253 l 394 255 l 148 758 l 240 758 l 446 335 l 655 758 l 750 758 l 487 255 l 735 -253 l 643 -253 z "},"ψ":{"ha":884,"x_min":87,"x_max":797,"o":"m 484 -253 l 400 -253 l 400 -10 q 165 86 242 1 q 87 314 87 170 l 87 758 l 172 758 l 172 314 q 225 137 172 196 q 400 69 279 78 l 400 758 l 484 758 l 484 69 q 658 137 605 78 q 712 314 712 196 l 712 758 l 797 758 l 797 314 q 719 86 797 170 q 484 -10 641 1 l 484 -253 z "},"ω":{"ha":884,"x_min":87,"x_max":797,"o":"m 273 -13 q 137 69 187 -13 q 87 302 87 152 l 87 408 q 111 622 87 520 q 167 771 135 723 l 244 742 q 197 605 222 699 q 172 408 172 511 l 172 302 q 199 124 172 181 q 287 67 227 67 q 372 114 345 67 q 400 264 400 160 l 400 581 l 484 581 l 484 264 q 511 114 484 160 q 597 67 539 67 q 684 124 657 67 q 712 302 712 181 l 712 408 q 687 605 712 511 q 640 742 662 699 l 717 771 q 772 621 747 722 q 797 408 797 520 l 797 302 q 747 69 797 152 q 611 -13 697 -13 q 509 28 554 -13 q 444 149 465 69 l 437 149 q 373 28 417 69 q 273 -13 330 -13 z "},"ώ":{"ha":884,"x_min":87,"x_max":797,"o":"m 87 0 m 273 -13 q 137 69 187 -13 q 87 302 87 152 l 87 408 q 111 622 87 520 q 167 771 135 723 l 244 742 q 197 605 222 699 q 172 408 172 511 l 172 302 q 199 124 172 181 q 287 67 227 67 q 372 114 345 67 q 400 264 400 160 l 400 581 l 484 581 l 484 264 q 511 114 484 160 q 597 67 539 67 q 684 124 657 67 q 712 302 712 181 l 712 408 q 687 605 712 511 q 640 742 662 699 l 717 771 q 772 621 747 722 q 797 408 797 520 l 797 302 q 747 69 797 152 q 611 -13 697 -13 q 509 28 554 -13 q 444 149 465 69 l 437 149 q 373 28 417 69 q 273 -13 330 -13 m 376 884 l 480 1136 l 611 1136 l 448 884 l 376 884 z "},"а":{"ha":884,"x_min":107,"x_max":827,"o":"m 107 0 m 359 62 q 485 89 428 62 q 587 178 542 116 l 587 337 l 333 337 q 231 310 270 337 q 192 211 192 283 q 232 101 192 140 q 359 62 271 62 m 348 -13 q 176 42 244 -13 q 107 203 107 97 q 166 352 107 298 q 319 407 225 407 l 587 407 l 587 534 q 542 646 587 601 q 407 691 497 691 q 273 662 316 691 q 206 551 231 634 l 128 572 q 221 722 154 674 q 405 770 288 770 q 601 711 527 770 q 676 540 676 653 l 676 202 q 710 90 676 115 q 827 78 744 64 l 827 -4 q 688 11 744 -16 q 625 122 633 38 l 607 122 q 502 25 569 63 q 348 -13 434 -13 z "},"б":{"ha":884,"x_min":145,"x_max":739,"o":"m 442 -13 q 225 62 304 -13 q 145 285 145 138 l 145 653 q 220 878 145 799 q 433 981 295 957 l 683 1025 l 697 948 l 452 907 q 275 824 330 886 q 221 630 221 761 l 221 581 l 237 581 q 321 654 261 626 q 470 682 380 682 q 669 612 600 682 q 739 419 739 543 l 739 278 q 659 61 739 135 q 442 -13 580 -13 m 441 67 q 599 117 551 67 q 648 275 648 168 l 648 405 q 599 554 648 506 q 441 601 551 601 q 282 554 331 601 q 234 405 234 506 l 234 275 q 282 117 234 168 q 441 67 331 67 z "},"в":{"ha":884,"x_min":145,"x_max":763,"o":"m 145 0 l 145 758 l 437 758 q 666 713 592 758 q 740 572 740 668 l 740 554 q 700 449 740 485 q 582 408 660 413 l 582 393 q 718 343 674 386 q 763 222 763 299 l 763 211 q 684 51 763 102 q 437 0 605 0 l 145 0 m 234 434 l 447 434 q 608 458 564 434 q 652 545 652 482 l 652 563 q 605 655 652 630 q 437 681 559 681 l 234 681 l 234 434 m 234 77 l 437 77 q 623 106 572 77 q 674 215 674 135 l 674 227 q 626 333 674 304 q 447 362 577 362 l 234 362 l 234 77 z "},"г":{"ha":884,"x_min":208,"x_max":751,"o":"m 208 0 l 208 758 l 751 758 l 751 678 l 297 678 l 297 0 l 208 0 z "},"ѓ":{"ha":884,"x_min":208,"x_max":751,"o":"m 208 0 m 208 0 l 208 758 l 751 758 l 751 678 l 297 678 l 297 0 l 208 0 m 428 884 l 607 1136 l 744 1136 l 505 884 l 428 884 z "},"д":{"ha":884,"x_min":69,"x_max":814,"o":"m 249 98 l 249 80 l 607 80 l 607 678 l 321 678 l 317 327 q 301 188 316 239 q 249 98 287 136 m 158 0 l 158 -189 l 69 -189 l 69 80 l 148 80 q 212 171 192 112 q 234 335 232 230 l 237 758 l 696 758 l 696 80 l 814 80 l 814 -189 l 726 -189 l 726 0 l 158 0 z "},"е":{"ha":884,"x_min":145,"x_max":739,"o":"m 145 0 m 735 157 q 637 27 703 67 q 443 -13 571 -13 q 224 60 303 -13 q 145 275 145 133 l 145 479 q 228 698 145 625 q 443 770 311 770 q 658 696 577 770 q 739 470 739 622 l 739 365 l 234 365 l 234 274 q 285 114 234 163 q 442 64 337 64 q 581 92 538 64 q 649 183 625 120 l 735 157 m 234 479 l 234 434 l 650 434 l 650 467 q 598 638 650 585 q 442 692 545 692 q 286 640 338 692 q 234 479 234 588 z "},"ѐ":{"ha":884,"x_min":145,"x_max":739,"o":"m 145 0 m 735 157 q 637 27 703 67 q 443 -13 571 -13 q 224 60 303 -13 q 145 275 145 133 l 145 479 q 228 698 145 625 q 443 770 311 770 q 658 696 577 770 q 739 470 739 622 l 739 365 l 234 365 l 234 274 q 285 114 234 163 q 442 64 337 64 q 581 92 538 64 q 649 183 625 120 l 735 157 m 234 479 l 234 434 l 650 434 l 650 467 q 598 638 650 585 q 442 692 545 692 q 286 640 338 692 q 234 479 234 588 m 463 884 l 225 1136 l 361 1136 l 540 884 l 463 884 z "},"ё":{"ha":884,"x_min":145,"x_max":739,"o":"m 145 0 m 735 157 q 637 27 703 67 q 443 -13 571 -13 q 224 60 303 -13 q 145 275 145 133 l 145 479 q 228 698 145 625 q 443 770 311 770 q 658 696 577 770 q 739 470 739 622 l 739 365 l 234 365 l 234 274 q 285 114 234 163 q 442 64 337 64 q 581 92 538 64 q 649 183 625 120 l 735 157 m 234 479 l 234 434 l 650 434 l 650 467 q 598 638 650 585 q 442 692 545 692 q 286 640 338 692 q 234 479 234 588 m 306 912 q 257 924 275 912 q 239 968 239 936 l 239 977 q 257 1024 239 1011 q 306 1037 275 1037 q 354 1024 336 1037 q 372 977 372 1011 l 372 968 q 354 924 372 936 q 306 912 335 912 m 581 912 q 532 924 551 912 q 514 968 514 936 l 514 977 q 532 1024 514 1011 q 581 1037 551 1037 q 629 1024 611 1037 q 648 977 648 1011 l 648 968 q 629 924 648 936 q 581 912 610 912 z "},"ж":{"ha":884,"x_min":45,"x_max":838,"o":"m 345 370 l 144 0 l 52 0 l 277 407 l 45 758 l 138 758 l 341 439 l 405 439 l 405 758 l 481 758 l 481 439 l 540 439 l 746 758 l 838 758 l 606 409 l 832 0 l 740 0 l 540 370 l 481 370 l 481 0 l 405 0 l 405 370 l 345 370 z "},"з":{"ha":884,"x_min":121,"x_max":763,"o":"m 444 -13 q 207 44 283 -13 q 121 230 131 101 l 208 239 q 271 103 221 140 q 437 66 322 66 q 621 98 568 66 q 674 215 674 131 l 674 227 q 625 335 674 304 q 455 365 576 365 l 391 365 l 391 438 l 455 438 q 607 464 562 438 q 652 554 652 490 l 652 572 q 603 665 652 639 q 437 692 554 692 q 288 658 333 692 q 231 533 242 624 l 144 543 q 223 717 153 664 q 444 770 294 770 q 664 723 587 770 q 740 573 740 676 l 740 556 q 700 450 740 487 q 585 408 660 413 l 585 393 q 718 341 674 386 q 763 220 763 295 l 763 207 q 687 44 763 100 q 444 -13 611 -13 z "},"и":{"ha":884,"x_min":145,"x_max":739,"o":"m 653 0 l 653 634 l 249 0 l 145 0 l 145 758 l 231 758 l 231 119 l 639 758 l 739 758 l 739 0 l 653 0 z "},"й":{"ha":884,"x_min":145,"x_max":739,"o":"m 145 0 m 653 0 l 653 634 l 249 0 l 145 0 l 145 758 l 231 758 l 231 119 l 639 758 l 739 758 l 739 0 l 653 0 m 442 875 q 258 932 333 875 q 182 1131 183 990 l 270 1140 q 312 992 273 1037 q 442 948 351 948 q 572 992 533 948 q 614 1140 611 1037 l 702 1131 q 626 932 701 990 q 442 875 551 875 z "},"ѝ":{"ha":884,"x_min":145,"x_max":739,"o":"m 145 0 m 653 0 l 653 634 l 249 0 l 145 0 l 145 758 l 231 758 l 231 119 l 639 758 l 739 758 l 739 0 l 653 0 m 462 884 l 223 1136 l 360 1136 l 539 884 l 462 884 z "},"к":{"ha":884,"x_min":208,"x_max":758,"o":"m 297 360 l 297 0 l 208 0 l 208 758 l 297 758 l 297 437 l 399 437 l 650 758 l 758 758 l 471 404 l 754 0 l 653 0 l 400 360 l 297 360 z "},"ќ":{"ha":884,"x_min":208,"x_max":758,"o":"m 208 0 m 297 360 l 297 0 l 208 0 l 208 758 l 297 758 l 297 437 l 399 437 l 650 758 l 758 758 l 471 404 l 754 0 l 653 0 l 400 360 l 297 360 m 413 884 l 592 1136 l 729 1136 l 490 884 l 413 884 z "},"л":{"ha":884,"x_min":38,"x_max":739,"o":"m 650 0 l 650 678 l 333 678 l 330 297 q 276 64 328 140 q 125 -13 223 -13 q 79 -9 101 -13 q 38 1 57 -5 l 54 78 q 88 70 73 73 q 120 67 104 67 q 217 122 188 67 q 246 313 245 178 l 250 758 l 739 758 l 739 0 l 650 0 z "},"м":{"ha":884,"x_min":125,"x_max":759,"o":"m 395 189 l 208 653 l 208 0 l 125 0 l 125 758 l 254 758 l 444 273 l 634 758 l 759 758 l 759 0 l 676 0 l 674 652 l 489 189 l 395 189 z "},"н":{"ha":884,"x_min":145,"x_max":739,"o":"m 145 0 l 145 758 l 234 758 l 234 477 l 650 477 l 650 758 l 739 758 l 739 0 l 650 0 l 650 398 l 234 398 l 234 0 l 145 0 z "},"о":{"ha":884,"x_min":145,"x_max":739,"o":"m 145 0 m 442 -13 q 222 61 299 -13 q 145 274 145 135 l 145 479 q 223 695 145 620 q 443 770 301 770 q 662 695 586 770 q 739 479 739 620 l 739 274 q 662 61 739 135 q 442 -13 585 -13 m 442 67 q 599 117 548 67 q 650 274 650 168 l 650 479 q 599 639 650 587 q 442 691 548 691 q 285 639 336 691 q 234 479 234 587 l 234 274 q 285 117 234 168 q 442 67 336 67 z "},"п":{"ha":884,"x_min":145,"x_max":739,"o":"m 145 0 l 145 758 l 739 758 l 739 0 l 650 0 l 650 678 l 234 678 l 234 0 l 145 0 z "},"р":{"ha":884,"x_min":145,"x_max":739,"o":"m 145 0 m 431 64 q 597 116 544 64 q 650 279 650 168 l 650 484 q 609 639 650 590 q 480 688 567 688 q 351 656 410 688 q 234 552 292 624 l 234 120 q 328 78 279 92 q 431 64 376 64 m 432 -13 q 336 -1 389 -13 q 234 30 283 10 l 234 -253 l 145 -253 l 145 758 l 234 758 l 234 631 l 256 631 q 354 734 289 698 q 496 770 419 770 q 674 693 610 770 q 739 482 739 616 l 739 277 q 657 64 739 141 q 432 -13 574 -13 z "},"с":{"ha":884,"x_min":145,"x_max":753,"o":"m 145 0 m 460 -13 q 225 61 306 -13 q 145 274 145 134 l 145 479 q 225 696 145 621 q 458 770 304 770 q 672 710 600 770 q 753 529 744 650 l 667 523 q 610 652 658 614 q 457 691 563 691 q 289 639 343 691 q 234 479 234 587 l 234 274 q 289 117 234 168 q 460 66 345 66 q 614 99 566 66 q 667 210 662 133 l 753 203 q 673 40 745 93 q 460 -13 601 -13 z "},"т":{"ha":884,"x_min":107,"x_max":777,"o":"m 398 0 l 398 678 l 107 678 l 107 758 l 777 758 l 777 678 l 486 678 l 486 0 l 398 0 z "},"у":{"ha":884,"x_min":112,"x_max":770,"o":"m 112 0 m 218 -260 q 171 -258 196 -260 q 117 -249 146 -255 l 131 -170 q 182 -179 159 -177 q 232 -182 206 -182 q 335 -148 294 -182 q 408 -29 376 -115 l 419 0 l 391 0 l 112 758 l 207 758 l 447 81 l 679 758 l 770 758 l 482 -44 q 378 -210 441 -159 q 218 -260 314 -260 z "},"ў":{"ha":884,"x_min":112,"x_max":770,"o":"m 112 0 m 218 -260 q 171 -258 196 -260 q 117 -249 146 -255 l 131 -170 q 182 -179 159 -177 q 232 -182 206 -182 q 335 -148 294 -182 q 408 -29 376 -115 l 419 0 l 391 0 l 112 758 l 207 758 l 447 81 l 679 758 l 770 758 l 482 -44 q 378 -210 441 -159 q 218 -260 314 -260 m 442 875 q 258 932 333 875 q 182 1131 183 990 l 270 1140 q 312 992 273 1037 q 442 948 351 948 q 572 992 533 948 q 614 1140 611 1037 l 702 1131 q 626 932 701 990 q 442 875 551 875 z "},"ф":{"ha":884,"x_min":87,"x_max":797,"o":"m 558 0 l 484 0 l 484 -253 l 400 -253 l 400 0 l 326 0 q 150 76 213 0 q 87 287 87 152 l 87 471 q 150 682 87 606 q 326 758 213 758 l 400 758 l 400 1010 l 484 1010 l 484 758 l 558 758 q 734 682 670 758 q 797 471 797 606 l 797 287 q 734 76 797 152 q 558 0 670 0 m 340 77 l 403 77 l 403 681 l 340 681 q 213 627 255 681 q 172 466 172 573 l 172 289 q 213 130 172 183 q 340 77 255 77 m 544 681 l 481 681 l 481 77 l 544 77 q 670 130 629 77 q 712 289 712 183 l 712 466 q 670 627 712 573 q 544 681 629 681 z "},"х":{"ha":884,"x_min":128,"x_max":756,"o":"m 128 0 m 652 0 l 436 318 l 223 0 l 128 0 l 390 385 l 136 758 l 236 758 l 446 448 l 660 758 l 756 758 l 491 383 l 751 0 l 652 0 z "},"ц":{"ha":884,"x_min":145,"x_max":802,"o":"m 720 -189 l 720 0 l 145 0 l 145 758 l 234 758 l 234 80 l 587 80 l 587 758 l 676 758 l 676 80 l 802 80 l 802 -189 l 720 -189 z "},"ч":{"ha":884,"x_min":120,"x_max":676,"o":"m 676 758 l 676 0 l 587 0 l 587 273 q 506 249 549 259 q 412 240 462 240 q 192 309 264 240 q 120 519 120 378 l 120 758 l 208 758 l 208 521 q 259 365 208 412 q 413 317 309 318 q 509 327 465 316 q 587 359 554 338 l 587 758 l 676 758 z "},"ш":{"ha":884,"x_min":87,"x_max":797,"o":"m 87 0 l 87 758 l 172 758 l 172 76 l 400 76 l 400 758 l 484 758 l 484 76 l 712 76 l 712 758 l 797 758 l 797 0 l 87 0 z "},"щ":{"ha":884,"x_min":87,"x_max":862,"o":"m 862 -189 l 784 -189 l 784 0 l 87 0 l 87 758 l 172 758 l 172 76 l 400 76 l 400 758 l 484 758 l 484 76 l 712 76 l 712 758 l 797 758 l 797 80 l 862 80 l 862 -189 z "},"ъ":{"ha":884,"x_min":19,"x_max":777,"o":"m 532 0 l 208 0 l 208 678 l 19 678 l 19 758 l 297 758 l 297 490 l 530 490 q 711 436 645 490 q 777 282 777 381 l 777 213 q 711 56 777 111 q 532 0 645 0 m 297 80 l 505 80 q 645 111 602 80 q 688 213 688 143 l 688 282 q 645 381 688 351 q 505 412 602 412 l 297 412 l 297 80 z "},"ы":{"ha":884,"x_min":116,"x_max":768,"o":"m 116 0 l 116 758 l 201 758 l 201 490 l 332 490 q 485 435 429 490 q 540 282 540 380 l 540 213 q 485 56 540 112 q 333 0 429 0 l 116 0 m 683 0 l 683 758 l 768 758 l 768 0 l 683 0 m 201 77 l 307 77 q 421 109 386 77 q 456 213 456 141 l 456 282 q 421 383 456 352 q 307 413 386 413 l 201 413 l 201 77 z "},"ь":{"ha":884,"x_min":145,"x_max":777,"o":"m 145 0 l 145 758 l 234 758 l 234 490 l 530 490 q 711 434 645 490 q 777 282 777 379 l 777 213 q 711 57 777 114 q 532 0 645 0 l 145 0 m 234 80 l 505 80 q 645 111 602 80 q 688 213 688 143 l 688 282 q 645 381 688 351 q 505 412 602 412 l 234 412 l 234 80 z "},"э":{"ha":884,"x_min":131,"x_max":739,"o":"m 424 -13 q 211 40 283 -13 q 131 203 139 93 l 217 208 q 272 98 226 130 q 424 67 318 67 q 595 116 540 67 q 650 274 650 165 l 650 356 l 345 356 l 345 431 l 650 431 l 650 481 q 595 641 650 592 q 427 691 540 691 q 273 653 319 691 q 217 523 226 616 l 131 529 q 211 711 140 653 q 426 770 283 770 q 663 695 587 770 q 739 477 739 620 l 739 282 q 663 62 739 138 q 424 -13 587 -13 z "},"ю":{"ha":884,"x_min":95,"x_max":789,"o":"m 558 -13 q 385 59 443 -13 q 327 264 327 131 l 327 378 l 183 378 l 183 0 l 95 0 l 95 758 l 183 758 l 183 457 l 327 457 l 327 490 q 385 698 327 625 q 559 770 443 770 q 732 697 676 770 q 789 489 789 624 l 789 264 q 732 59 789 131 q 558 -13 674 -13 m 558 67 q 671 113 636 67 q 706 264 706 159 l 706 489 q 671 643 706 596 q 558 691 636 691 q 445 643 480 691 q 410 489 410 596 l 410 264 q 445 113 410 159 q 558 67 480 67 z "},"я":{"ha":884,"x_min":134,"x_max":739,"o":"m 379 342 l 650 342 l 650 678 l 379 678 q 268 643 302 678 q 234 529 234 609 l 234 501 q 268 379 234 417 q 379 342 302 342 m 650 265 l 481 265 l 240 0 l 134 0 l 372 265 q 203 328 260 268 q 145 496 145 388 l 145 524 q 204 698 145 639 q 378 758 263 758 l 739 758 l 739 0 l 650 0 l 650 265 z "},"ђ":{"ha":884,"x_min":19,"x_max":739,"o":"m 510 -263 q 439 -256 476 -263 q 367 -236 403 -249 l 386 -154 q 446 -173 417 -167 q 506 -179 476 -179 q 613 -134 576 -179 q 650 5 650 -90 l 650 448 q 606 578 650 532 q 482 625 562 625 q 355 588 420 625 q 234 485 290 552 l 234 0 l 145 0 l 145 809 l 19 809 l 19 884 l 145 884 l 145 1010 l 234 1010 l 234 884 l 486 884 l 486 809 l 234 809 l 234 568 l 256 568 q 362 669 294 631 q 505 707 431 707 q 675 642 611 707 q 739 468 739 577 l 739 -8 q 676 -198 739 -133 q 510 -263 614 -263 z "},"є":{"ha":884,"x_min":144,"x_max":753,"o":"m 751 203 q 671 41 744 95 q 458 -13 598 -13 q 222 61 301 -13 q 144 282 144 134 l 144 477 q 222 698 144 625 q 457 770 299 770 q 670 710 597 770 q 753 529 744 650 l 667 523 q 610 653 658 615 q 456 691 562 691 q 286 641 340 691 q 232 481 232 591 l 232 431 l 538 431 l 538 356 l 232 356 l 232 274 q 287 116 232 165 q 458 67 341 67 q 610 99 563 67 q 667 208 657 131 l 751 203 z "},"ѕ":{"ha":884,"x_min":119,"x_max":744,"o":"m 119 0 m 460 -13 q 278 15 366 -13 q 119 101 191 43 l 162 172 q 301 94 225 121 q 460 67 378 67 q 600 98 543 67 q 657 197 657 129 q 607 288 657 259 q 422 338 558 317 q 212 410 279 361 q 145 552 145 458 q 220 712 145 654 q 404 770 294 770 q 566 741 489 770 q 712 659 644 711 l 670 590 q 545 662 612 634 q 404 691 477 691 q 281 659 330 691 q 232 563 232 628 q 280 469 232 499 q 463 419 328 439 q 677 347 610 396 q 744 206 744 297 q 662 44 744 101 q 460 -13 580 -13 z "},"і":{"ha":884,"x_min":145,"x_max":739,"o":"m 145 0 m 145 0 l 145 80 l 398 80 l 398 678 l 145 678 l 145 758 l 486 758 l 486 80 l 739 80 l 739 0 l 145 0 m 442 912 q 384 924 407 912 q 361 968 361 936 l 361 977 q 384 1024 361 1011 q 442 1037 407 1037 q 500 1024 477 1037 q 523 977 523 1011 l 523 968 q 500 924 523 936 q 442 912 477 912 z "},"ї":{"ha":884,"x_min":145,"x_max":739,"o":"m 145 0 m 145 0 l 145 80 l 398 80 l 398 678 l 145 678 l 145 758 l 486 758 l 486 80 l 739 80 l 739 0 l 145 0 m 304 912 q 256 924 274 912 q 237 968 237 936 l 237 977 q 256 1024 237 1011 q 304 1037 274 1037 q 353 1024 335 1037 q 371 977 371 1011 l 371 968 q 352 924 371 936 q 304 912 333 912 m 580 912 q 531 924 549 912 q 513 968 513 936 l 513 977 q 531 1024 513 1011 q 580 1037 549 1037 q 628 1024 610 1037 q 646 977 646 1011 l 646 968 q 628 924 646 936 q 580 912 609 912 z "},"ј":{"ha":884,"x_min":145,"x_max":645,"o":"m 145 0 m 333 -263 q 239 -256 287 -263 q 145 -236 192 -249 l 164 -153 q 249 -174 207 -168 q 330 -179 290 -179 q 474 -131 424 -179 q 524 20 524 -82 l 524 678 l 170 678 l 170 758 l 612 758 l 612 8 q 536 -193 612 -124 q 333 -263 460 -263 m 564 912 q 506 924 529 912 q 484 968 484 936 l 484 977 q 506 1024 484 1011 q 564 1037 529 1037 q 622 1024 600 1037 q 645 977 645 1011 l 645 968 q 622 924 645 936 q 564 912 600 912 z "},"љ":{"ha":884,"x_min":9,"x_max":797,"o":"m 246 678 l 239 197 q 194 39 237 87 q 88 -9 150 -9 q 49 -5 68 -9 q 9 5 29 -1 l 29 92 q 55 84 42 87 q 80 81 68 81 q 132 106 110 81 q 155 210 154 131 l 165 758 l 496 758 l 496 505 l 588 505 q 743 451 689 505 q 797 297 797 396 l 797 206 q 743 54 797 107 q 590 0 689 0 l 413 0 l 413 678 l 246 678 m 496 77 l 578 77 q 678 109 643 78 q 713 215 713 140 l 713 294 q 678 398 713 367 q 578 428 643 428 l 496 428 l 496 77 z "},"њ":{"ha":884,"x_min":92,"x_max":792,"o":"m 484 77 l 573 77 q 672 107 636 77 q 708 205 708 136 l 708 290 q 672 391 708 362 q 573 420 636 420 l 484 420 l 484 77 m 176 408 l 176 0 l 92 0 l 92 758 l 176 758 l 176 485 l 400 485 l 400 758 l 484 758 l 484 497 l 583 497 q 738 444 684 497 q 792 293 792 391 l 792 202 q 739 52 792 105 q 585 0 686 0 l 400 0 l 400 408 l 176 408 z "},"ћ":{"ha":884,"x_min":19,"x_max":739,"o":"m 19 0 m 234 485 l 234 0 l 145 0 l 145 809 l 19 809 l 19 884 l 145 884 l 145 1010 l 234 1010 l 234 884 l 486 884 l 486 809 l 234 809 l 234 568 l 256 568 q 360 672 298 636 q 501 707 422 707 q 672 644 605 707 q 739 468 739 581 l 739 0 l 650 0 l 650 448 q 605 581 650 537 q 482 625 559 625 q 356 591 417 625 q 234 485 295 557 z "},"џ":{"ha":884,"x_min":145,"x_max":739,"o":"m 399 -189 l 399 0 l 145 0 l 145 758 l 234 758 l 234 80 l 650 80 l 650 758 l 739 758 l 739 0 l 485 0 l 485 -189 l 399 -189 z "},"ґ":{"ha":884,"x_min":208,"x_max":751,"o":"m 208 0 l 208 758 l 669 758 l 669 928 l 751 928 l 751 678 l 297 678 l 297 0 l 208 0 z "},"ⁿ":{"ha":884,"x_min":205,"x_max":679,"o":"m 205 383 l 205 1013 l 279 1013 l 279 908 l 298 908 q 379 995 328 967 q 485 1023 431 1023 q 624 965 569 1023 q 679 808 679 907 l 679 383 l 605 383 l 605 794 q 570 914 605 874 q 472 953 535 953 q 371 924 418 953 q 279 843 323 894 l 279 383 l 205 383 z "},"̀":{"ha":0,"x_min":-218,"x_max":97,"o":"m 20 884 l -218 1136 l -82 1136 l 97 884 l 20 884 z "},"́":{"ha":0,"x_min":-109,"x_max":207,"o":"m -109 884 l 71 1136 l 207 1136 l -32 884 l -109 884 z "},"̂":{"ha":0,"x_min":-250,"x_max":250,"o":"m -216 903 l -250 956 l -32 1158 l 29 1158 l 250 956 l 215 903 l -1 1073 l -216 903 z "},"̃":{"ha":0,"x_min":-246,"x_max":246,"o":"m 106 896 q 34 920 63 896 q -27 994 5 943 q -69 1056 -51 1035 q -110 1076 -88 1076 q -160 1041 -143 1076 q -176 923 -178 1006 l -176 909 l -246 909 l -246 928 q -210 1090 -246 1032 q -106 1149 -174 1149 q -32 1126 -61 1149 q 25 1056 -3 1102 q 71 991 53 1013 q 110 970 90 970 q 158 1004 141 970 q 176 1122 176 1039 l 176 1136 l 246 1136 l 246 1117 q 210 955 246 1014 q 106 896 174 896 z "},"̄":{"ha":0,"x_min":-234,"x_max":234,"o":"m -234 972 l -234 1052 l 234 1052 l 234 972 l -234 972 z "},"̆":{"ha":0,"x_min":-270,"x_max":270,"o":"m 0 875 q -196 940 -124 875 q -270 1140 -269 1005 l -182 1140 q -136 994 -179 1038 q 0 949 -92 949 q 136 994 92 949 q 182 1140 179 1038 l 270 1140 q 196 940 269 1005 q 0 875 124 875 z "},"̇":{"ha":0,"x_min":-81,"x_max":81,"o":"m 0 912 q -58 924 -35 912 q -81 968 -81 936 l -81 977 q -58 1024 -81 1011 q 0 1037 -35 1037 q 58 1024 35 1037 q 81 977 81 1011 l 81 968 q 58 924 81 936 q 0 912 35 912 z "},"̈":{"ha":0,"x_min":-205,"x_max":205,"o":"m -138 912 q -186 924 -168 912 q -205 968 -205 936 l -205 977 q -186 1024 -205 1011 q -138 1037 -168 1037 q -89 1024 -107 1037 q -71 977 -71 1011 l -71 968 q -90 924 -71 936 q -138 912 -109 912 m 138 912 q 89 924 107 912 q 71 968 71 936 l 71 977 q 89 1024 71 1011 q 138 1037 107 1037 q 186 1024 168 1037 q 205 977 205 1011 l 205 968 q 186 924 205 936 q 138 912 167 912 z "},"̊":{"ha":0,"x_min":-187,"x_max":187,"o":"m 0 865 q -137 911 -87 865 q -187 1048 -187 957 l -187 1088 q -137 1228 -187 1181 q 0 1275 -87 1275 q 137 1228 87 1275 q 187 1088 187 1181 l 187 1048 q 137 911 187 957 q 0 865 87 865 m 0 932 q 85 959 58 932 q 111 1048 111 986 l 111 1088 q 85 1179 111 1150 q 0 1208 58 1208 q -85 1179 -58 1208 q -111 1088 -111 1150 l -111 1048 q -85 959 -111 986 q 0 932 -58 932 z "},"̋":{"ha":0,"x_min":-164,"x_max":306,"o":"m 96 884 l 167 1136 l 306 1136 l 163 884 l 96 884 m -164 884 l -93 1136 l 45 1136 l -97 884 l -164 884 z "},"̌":{"ha":0,"x_min":-250,"x_max":250,"o":"m -30 889 l -250 1091 l -216 1144 l 0 973 l 215 1144 l 250 1091 l 30 889 l -30 889 z "},"̒":{"ha":0,"x_min":-131,"x_max":126,"o":"m -131 884 l 49 1136 l 126 1136 l 5 884 l -131 884 z "},"̦":{"ha":0,"x_min":-154,"x_max":104,"o":"m -154 -379 l -33 -126 l 104 -126 l -77 -379 l -154 -379 z "},"̧":{"ha":0,"x_min":-218,"x_max":136,"o":"m -38 0 l -20 38 q 92 -14 48 25 q 136 -122 136 -53 q 86 -234 136 -196 q -40 -273 37 -273 q -165 -241 -116 -273 q -218 -135 -213 -210 l -138 -128 q -112 -183 -133 -167 q -47 -199 -92 -199 q 30 -181 6 -199 q 53 -112 53 -162 q 32 -39 53 -64 q -38 0 11 -14 z "},"̨":{"ha":0,"x_min":-106,"x_max":181,"o":"m 69 -271 q -56 -233 -6 -271 q -106 -129 -106 -194 q -62 -23 -106 -71 q 45 49 -19 24 l 68 29 q -1 -34 20 0 q -23 -105 -23 -68 q 3 -170 -23 -149 q 80 -192 28 -192 q 131 -189 104 -192 q 181 -181 158 -186 l 181 -260 q 125 -268 157 -265 q 69 -271 93 -271 z "},"¼":{"ha":884,"x_min":0,"x_max":884,"o":"m 245 518 l 245 585 l 417 585 l 417 910 l 405 910 q 343 830 390 860 q 236 798 295 799 l 229 867 q 345 906 288 870 q 419 1018 403 942 l 496 1018 l 496 585 l 653 585 l 653 518 l 245 518 m 0 333 l 0 424 l 402 408 l 402 350 l 0 333 m 884 333 l 500 350 l 500 408 l 884 424 l 884 333 m 601 -265 l 521 -265 l 521 -133 l 193 -133 l 193 -67 l 497 273 l 601 273 l 601 -67 l 718 -67 l 718 -133 l 601 -133 l 601 -265 m 274 -67 l 521 -67 l 521 206 l 274 -67 z "},"½":{"ha":884,"x_min":0,"x_max":884,"o":"m 245 518 l 245 585 l 417 585 l 417 910 l 405 910 q 343 830 390 860 q 236 798 295 799 l 229 867 q 345 906 288 870 q 419 1018 403 942 l 496 1018 l 496 585 l 653 585 l 653 518 l 245 518 m 0 333 l 0 424 l 402 408 l 402 350 l 0 333 m 884 333 l 500 350 l 500 408 l 884 424 l 884 333 m 678 -266 l 207 -266 l 207 -160 q 240 -63 207 -100 q 354 -10 273 -27 l 491 18 q 569 44 548 29 q 591 92 591 58 l 591 116 q 558 181 591 160 q 442 201 525 201 q 329 181 359 201 q 295 109 299 162 l 213 115 q 271 230 218 193 q 442 266 323 266 q 616 229 563 266 q 669 120 669 192 l 669 77 q 633 -4 669 25 q 525 -49 597 -34 l 389 -77 q 311 -108 335 -87 q 287 -198 287 -129 l 678 -198 l 678 -266 z "},"¾":{"ha":884,"x_min":0,"x_max":884,"o":"m 439 509 q 257 544 311 509 q 198 650 203 580 l 279 655 q 313 593 284 611 q 439 576 341 576 q 564 595 529 576 q 598 655 598 614 l 598 676 q 564 729 598 712 q 442 745 529 745 l 371 745 l 371 812 l 442 812 q 551 824 518 812 q 583 867 583 836 l 583 893 q 547 943 583 928 q 434 957 510 957 q 331 943 364 957 q 295 891 298 928 l 213 898 q 271 995 218 966 q 434 1024 324 1024 q 603 996 544 1024 q 662 900 662 968 l 662 880 q 634 816 662 840 q 561 788 606 793 l 561 773 q 645 741 612 769 q 678 670 678 713 l 678 653 q 621 544 678 578 q 439 509 563 509 m 0 333 l 0 424 l 402 408 l 402 350 l 0 333 m 884 333 l 500 350 l 500 408 l 884 424 l 884 333 m 601 -265 l 521 -265 l 521 -133 l 193 -133 l 193 -67 l 497 273 l 601 273 l 601 -67 l 718 -67 l 718 -133 l 601 -133 l 601 -265 m 274 -67 l 521 -67 l 521 206 l 274 -67 z "},"⅛":{"ha":884,"x_min":0,"x_max":884,"o":"m 245 518 l 245 585 l 417 585 l 417 910 l 405 910 q 343 830 390 860 q 236 798 295 799 l 229 867 q 345 906 288 870 q 419 1018 403 942 l 496 1018 l 496 585 l 653 585 l 653 518 l 245 518 m 0 333 l 0 424 l 402 408 l 402 350 l 0 333 m 884 333 l 500 350 l 500 408 l 884 424 l 884 333 m 444 -273 q 259 -232 309 -273 q 208 -120 208 -191 l 208 -107 q 237 -28 208 -58 q 318 6 266 3 l 318 21 q 251 51 278 27 q 223 114 223 74 l 223 131 q 281 235 223 203 q 444 268 338 268 q 608 237 551 268 q 665 131 665 206 l 665 114 q 638 51 665 74 q 571 21 611 27 l 571 6 q 653 -29 624 3 q 682 -107 682 -61 l 682 -120 q 631 -232 682 -192 q 444 -273 580 -273 m 444 45 q 552 60 520 45 q 585 109 585 74 l 585 128 q 552 184 585 168 q 444 201 520 201 q 338 184 370 201 q 306 128 306 168 l 306 109 q 338 60 306 74 q 444 45 370 45 m 444 -206 q 568 -183 535 -206 q 600 -114 600 -160 l 600 -102 q 568 -40 600 -59 q 444 -20 535 -20 q 322 -40 354 -20 q 290 -102 290 -59 l 290 -114 q 322 -183 290 -160 q 444 -206 354 -206 z "},"⅜":{"ha":884,"x_min":0,"x_max":884,"o":"m 439 509 q 257 544 311 509 q 198 650 203 580 l 279 655 q 313 593 284 611 q 439 576 341 576 q 564 595 529 576 q 598 655 598 614 l 598 676 q 564 729 598 712 q 442 745 529 745 l 371 745 l 371 812 l 442 812 q 551 824 518 812 q 583 867 583 836 l 583 893 q 547 943 583 928 q 434 957 510 957 q 331 943 364 957 q 295 891 298 928 l 213 898 q 271 995 218 966 q 434 1024 324 1024 q 603 996 544 1024 q 662 900 662 968 l 662 880 q 634 816 662 840 q 561 788 606 793 l 561 773 q 645 741 612 769 q 678 670 678 713 l 678 653 q 621 544 678 578 q 439 509 563 509 m 0 333 l 0 424 l 402 408 l 402 350 l 0 333 m 884 333 l 500 350 l 500 408 l 884 424 l 884 333 m 444 -273 q 259 -232 309 -273 q 208 -120 208 -191 l 208 -107 q 237 -28 208 -58 q 318 6 266 3 l 318 21 q 251 51 278 27 q 223 114 223 74 l 223 131 q 281 235 223 203 q 444 268 338 268 q 608 237 551 268 q 665 131 665 206 l 665 114 q 638 51 665 74 q 571 21 611 27 l 571 6 q 653 -29 624 3 q 682 -107 682 -61 l 682 -120 q 631 -232 682 -192 q 444 -273 580 -273 m 444 45 q 552 60 520 45 q 585 109 585 74 l 585 128 q 552 184 585 168 q 444 201 520 201 q 338 184 370 201 q 306 128 306 168 l 306 109 q 338 60 306 74 q 444 45 370 45 m 444 -206 q 568 -183 535 -206 q 600 -114 600 -160 l 600 -102 q 568 -40 600 -59 q 444 -20 535 -20 q 322 -40 354 -20 q 290 -102 290 -59 l 290 -114 q 322 -183 290 -160 q 444 -206 354 -206 z "},"⅝":{"ha":884,"x_min":0,"x_max":884,"o":"m 442 509 q 258 541 313 509 q 199 657 203 573 l 279 664 q 318 592 284 610 q 442 574 351 574 q 564 594 529 574 q 598 657 598 614 l 598 688 q 564 746 598 727 q 447 764 530 764 l 221 764 l 221 1016 l 652 1016 l 652 951 l 303 951 l 303 832 l 458 832 q 622 798 564 832 q 679 696 679 764 l 679 654 q 619 547 679 586 q 442 509 558 509 m 0 333 l 0 424 l 402 408 l 402 350 l 0 333 m 884 333 l 500 350 l 500 408 l 884 424 l 884 333 m 444 -273 q 259 -232 309 -273 q 208 -120 208 -191 l 208 -107 q 237 -28 208 -58 q 318 6 266 3 l 318 21 q 251 51 278 27 q 223 114 223 74 l 223 131 q 281 235 223 203 q 444 268 338 268 q 608 237 551 268 q 665 131 665 206 l 665 114 q 638 51 665 74 q 571 21 611 27 l 571 6 q 653 -29 624 3 q 682 -107 682 -61 l 682 -120 q 631 -232 682 -192 q 444 -273 580 -273 m 444 45 q 552 60 520 45 q 585 109 585 74 l 585 128 q 552 184 585 168 q 444 201 520 201 q 338 184 370 201 q 306 128 306 168 l 306 109 q 338 60 306 74 q 444 45 370 45 m 444 -206 q 568 -183 535 -206 q 600 -114 600 -160 l 600 -102 q 568 -40 600 -59 q 444 -20 535 -20 q 322 -40 354 -20 q 290 -102 290 -59 l 290 -114 q 322 -183 290 -160 q 444 -206 354 -206 z "},"⅞":{"ha":884,"x_min":0,"x_max":884,"o":"m 366 518 q 453 752 402 659 q 597 949 505 845 l 206 949 l 206 1018 l 679 1018 l 679 949 q 532 735 588 835 q 452 518 476 635 l 366 518 m 0 333 l 0 424 l 402 408 l 402 350 l 0 333 m 884 333 l 500 350 l 500 408 l 884 424 l 884 333 m 444 -273 q 259 -232 309 -273 q 208 -120 208 -191 l 208 -107 q 237 -28 208 -58 q 318 6 266 3 l 318 21 q 251 51 278 27 q 223 114 223 74 l 223 131 q 281 235 223 203 q 444 268 338 268 q 608 237 551 268 q 665 131 665 206 l 665 114 q 638 51 665 74 q 571 21 611 27 l 571 6 q 653 -29 624 3 q 682 -107 682 -61 l 682 -120 q 631 -232 682 -192 q 444 -273 580 -273 m 444 45 q 552 60 520 45 q 585 109 585 74 l 585 128 q 552 184 585 168 q 444 201 520 201 q 338 184 370 201 q 306 128 306 168 l 306 109 q 338 60 306 74 q 444 45 370 45 m 444 -206 q 568 -183 535 -206 q 600 -114 600 -160 l 600 -102 q 568 -40 600 -59 q 444 -20 535 -20 q 322 -40 354 -20 q 290 -102 290 -59 l 290 -114 q 322 -183 290 -160 q 444 -206 354 -206 z "},"_":{"ha":884,"x_min":88,"x_max":795,"o":"m 88 -234 l 88 -145 l 795 -145 l 795 -234 l 88 -234 z "},"-":{"ha":884,"x_min":88,"x_max":795,"o":"m 88 398 l 88 486 l 795 486 l 795 398 l 88 398 z "},"­":{"ha":884,"x_min":88,"x_max":795,"o":"m 88 398 l 88 486 l 795 486 l 795 398 l 88 398 z "},"‐":{"ha":884,"x_min":88,"x_max":795,"o":"m 88 398 l 88 486 l 795 486 l 795 398 l 88 398 z "},"‑":{"ha":884,"x_min":88,"x_max":795,"o":"m 88 398 l 88 486 l 795 486 l 795 398 l 88 398 z "},"–":{"ha":884,"x_min":126,"x_max":758,"o":"m 126 398 l 126 486 l 758 486 l 758 398 l 126 398 z "},"—":{"ha":884,"x_min":0,"x_max":884,"o":"m 0 398 l 0 486 l 884 486 l 884 398 l 0 398 z "},"―":{"ha":884,"x_min":0,"x_max":884,"o":"m 0 398 l 0 486 l 884 486 l 884 398 l 0 398 z "},"(":{"ha":884,"x_min":271,"x_max":686,"o":"m 676 -265 q 381 -50 491 -221 q 271 379 271 121 q 381 807 271 636 q 676 1023 491 979 l 686 952 q 442 757 524 908 q 360 379 360 606 q 442 1 360 152 q 686 -194 524 -149 l 676 -265 z "},")":{"ha":884,"x_min":198,"x_max":612,"o":"m 208 -265 l 198 -194 q 442 2 360 -149 q 524 379 524 153 q 442 756 524 605 q 198 952 360 908 l 208 1023 q 503 807 393 979 q 612 379 612 636 q 503 -50 612 121 q 208 -265 393 -221 z "},"[":{"ha":884,"x_min":271,"x_max":676,"o":"m 271 -253 l 271 1010 l 676 1010 l 676 931 l 360 931 l 360 -179 l 676 -179 l 676 -253 l 271 -253 z "},"]":{"ha":884,"x_min":208,"x_max":612,"o":"m 208 -253 l 208 -179 l 524 -179 l 524 931 l 208 931 l 208 1010 l 612 1010 l 612 -253 l 208 -253 z "},"{":{"ha":884,"x_min":82,"x_max":676,"o":"m 676 -265 q 319 -217 429 -269 q 208 -56 208 -165 q 230 39 208 -1 q 295 125 253 80 q 352 190 332 164 q 372 244 372 216 q 309 333 372 307 q 82 364 246 360 l 82 424 q 309 454 245 428 q 372 542 372 480 q 352 590 372 567 q 295 645 332 614 q 230 723 253 684 q 208 816 208 761 q 321 975 208 924 q 676 1023 434 1027 l 676 943 q 382 915 467 947 q 297 809 297 884 q 315 749 297 778 q 380 679 333 721 q 443 608 426 638 q 461 543 461 578 q 403 437 461 472 q 237 398 346 403 l 237 391 q 403 340 346 381 q 461 230 461 299 q 442 166 461 197 q 375 88 423 135 q 314 18 332 48 q 297 -48 297 -13 q 382 -159 297 -126 q 676 -188 467 -192 l 676 -265 z "},"}":{"ha":884,"x_min":208,"x_max":802,"o":"m 676 -56 q 565 -217 676 -165 q 208 -265 455 -269 l 208 -188 q 502 -159 417 -192 q 587 -48 587 -126 q 569 18 587 -13 q 509 88 552 48 q 442 166 461 135 q 423 230 423 197 q 480 340 423 299 q 646 391 538 381 l 646 398 q 480 437 538 403 q 423 543 423 472 q 441 608 423 578 q 504 679 458 638 q 569 749 551 721 q 587 809 587 778 q 502 915 587 884 q 208 943 417 947 l 208 1023 q 563 975 449 1027 q 676 816 676 924 q 653 723 676 761 q 588 645 631 684 q 532 590 552 614 q 511 542 511 567 q 575 454 511 480 q 802 424 639 428 l 802 364 q 574 333 638 360 q 511 244 511 307 q 532 190 511 216 q 588 125 552 164 q 653 39 631 80 q 676 -56 676 -1 z "},"#":{"ha":884,"x_min":82,"x_max":802,"o":"m 540 351 l 556 663 l 345 663 l 330 351 l 540 351 m 521 0 l 535 271 l 324 271 l 311 0 l 231 0 l 245 271 l 82 271 l 82 351 l 250 351 l 265 663 l 82 663 l 82 742 l 269 742 l 282 1010 l 361 1010 l 348 742 l 559 742 l 572 1010 l 652 1010 l 639 742 l 802 742 l 802 663 l 635 663 l 620 351 l 802 351 l 802 271 l 615 271 l 601 0 l 521 0 z "},"%":{"ha":884,"x_min":66,"x_max":824,"o":"m 246 566 q 117 614 167 566 q 67 761 67 662 l 67 837 q 117 987 67 938 q 246 1035 167 1035 q 375 987 326 1035 q 424 837 424 938 l 424 761 q 375 614 424 662 q 246 566 326 566 m 246 638 q 318 666 292 638 q 343 759 343 694 l 343 840 q 318 934 343 904 q 246 963 292 963 q 174 934 201 963 q 148 840 148 904 l 148 759 q 174 666 148 694 q 246 638 201 638 m 66 203 l 773 871 l 824 816 l 116 148 l 66 203 m 639 -28 q 509 20 559 -28 q 460 168 460 68 l 460 244 q 509 393 460 345 q 639 442 559 442 q 768 393 718 442 q 817 244 817 345 l 817 168 q 768 20 817 68 q 639 -28 718 -28 m 639 44 q 710 73 684 44 q 736 165 736 101 l 736 246 q 710 340 736 311 q 639 370 684 370 q 567 340 593 370 q 540 246 540 311 l 540 165 q 567 73 540 101 q 639 44 593 44 z "},"‰":{"ha":884,"x_min":28,"x_max":856,"o":"m 221 566 q 109 610 152 566 q 66 749 66 655 l 66 850 q 109 990 66 944 q 221 1035 153 1035 q 333 990 290 1035 q 375 850 375 944 l 375 749 q 332 610 375 655 q 221 566 289 566 m 149 746 q 169 663 149 688 q 221 638 188 638 q 273 663 255 638 q 292 746 292 688 l 292 852 q 273 937 292 910 q 221 963 255 963 q 169 937 188 963 q 149 852 149 910 l 149 746 m 787 816 l 78 148 l 28 203 l 735 871 l 787 816 m 725 -28 q 664 -11 691 -28 q 622 39 638 5 q 579 -11 606 5 q 519 -28 552 -28 q 423 17 460 -28 q 386 155 386 62 l 386 256 q 424 396 386 351 q 519 442 461 442 q 580 425 553 442 q 622 374 606 408 q 665 425 638 408 q 725 442 692 442 q 820 396 784 442 q 856 256 856 351 l 856 155 q 819 17 856 62 q 725 -28 783 -28 m 465 148 q 480 64 465 90 q 524 39 496 39 q 567 64 552 39 q 582 148 582 90 l 582 264 q 567 348 582 322 q 524 375 552 375 q 480 348 496 375 q 465 264 465 322 l 465 148 m 660 148 q 676 64 660 90 q 720 39 692 39 q 763 64 747 39 q 778 148 778 90 l 778 264 q 763 348 778 322 q 720 375 747 375 q 676 348 692 375 q 660 264 660 322 l 660 148 z "},"'":{"ha":884,"x_min":371,"x_max":513,"o":"m 402 543 l 371 1010 l 513 1010 l 482 543 l 402 543 z "},"\"":{"ha":884,"x_min":182,"x_max":702,"o":"m 591 543 l 561 1010 l 702 1010 l 672 543 l 591 543 m 212 543 l 182 1010 l 323 1010 l 293 543 l 212 543 z "},"ʻ":{"ha":884,"x_min":299,"x_max":621,"o":"m 299 543 l 545 1010 l 621 1010 l 475 543 l 299 543 z "},"‘":{"ha":884,"x_min":299,"x_max":621,"o":"m 299 543 l 545 1010 l 621 1010 l 475 543 l 299 543 z "},"’":{"ha":884,"x_min":263,"x_max":585,"o":"m 263 543 l 409 1010 l 585 1010 l 338 543 l 263 543 z "},"“":{"ha":884,"x_min":110,"x_max":798,"o":"m 489 543 l 727 1010 l 798 1010 l 652 543 l 489 543 m 110 543 l 348 1010 l 419 1010 l 273 543 l 110 543 z "},"”":{"ha":884,"x_min":86,"x_max":774,"o":"m 465 543 l 611 1010 l 774 1010 l 535 543 l 465 543 m 86 543 l 232 1010 l 395 1010 l 157 543 l 86 543 z "},"‛":{"ha":884,"x_min":260,"x_max":582,"o":"m 260 543 m 506 543 l 260 1010 l 436 1010 l 582 543 l 506 543 z "},"‚":{"ha":884,"x_min":268,"x_max":580,"o":"m 268 0 m 268 -253 l 404 215 l 580 215 l 343 -253 l 268 -253 z "},"„":{"ha":884,"x_min":-40,"x_max":648,"o":"m 0 0 m 338 -253 l 485 215 l 648 215 l 409 -253 l 338 -253 m -40 -253 l 106 215 l 269 215 l 30 -253 l -40 -253 z "},"‹":{"ha":884,"x_min":253,"x_max":631,"o":"m 631 141 l 253 409 l 253 475 l 631 742 l 631 653 l 331 442 l 631 231 l 631 141 z "},"›":{"ha":884,"x_min":253,"x_max":631,"o":"m 253 141 l 253 231 l 553 442 l 253 653 l 253 742 l 631 475 l 631 409 l 253 141 z "},"«":{"ha":884,"x_min":88,"x_max":795,"o":"m 795 141 l 467 409 l 467 475 l 795 742 l 795 653 l 534 442 l 795 231 l 795 141 m 417 141 l 88 409 l 88 475 l 417 742 l 417 653 l 155 442 l 417 231 l 417 141 z "},"»":{"ha":884,"x_min":88,"x_max":795,"o":"m 88 141 l 88 231 l 351 442 l 88 653 l 88 742 l 417 475 l 417 409 l 88 141 m 467 141 l 467 231 l 730 442 l 467 653 l 467 742 l 795 475 l 795 409 l 467 141 z "},"*":{"ha":884,"x_min":107,"x_max":775,"o":"m 725 410 l 467 606 l 491 298 l 390 298 l 414 605 l 158 410 l 107 497 l 395 655 l 107 813 l 158 900 l 414 705 l 390 1010 l 491 1010 l 467 703 l 725 900 l 775 813 l 487 655 l 775 497 l 725 410 z "},"†":{"ha":884,"x_min":120,"x_max":764,"o":"m 398 -253 l 398 678 l 234 678 l 191 379 l 120 379 l 158 758 l 398 758 l 389 1010 l 495 1010 l 486 758 l 726 758 l 764 379 l 693 379 l 650 678 l 486 678 l 486 -253 l 398 -253 z "},"‡":{"ha":884,"x_min":120,"x_max":764,"o":"m 385 -253 l 394 0 l 158 0 l 120 290 l 191 290 l 234 80 l 398 80 l 398 678 l 234 678 l 191 467 l 120 467 l 158 758 l 398 758 l 389 1010 l 495 1010 l 486 758 l 726 758 l 764 467 l 693 467 l 650 678 l 486 678 l 486 80 l 650 80 l 693 290 l 764 290 l 726 0 l 490 0 l 499 -253 l 385 -253 z "},".":{"ha":884,"x_min":340,"x_max":545,"o":"m 443 -13 q 368 9 396 -13 q 340 76 340 30 l 340 111 q 368 180 340 158 q 443 202 396 202 q 518 180 490 202 q 545 111 545 158 l 545 76 q 517 9 545 30 q 443 -13 489 -13 z "},",":{"ha":884,"x_min":268,"x_max":580,"o":"m 268 -253 l 404 215 l 580 215 l 343 -253 l 268 -253 z "},":":{"ha":884,"x_min":340,"x_max":545,"o":"m 443 553 q 368 573 396 553 q 340 636 340 593 l 340 682 q 368 747 340 726 q 443 768 396 768 q 518 747 490 768 q 545 682 545 726 l 545 636 q 517 573 545 593 q 443 553 489 553 m 443 -13 q 368 8 396 -13 q 340 71 340 28 l 340 116 q 368 181 340 160 q 443 202 396 202 q 518 181 490 202 q 545 116 545 160 l 545 71 q 517 8 545 28 q 443 -13 489 -13 z "},";":{"ha":884,"x_min":268,"x_max":580,"o":"m 443 553 q 368 573 396 553 q 340 636 340 593 l 340 682 q 368 747 340 726 q 443 768 396 768 q 518 747 490 768 q 545 682 545 726 l 545 636 q 517 573 545 593 q 443 553 489 553 m 268 -253 l 404 215 l 580 215 l 343 -253 l 268 -253 z "},"…":{"ha":884,"x_min":64,"x_max":819,"o":"m 745 -13 q 690 8 711 -13 q 669 71 669 28 l 669 116 q 690 181 669 160 q 745 202 711 202 q 799 181 778 202 q 819 116 819 160 l 819 71 q 798 8 819 28 q 745 -13 777 -13 m 443 -13 q 388 8 409 -13 q 367 71 367 28 l 367 116 q 388 181 367 160 q 443 202 409 202 q 497 181 476 202 q 518 116 518 160 l 518 71 q 496 8 518 28 q 443 -13 475 -13 m 140 -13 q 86 8 107 -13 q 64 71 64 28 l 64 116 q 86 181 64 160 q 140 202 107 202 q 194 181 174 202 q 215 116 215 160 l 215 71 q 194 8 215 28 q 140 -13 173 -13 z "},"!":{"ha":884,"x_min":340,"x_max":545,"o":"m 407 379 l 384 1010 l 500 1010 l 477 379 l 407 379 m 443 -13 q 366 8 393 -13 q 340 71 340 28 l 340 106 q 366 171 340 150 q 443 192 393 192 q 520 171 494 192 q 545 106 545 150 l 545 71 q 518 8 545 28 q 443 -13 491 -13 z "},"¡":{"ha":884,"x_min":340,"x_max":545,"o":"m 443 1021 q 519 1001 492 1021 q 545 937 545 981 l 545 902 q 519 838 545 859 q 443 817 492 817 q 366 838 393 817 q 340 902 340 859 l 340 937 q 367 1001 340 981 q 443 1021 394 1021 m 479 631 l 501 0 l 385 0 l 408 631 l 479 631 z "},"‼":{"ha":884,"x_min":163,"x_max":722,"o":"m 583 379 l 561 1010 l 677 1010 l 654 379 l 583 379 m 230 379 l 207 1010 l 323 1010 l 301 379 l 230 379 m 620 -13 q 543 8 569 -13 q 516 71 516 28 l 516 106 q 543 171 516 150 q 620 192 569 192 q 696 171 670 192 q 722 106 722 150 l 722 71 q 695 8 722 28 q 620 -13 668 -13 m 266 -13 q 189 8 216 -13 q 163 71 163 28 l 163 106 q 189 171 163 150 q 266 192 216 192 q 343 171 317 192 q 369 106 369 150 l 369 71 q 342 8 369 28 q 266 -13 314 -13 z "},"?":{"ha":884,"x_min":82,"x_max":789,"o":"m 341 395 l 323 466 q 618 552 535 500 q 701 697 701 605 l 701 735 q 645 891 701 840 q 442 943 590 943 q 233 895 284 943 q 170 716 182 847 l 82 725 q 169 957 91 891 q 441 1023 246 1023 q 706 950 624 1023 q 789 750 789 878 l 789 692 q 685 497 789 561 q 341 395 581 433 m 383 -13 q 306 8 332 -13 q 279 71 279 28 l 279 106 q 306 171 279 150 q 383 192 332 192 q 458 171 432 192 q 485 106 485 150 l 485 71 q 458 8 485 28 q 383 -13 431 -13 z "},"¿":{"ha":884,"x_min":95,"x_max":802,"o":"m 501 1023 q 578 1003 552 1023 q 605 939 605 982 l 605 904 q 578 839 605 860 q 501 818 552 818 q 426 839 452 818 q 399 904 399 860 l 399 939 q 426 1003 399 982 q 501 1023 453 1023 m 543 615 l 561 544 q 266 458 348 510 q 183 313 183 405 l 183 275 q 239 119 183 170 q 442 67 294 67 q 651 115 600 67 q 713 294 702 163 l 802 285 q 715 53 793 119 q 443 -13 638 -13 q 177 60 260 -13 q 95 260 95 133 l 95 318 q 198 513 95 449 q 543 615 302 577 z "},"/":{"ha":884,"x_min":145,"x_max":739,"o":"m 145 -253 l 650 1010 l 739 1010 l 234 -253 l 145 -253 z "},"\\":{"ha":884,"x_min":145,"x_max":739,"o":"m 650 -253 l 145 1010 l 234 1010 l 739 -253 l 650 -253 z "},"⁄":{"ha":884,"x_min":145,"x_max":739,"o":"m 145 0 l 650 1010 l 739 1010 l 234 0 l 145 0 z "},"∕":{"ha":884,"x_min":145,"x_max":739,"o":"m 145 0 l 650 1010 l 739 1010 l 234 0 l 145 0 z "},"|":{"ha":884,"x_min":404,"x_max":480,"o":"m 404 -253 l 404 1010 l 480 1010 l 480 -253 l 404 -253 z "},"¦":{"ha":884,"x_min":404,"x_max":480,"o":"m 404 505 l 404 1010 l 480 1010 l 480 505 l 404 505 m 404 -253 l 404 253 l 480 253 l 480 -253 l 404 -253 z "},"@":{"ha":884,"x_min":129,"x_max":751,"o":"m 519 -139 q 228 -34 327 -139 q 129 264 129 71 l 129 640 q 212 922 129 821 q 453 1023 295 1023 q 674 924 596 1023 q 751 653 751 826 l 751 345 q 694 189 744 239 q 552 139 645 139 q 407 196 453 139 q 360 356 360 254 l 360 510 q 410 672 360 611 q 535 732 461 732 q 611 712 582 732 q 655 663 640 692 l 676 663 q 621 883 676 806 q 452 960 566 960 q 260 880 321 960 q 199 640 199 801 l 199 264 q 277 13 199 98 q 519 -72 354 -72 q 635 -62 583 -72 q 734 -39 687 -53 l 734 -107 q 631 -130 683 -121 q 519 -139 580 -139 m 554 210 q 645 244 615 210 q 674 359 674 279 l 674 500 q 643 622 674 582 q 554 662 612 662 q 467 622 496 662 q 437 497 437 582 l 437 369 q 467 248 437 287 q 554 210 496 210 z "},"&":{"ha":884,"x_min":61,"x_max":850,"o":"m 835 -8 q 694 61 763 24 q 566 144 626 97 q 441 31 511 74 q 288 -13 371 -13 q 123 58 186 -13 q 61 254 61 129 q 111 422 61 345 q 241 544 162 499 q 193 672 208 612 q 177 774 177 732 q 237 956 177 888 q 399 1024 297 1024 q 545 963 490 1024 q 600 816 600 903 q 533 652 600 717 q 330 525 466 586 q 359 477 342 503 q 395 423 376 451 q 469 328 428 376 q 557 240 510 280 q 627 363 593 295 q 692 510 660 431 l 765 475 q 684 321 726 388 q 597 197 641 255 l 850 71 l 835 -8 m 261 773 q 273 676 261 726 q 307 574 285 626 q 467 680 410 622 q 523 808 523 737 q 487 906 523 867 q 400 944 452 944 q 296 898 331 944 q 261 773 261 852 m 298 66 q 410 98 352 66 q 513 186 467 130 q 422 278 466 226 q 338 385 378 331 q 302 438 319 412 q 269 490 285 465 q 179 388 212 451 q 145 259 145 326 q 186 118 145 170 q 298 66 226 66 z "}}}
